<?xml version="1.0" encoding="utf-8" standalone="no"?>
<!DOCTYPE svg PUBLIC "-//W3C//DTD SVG 1.1//EN"
  "http://www.w3.org/Graphics/SVG/1.1/DTD/svg11.dtd">
<svg xmlns:xlink="http://www.w3.org/1999/xlink" width="720pt" height="216pt" viewBox="0 0 720 216" xmlns="http://www.w3.org/2000/svg" version="1.1">
 <metadata>
  <rdf:RDF xmlns:dc="http://purl.org/dc/elements/1.1/" xmlns:cc="http://creativecommons.org/ns#" xmlns:rdf="http://www.w3.org/1999/02/22-rdf-syntax-ns#">
   <cc:Work>
    <dc:type rdf:resource="http://purl.org/dc/dcmitype/StillImage"/>
    <dc:date>2024-08-27T13:27:38.441849</dc:date>
    <dc:format>image/svg+xml</dc:format>
    <dc:creator>
     <cc:Agent>
      <dc:title>Matplotlib v3.7.2, https://matplotlib.org/</dc:title>
     </cc:Agent>
    </dc:creator>
   </cc:Work>
  </rdf:RDF>
 </metadata>
 <defs>
  <style type="text/css">*{stroke-linejoin: round; stroke-linecap: butt}</style>
 </defs>
 <g id="figure_1">
  <g id="patch_1">
   <path d="M 0 216 
L 720 216 
L 720 0 
L 0 0 
z
" style="fill: #ffffff"/>
  </g>
  <g id="axes_1">
   <g id="patch_2">
    <path d="M 90 192.24 
L 648 192.24 
L 648 25.92 
L 90 25.92 
z
" style="fill: #ffffff"/>
   </g>
   <g id="matplotlib.axis_1">
    <g id="text_1">
     <!-- r -->
     <g transform="translate(365.300156 209.917188) scale(0.18 -0.18)">
      <defs>
       <path id="DejaVuSans-72" d="M 2631 2963 
Q 2534 3019 2420 3045 
Q 2306 3072 2169 3072 
Q 1681 3072 1420 2755 
Q 1159 2438 1159 1844 
L 1159 0 
L 581 0 
L 581 3500 
L 1159 3500 
L 1159 2956 
Q 1341 3275 1631 3429 
Q 1922 3584 2338 3584 
Q 2397 3584 2469 3576 
Q 2541 3569 2628 3553 
L 2631 2963 
z
" transform="scale(0.015625)"/>
      </defs>
      <use xlink:href="#DejaVuSans-72"/>
     </g>
    </g>
   </g>
   <g id="matplotlib.axis_2">
    <g id="ytick_1">
     <g id="line2d_1">
      <path d="M 90 192.24 
L 648 192.24 
" clip-path="url(#p99fdc30582)" style="fill: none; stroke: #b0b0b0; stroke-width: 0.8; stroke-linecap: square"/>
     </g>
     <g id="line2d_2">
      <defs>
       <path id="m762be466c6" d="M 0 0 
L -3.5 0 
" style="stroke: #000000; stroke-width: 0.8"/>
      </defs>
      <g>
       <use xlink:href="#m762be466c6" x="90" y="192.24" style="stroke: #000000; stroke-width: 0.8"/>
      </g>
     </g>
     <g id="text_2">
      <!-- −10 -->
      <g transform="translate(36.569688 200.598281) scale(0.22 -0.22)">
       <defs>
        <path id="DejaVuSans-2212" d="M 678 2272 
L 4684 2272 
L 4684 1741 
L 678 1741 
L 678 2272 
z
" transform="scale(0.015625)"/>
        <path id="DejaVuSans-31" d="M 794 531 
L 1825 531 
L 1825 4091 
L 703 3866 
L 703 4441 
L 1819 4666 
L 2450 4666 
L 2450 531 
L 3481 531 
L 3481 0 
L 794 0 
L 794 531 
z
" transform="scale(0.015625)"/>
        <path id="DejaVuSans-30" d="M 2034 4250 
Q 1547 4250 1301 3770 
Q 1056 3291 1056 2328 
Q 1056 1369 1301 889 
Q 1547 409 2034 409 
Q 2525 409 2770 889 
Q 3016 1369 3016 2328 
Q 3016 3291 2770 3770 
Q 2525 4250 2034 4250 
z
M 2034 4750 
Q 2819 4750 3233 4129 
Q 3647 3509 3647 2328 
Q 3647 1150 3233 529 
Q 2819 -91 2034 -91 
Q 1250 -91 836 529 
Q 422 1150 422 2328 
Q 422 3509 836 4129 
Q 1250 4750 2034 4750 
z
" transform="scale(0.015625)"/>
       </defs>
       <use xlink:href="#DejaVuSans-2212"/>
       <use xlink:href="#DejaVuSans-31" x="83.789062"/>
       <use xlink:href="#DejaVuSans-30" x="147.412109"/>
      </g>
     </g>
    </g>
    <g id="ytick_2">
     <g id="line2d_3">
      <path d="M 90 158.976 
L 648 158.976 
" clip-path="url(#p99fdc30582)" style="fill: none; stroke: #b0b0b0; stroke-width: 0.8; stroke-linecap: square"/>
     </g>
     <g id="line2d_4">
      <g>
       <use xlink:href="#m762be466c6" x="90" y="158.976" style="stroke: #000000; stroke-width: 0.8"/>
      </g>
     </g>
     <g id="text_3">
      <!-- −5 -->
      <g transform="translate(50.567188 167.334281) scale(0.22 -0.22)">
       <defs>
        <path id="DejaVuSans-35" d="M 691 4666 
L 3169 4666 
L 3169 4134 
L 1269 4134 
L 1269 2991 
Q 1406 3038 1543 3061 
Q 1681 3084 1819 3084 
Q 2600 3084 3056 2656 
Q 3513 2228 3513 1497 
Q 3513 744 3044 326 
Q 2575 -91 1722 -91 
Q 1428 -91 1123 -41 
Q 819 9 494 109 
L 494 744 
Q 775 591 1075 516 
Q 1375 441 1709 441 
Q 2250 441 2565 725 
Q 2881 1009 2881 1497 
Q 2881 1984 2565 2268 
Q 2250 2553 1709 2553 
Q 1456 2553 1204 2497 
Q 953 2441 691 2322 
L 691 4666 
z
" transform="scale(0.015625)"/>
       </defs>
       <use xlink:href="#DejaVuSans-2212"/>
       <use xlink:href="#DejaVuSans-35" x="83.789062"/>
      </g>
     </g>
    </g>
    <g id="ytick_3">
     <g id="line2d_5">
      <path d="M 90 125.712 
L 648 125.712 
" clip-path="url(#p99fdc30582)" style="fill: none; stroke: #b0b0b0; stroke-width: 0.8; stroke-linecap: square"/>
     </g>
     <g id="line2d_6">
      <g>
       <use xlink:href="#m762be466c6" x="90" y="125.712" style="stroke: #000000; stroke-width: 0.8"/>
      </g>
     </g>
     <g id="text_4">
      <!-- 0 -->
      <g transform="translate(69.0025 134.070281) scale(0.22 -0.22)">
       <use xlink:href="#DejaVuSans-30"/>
      </g>
     </g>
    </g>
    <g id="ytick_4">
     <g id="line2d_7">
      <path d="M 90 92.448 
L 648 92.448 
" clip-path="url(#p99fdc30582)" style="fill: none; stroke: #b0b0b0; stroke-width: 0.8; stroke-linecap: square"/>
     </g>
     <g id="line2d_8">
      <g>
       <use xlink:href="#m762be466c6" x="90" y="92.448" style="stroke: #000000; stroke-width: 0.8"/>
      </g>
     </g>
     <g id="text_5">
      <!-- 5 -->
      <g transform="translate(69.0025 100.806281) scale(0.22 -0.22)">
       <use xlink:href="#DejaVuSans-35"/>
      </g>
     </g>
    </g>
    <g id="ytick_5">
     <g id="line2d_9">
      <path d="M 90 59.184 
L 648 59.184 
" clip-path="url(#p99fdc30582)" style="fill: none; stroke: #b0b0b0; stroke-width: 0.8; stroke-linecap: square"/>
     </g>
     <g id="line2d_10">
      <g>
       <use xlink:href="#m762be466c6" x="90" y="59.184" style="stroke: #000000; stroke-width: 0.8"/>
      </g>
     </g>
     <g id="text_6">
      <!-- 10 -->
      <g transform="translate(55.005 67.542281) scale(0.22 -0.22)">
       <use xlink:href="#DejaVuSans-31"/>
       <use xlink:href="#DejaVuSans-30" x="63.623047"/>
      </g>
     </g>
    </g>
    <g id="ytick_6">
     <g id="line2d_11">
      <path d="M 90 25.92 
L 648 25.92 
" clip-path="url(#p99fdc30582)" style="fill: none; stroke: #b0b0b0; stroke-width: 0.8; stroke-linecap: square"/>
     </g>
     <g id="line2d_12">
      <g>
       <use xlink:href="#m762be466c6" x="90" y="25.92" style="stroke: #000000; stroke-width: 0.8"/>
      </g>
     </g>
     <g id="text_7">
      <!-- 15 -->
      <g transform="translate(55.005 34.278281) scale(0.22 -0.22)">
       <use xlink:href="#DejaVuSans-31"/>
       <use xlink:href="#DejaVuSans-35" x="63.623047"/>
      </g>
     </g>
    </g>
    <g id="text_8">
     <!-- G$_{AB}(r)-G_A(r)-G_B(r)$ -->
     <g transform="translate(28.82625 202.41) rotate(-90) scale(0.18 -0.18)">
      <defs>
       <path id="DejaVuSans-47" d="M 3809 666 
L 3809 1919 
L 2778 1919 
L 2778 2438 
L 4434 2438 
L 4434 434 
Q 4069 175 3628 42 
Q 3188 -91 2688 -91 
Q 1594 -91 976 548 
Q 359 1188 359 2328 
Q 359 3472 976 4111 
Q 1594 4750 2688 4750 
Q 3144 4750 3555 4637 
Q 3966 4525 4313 4306 
L 4313 3634 
Q 3963 3931 3569 4081 
Q 3175 4231 2741 4231 
Q 1884 4231 1454 3753 
Q 1025 3275 1025 2328 
Q 1025 1384 1454 906 
Q 1884 428 2741 428 
Q 3075 428 3337 486 
Q 3600 544 3809 666 
z
" transform="scale(0.015625)"/>
       <path id="DejaVuSans-Oblique-41" d="M 2356 4666 
L 3072 4666 
L 3938 0 
L 3278 0 
L 3084 1197 
L 984 1197 
L 325 0 
L -341 0 
L 2356 4666 
z
M 2584 4044 
L 1275 1722 
L 2988 1722 
L 2584 4044 
z
" transform="scale(0.015625)"/>
       <path id="DejaVuSans-Oblique-42" d="M 1081 4666 
L 2694 4666 
Q 3350 4666 3675 4422 
Q 4000 4178 4000 3688 
Q 4000 3238 3720 2911 
Q 3441 2584 2988 2516 
Q 3375 2428 3569 2181 
Q 3763 1934 3763 1522 
Q 3763 819 3242 409 
Q 2722 0 1819 0 
L 172 0 
L 1081 4666 
z
M 1234 2228 
L 903 519 
L 1919 519 
Q 2491 519 2800 781 
Q 3109 1044 3109 1522 
Q 3109 1891 2904 2059 
Q 2700 2228 2247 2228 
L 1234 2228 
z
M 1606 4147 
L 1331 2741 
L 2272 2741 
Q 2775 2741 3058 2959 
Q 3341 3178 3341 3566 
Q 3341 3869 3150 4008 
Q 2959 4147 2541 4147 
L 1606 4147 
z
" transform="scale(0.015625)"/>
       <path id="DejaVuSans-28" d="M 1984 4856 
Q 1566 4138 1362 3434 
Q 1159 2731 1159 2009 
Q 1159 1288 1364 580 
Q 1569 -128 1984 -844 
L 1484 -844 
Q 1016 -109 783 600 
Q 550 1309 550 2009 
Q 550 2706 781 3412 
Q 1013 4119 1484 4856 
L 1984 4856 
z
" transform="scale(0.015625)"/>
       <path id="DejaVuSans-Oblique-72" d="M 2853 2969 
Q 2766 3016 2653 3041 
Q 2541 3066 2413 3066 
Q 1953 3066 1609 2717 
Q 1266 2369 1153 1784 
L 800 0 
L 225 0 
L 909 3500 
L 1484 3500 
L 1375 2956 
Q 1603 3259 1920 3421 
Q 2238 3584 2597 3584 
Q 2691 3584 2781 3573 
Q 2872 3563 2963 3538 
L 2853 2969 
z
" transform="scale(0.015625)"/>
       <path id="DejaVuSans-29" d="M 513 4856 
L 1013 4856 
Q 1481 4119 1714 3412 
Q 1947 2706 1947 2009 
Q 1947 1309 1714 600 
Q 1481 -109 1013 -844 
L 513 -844 
Q 928 -128 1133 580 
Q 1338 1288 1338 2009 
Q 1338 2731 1133 3434 
Q 928 4138 513 4856 
z
" transform="scale(0.015625)"/>
       <path id="DejaVuSans-Oblique-47" d="M 3494 697 
L 3738 1919 
L 2700 1919 
L 2797 2438 
L 4453 2438 
L 4050 384 
Q 3634 156 3143 32 
Q 2653 -91 2156 -91 
Q 1278 -91 783 396 
Q 288 884 288 1753 
Q 288 2475 589 3126 
Q 891 3778 1422 4213 
Q 1756 4484 2153 4617 
Q 2550 4750 3034 4750 
Q 3472 4750 3873 4639 
Q 4275 4528 4641 4306 
L 4513 3634 
Q 4231 3928 3853 4083 
Q 3475 4238 3047 4238 
Q 2550 4238 2172 4048 
Q 1794 3859 1497 3463 
Q 1244 3125 1098 2667 
Q 953 2209 953 1734 
Q 953 1081 1287 751 
Q 1622 422 2284 422 
Q 2616 422 2925 492 
Q 3234 563 3494 697 
z
" transform="scale(0.015625)"/>
      </defs>
      <use xlink:href="#DejaVuSans-47" transform="translate(0 0.125)"/>
      <use xlink:href="#DejaVuSans-Oblique-41" transform="translate(78.447266 -16.28125) scale(0.7)"/>
      <use xlink:href="#DejaVuSans-Oblique-42" transform="translate(126.333008 -16.28125) scale(0.7)"/>
      <use xlink:href="#DejaVuSans-28" transform="translate(177.089844 0.125)"/>
      <use xlink:href="#DejaVuSans-Oblique-72" transform="translate(216.103516 0.125)"/>
      <use xlink:href="#DejaVuSans-29" transform="translate(257.216797 0.125)"/>
      <use xlink:href="#DejaVuSans-2212" transform="translate(315.712891 0.125)"/>
      <use xlink:href="#DejaVuSans-Oblique-47" transform="translate(418.984375 0.125)"/>
      <use xlink:href="#DejaVuSans-Oblique-41" transform="translate(496.474609 -16.28125) scale(0.7)"/>
      <use xlink:href="#DejaVuSans-28" transform="translate(547.094727 0.125)"/>
      <use xlink:href="#DejaVuSans-Oblique-72" transform="translate(586.108398 0.125)"/>
      <use xlink:href="#DejaVuSans-29" transform="translate(627.22168 0.125)"/>
      <use xlink:href="#DejaVuSans-2212" transform="translate(685.717773 0.125)"/>
      <use xlink:href="#DejaVuSans-Oblique-47" transform="translate(788.989258 0.125)"/>
      <use xlink:href="#DejaVuSans-Oblique-42" transform="translate(866.479492 -16.28125) scale(0.7)"/>
      <use xlink:href="#DejaVuSans-28" transform="translate(917.236328 0.125)"/>
      <use xlink:href="#DejaVuSans-Oblique-72" transform="translate(956.25 0.125)"/>
      <use xlink:href="#DejaVuSans-29" transform="translate(997.363281 0.125)"/>
     </g>
    </g>
   </g>
   <g id="line2d_13">
    <path d="M 622.636364 79.1424 
L 622.226446 79.946085 
L 621.816529 80.744339 
L 621.406612 81.537164 
L 620.996694 82.324558 
L 620.586777 83.106521 
L 620.17686 83.883055 
L 619.766942 84.654158 
L 619.357025 85.41983 
L 618.947107 86.180073 
L 618.53719 86.934885 
L 618.127273 87.684267 
L 617.717355 88.428218 
L 617.307438 89.166739 
L 616.897521 89.89983 
L 616.487603 90.627491 
L 616.077686 91.349721 
L 615.667769 92.066521 
L 615.257851 92.777891 
L 614.847934 93.48383 
L 614.438017 94.184339 
L 614.028099 94.879418 
L 613.618182 95.569067 
L 613.208264 96.253285 
L 612.798347 96.932073 
L 612.38843 97.60543 
L 611.978512 98.273358 
L 611.568595 98.935855 
L 611.158678 99.592921 
L 610.74876 100.244558 
L 610.338843 100.890764 
L 609.928926 101.531539 
L 609.519008 102.166885 
L 609.109091 102.7968 
L 608.699174 103.421285 
L 608.289256 104.040339 
L 607.879339 104.653964 
L 607.469421 105.262158 
L 607.059504 105.864921 
L 606.649587 106.462255 
L 606.239669 107.054158 
L 605.829752 107.64063 
L 605.419835 108.221673 
L 605.009917 108.797285 
L 604.6 109.367467 
L 604.190083 109.932218 
L 603.780165 110.491539 
L 603.370248 111.04543 
L 602.960331 111.593891 
L 602.550413 112.136921 
L 602.140496 112.674521 
L 601.730579 113.206691 
L 601.320661 113.73343 
L 600.910744 114.254739 
L 600.500826 114.770618 
L 600.090909 115.281067 
L 599.680992 115.786085 
L 599.271074 116.285673 
L 598.861157 116.77983 
L 598.45124 117.268558 
L 598.041322 117.751855 
L 597.631405 118.229721 
L 597.221488 118.702158 
L 596.81157 119.169164 
L 596.401653 119.630739 
L 595.991736 120.086885 
L 595.581818 120.5376 
L 595.171901 120.982885 
L 594.761983 121.422739 
L 594.352066 121.857164 
L 593.942149 122.286158 
L 593.532231 122.709721 
L 593.122314 123.127855 
L 592.712397 123.540558 
L 592.302479 123.94783 
L 591.892562 124.349673 
L 591.482645 124.746085 
L 591.072727 125.137067 
L 590.66281 125.522618 
L 590.252893 125.902739 
L 589.842975 126.27743 
L 589.433058 126.646691 
L 589.02314 127.010521 
L 588.613223 127.368921 
L 588.203306 127.721891 
L 587.793388 128.06943 
L 587.383471 128.411539 
L 586.973554 128.748218 
L 586.563636 129.079467 
L 586.153719 129.405285 
L 585.743802 129.725673 
L 585.333884 130.04063 
L 584.923967 130.350158 
L 584.51405 130.654255 
L 584.104132 130.952921 
L 583.694215 131.246158 
L 583.284298 131.533964 
L 582.87438 131.816339 
L 582.464463 132.093285 
L 582.054545 132.3648 
" clip-path="url(#p99fdc30582)" style="fill: none; stroke: #000000; stroke-width: 1.5; stroke-linecap: square"/>
   </g>
   <g id="line2d_14">
    <path d="M 582.054545 132.3648 
L 579.287603 134.055491 
L 576.520661 135.498764 
L 573.753719 136.694618 
L 570.986777 137.643055 
L 568.219835 138.344073 
L 565.452893 138.797673 
L 562.68595 139.003855 
L 559.919008 138.962618 
L 557.152066 138.673964 
L 554.385124 138.137891 
L 551.618182 137.3544 
L 548.85124 136.323491 
L 546.084298 135.045164 
L 543.317355 133.519418 
L 540.550413 131.746256 
L 537.783471 129.725677 
L 535.016529 127.457691 
L 532.249587 124.942325 
L 529.482645 122.179694 
L 526.715702 119.170242 
L 523.94876 115.915707 
L 521.181818 112.42287 
L 518.414876 108.718065 
L 515.647934 104.901463 
L 512.880992 101.326092 
L 510.11405 98.953235 
L 507.347107 99.044465 
L 504.580165 101.406536 
L 501.813223 104.719507 
L 499.046281 108.16673 
L 496.279339 111.470506 
L 493.512397 114.553901 
L 490.745455 117.396821 
L 487.978512 119.994101 
L 485.21157 122.344417 
L 482.444628 124.447432 
L 479.677686 126.303058 
L 476.910744 127.911274 
L 474.143802 129.272073 
L 471.37686 130.385455 
L 468.609917 131.251418 
L 465.842975 131.869964 
L 463.076033 132.241091 
L 460.309091 132.3648 
L 457.542149 132.241091 
L 454.775207 131.869964 
L 452.008264 131.251418 
L 449.241322 130.385455 
L 446.47438 129.272073 
L 443.707438 127.911273 
L 440.940496 126.303055 
L 438.173554 124.447418 
L 435.406612 122.344364 
L 432.639669 119.993891 
L 429.872727 117.396 
L 427.105785 114.550691 
L 424.338843 111.457964 
L 421.571901 108.117818 
L 418.804959 104.530256 
L 416.038017 100.695279 
L 413.271074 96.612907 
L 410.504132 92.28323 
L 407.73719 87.706717 
L 404.970248 82.885781 
L 402.203306 77.832771 
L 399.436364 72.610348 
L 396.669421 67.520854 
L 393.902479 63.731023 
L 391.135537 63.346821 
L 388.368595 66.174228 
L 385.601653 70.102498 
L 382.834711 74.103822 
L 380.067769 77.922904 
L 377.300826 81.507368 
L 374.533884 84.84691 
L 371.766942 87.939519 
L 369 90.784806 
L 366.233058 93.382692 
L 363.466116 95.733164 
L 360.699174 97.836218 
L 357.932231 99.691855 
L 355.165289 101.300073 
L 352.398347 102.660873 
L 349.631405 103.774255 
L 346.864463 104.640219 
L 344.097521 105.258765 
L 341.330579 105.629896 
L 338.563636 105.753615 
L 335.796694 105.629936 
L 333.029752 105.258897 
L 330.26281 104.640615 
L 327.495868 103.775436 
L 324.728926 102.664388 
L 321.961983 101.310532 
L 319.195041 99.722942 
L 316.428099 97.928342 
L 313.661157 96.003744 
L 310.894215 94.157844 
L 308.127273 92.868867 
" clip-path="url(#p99fdc30582)" style="fill: none; stroke: #000000; stroke-width: 1.5; stroke-linecap: square"/>
   </g>
   <g id="line2d_15">
    <path d="M 308.127273 92.868867 
L 306.180165 92.691693 
L 304.233058 93.337074 
L 302.28595 94.755723 
L 300.338843 96.709899 
L 298.391736 98.938842 
L 296.444628 101.256889 
L 294.497521 103.557558 
L 292.550413 105.786123 
L 290.603306 107.915926 
L 288.656198 109.934316 
L 286.709091 111.835355 
L 284.761983 113.616278 
L 282.814876 115.275795 
L 280.867769 116.81331 
L 278.920661 118.228544 
L 276.973554 119.521369 
L 275.026446 120.691724 
L 273.079339 121.739582 
L 271.132231 122.66493 
L 269.185124 123.467761 
L 267.238017 124.148075 
L 265.290909 124.705868 
L 263.343802 125.14114 
L 261.396694 125.453891 
L 259.449587 125.644121 
L 257.502479 125.712 
L 255.555372 125.712 
L 253.608264 125.712 
L 251.661157 125.712 
L 249.71405 125.712 
L 247.766942 125.712 
L 245.819835 125.712 
L 243.872727 125.712 
L 241.92562 125.712 
L 239.978512 125.712 
L 238.031405 125.712 
L 236.084298 125.712 
L 234.13719 125.712 
L 232.190083 125.712 
L 230.242975 125.712 
L 228.295868 125.712 
L 226.34876 125.712 
L 224.401653 125.712 
L 222.454545 125.712 
L 220.507438 125.712 
L 218.560331 125.712 
L 216.613223 125.712 
L 214.666116 125.712 
L 212.719008 125.712 
L 210.771901 125.712 
L 208.824793 125.712 
L 206.877686 125.712 
L 204.930579 125.712 
L 202.983471 125.712 
L 201.036364 125.712 
L 199.089256 125.712 
L 197.142149 125.712 
L 195.195041 125.712 
L 193.247934 125.712 
L 191.300826 125.712 
L 189.353719 125.712 
L 187.406612 125.712 
L 185.459504 125.712 
L 183.512397 125.712 
L 181.565289 125.712 
L 179.618182 125.712 
L 177.671074 125.712 
L 175.723967 125.712 
L 173.77686 125.712 
L 171.829752 125.712 
L 169.882645 125.712 
L 167.935537 125.712 
L 165.98843 125.712 
L 164.041322 125.712 
L 162.094215 125.712 
L 160.147107 125.712 
L 158.2 125.712 
L 156.252893 125.712 
L 154.305785 125.712 
L 152.358678 125.712 
L 150.41157 125.712 
L 148.464463 125.712 
L 146.517355 125.712 
L 144.570248 125.712 
L 142.62314 125.712 
L 140.676033 125.712 
L 138.728926 125.712 
L 136.781818 125.712 
L 134.834711 125.712 
L 132.887603 125.712 
L 130.940496 125.712 
L 128.993388 125.712 
L 127.046281 125.712 
L 125.099174 125.712 
L 123.152066 125.712 
L 121.204959 125.712 
L 119.257851 125.712 
L 117.310744 125.712 
L 115.363636 125.712 
" clip-path="url(#p99fdc30582)" style="fill: none; stroke: #000000; stroke-width: 1.5; stroke-linecap: square"/>
   </g>
   <g id="line2d_16">
    <path d="M 622.636364 145.6704 
L 115.363636 145.6704 
" clip-path="url(#p99fdc30582)" style="fill: none; stroke-dasharray: 11.1,4.8; stroke-dashoffset: 0; stroke: #ff0000; stroke-opacity: 0.5; stroke-width: 3"/>
   </g>
   <g id="patch_3">
    <path d="M 90 192.24 
L 90 25.92 
" style="fill: none; stroke: #000000; stroke-width: 0.8; stroke-linejoin: miter; stroke-linecap: square"/>
   </g>
   <g id="patch_4">
    <path d="M 648 192.24 
L 648 25.92 
" style="fill: none; stroke: #000000; stroke-width: 0.8; stroke-linejoin: miter; stroke-linecap: square"/>
   </g>
   <g id="patch_5">
    <path d="M 90 192.24 
L 648 192.24 
" style="fill: none; stroke: #000000; stroke-width: 0.8; stroke-linejoin: miter; stroke-linecap: square"/>
   </g>
   <g id="patch_6">
    <path d="M 90 25.92 
L 648 25.92 
" style="fill: none; stroke: #000000; stroke-width: 0.8; stroke-linejoin: miter; stroke-linecap: square"/>
   </g>
  </g>
 </g>
 <defs>
  <clipPath id="p99fdc30582">
   <rect x="90" y="25.92" width="558" height="166.32"/>
  </clipPath>
 </defs>
</svg>
