<?xml version="1.0" encoding="utf-8" standalone="no"?>
<!DOCTYPE svg PUBLIC "-//W3C//DTD SVG 1.1//EN"
  "http://www.w3.org/Graphics/SVG/1.1/DTD/svg11.dtd">
<svg xmlns:xlink="http://www.w3.org/1999/xlink" width="720pt" height="216pt" viewBox="0 0 720 216" xmlns="http://www.w3.org/2000/svg" version="1.1">
 <metadata>
  <rdf:RDF xmlns:dc="http://purl.org/dc/elements/1.1/" xmlns:cc="http://creativecommons.org/ns#" xmlns:rdf="http://www.w3.org/1999/02/22-rdf-syntax-ns#">
   <cc:Work>
    <dc:type rdf:resource="http://purl.org/dc/dcmitype/StillImage"/>
    <dc:date>2024-07-18T15:23:21.921051</dc:date>
    <dc:format>image/svg+xml</dc:format>
    <dc:creator>
     <cc:Agent>
      <dc:title>Matplotlib v3.7.2, https://matplotlib.org/</dc:title>
     </cc:Agent>
    </dc:creator>
   </cc:Work>
  </rdf:RDF>
 </metadata>
 <defs>
  <style type="text/css">*{stroke-linejoin: round; stroke-linecap: butt}</style>
 </defs>
 <g id="figure_1">
  <g id="patch_1">
   <path d="M 0 216 
L 720 216 
L 720 0 
L 0 0 
z
" style="fill: #ffffff"/>
  </g>
  <g id="axes_1">
   <g id="patch_2">
    <path d="M 90 192.24 
L 648 192.24 
L 648 25.92 
L 90 25.92 
z
" style="fill: #ffffff"/>
   </g>
   <g id="matplotlib.axis_1">
    <g id="text_1">
     <!-- r -->
     <g transform="translate(365.300156 209.917188) scale(0.18 -0.18)">
      <defs>
       <path id="DejaVuSans-72" d="M 2631 2963 
Q 2534 3019 2420 3045 
Q 2306 3072 2169 3072 
Q 1681 3072 1420 2755 
Q 1159 2438 1159 1844 
L 1159 0 
L 581 0 
L 581 3500 
L 1159 3500 
L 1159 2956 
Q 1341 3275 1631 3429 
Q 1922 3584 2338 3584 
Q 2397 3584 2469 3576 
Q 2541 3569 2628 3553 
L 2631 2963 
z
" transform="scale(0.015625)"/>
      </defs>
      <use xlink:href="#DejaVuSans-72"/>
     </g>
    </g>
   </g>
   <g id="matplotlib.axis_2">
    <g id="ytick_1">
     <g id="line2d_1">
      <path d="M 90 192.24 
L 648 192.24 
" clip-path="url(#pe6ec5a868b)" style="fill: none; stroke: #b0b0b0; stroke-width: 0.8; stroke-linecap: square"/>
     </g>
     <g id="line2d_2">
      <defs>
       <path id="m35a3f8135d" d="M 0 0 
L -3.5 0 
" style="stroke: #000000; stroke-width: 0.8"/>
      </defs>
      <g>
       <use xlink:href="#m35a3f8135d" x="90" y="192.24" style="stroke: #000000; stroke-width: 0.8"/>
      </g>
     </g>
     <g id="text_2">
      <!-- −15 -->
      <g transform="translate(36.569688 200.598281) scale(0.22 -0.22)">
       <defs>
        <path id="DejaVuSans-2212" d="M 678 2272 
L 4684 2272 
L 4684 1741 
L 678 1741 
L 678 2272 
z
" transform="scale(0.015625)"/>
        <path id="DejaVuSans-31" d="M 794 531 
L 1825 531 
L 1825 4091 
L 703 3866 
L 703 4441 
L 1819 4666 
L 2450 4666 
L 2450 531 
L 3481 531 
L 3481 0 
L 794 0 
L 794 531 
z
" transform="scale(0.015625)"/>
        <path id="DejaVuSans-35" d="M 691 4666 
L 3169 4666 
L 3169 4134 
L 1269 4134 
L 1269 2991 
Q 1406 3038 1543 3061 
Q 1681 3084 1819 3084 
Q 2600 3084 3056 2656 
Q 3513 2228 3513 1497 
Q 3513 744 3044 326 
Q 2575 -91 1722 -91 
Q 1428 -91 1123 -41 
Q 819 9 494 109 
L 494 744 
Q 775 591 1075 516 
Q 1375 441 1709 441 
Q 2250 441 2565 725 
Q 2881 1009 2881 1497 
Q 2881 1984 2565 2268 
Q 2250 2553 1709 2553 
Q 1456 2553 1204 2497 
Q 953 2441 691 2322 
L 691 4666 
z
" transform="scale(0.015625)"/>
       </defs>
       <use xlink:href="#DejaVuSans-2212"/>
       <use xlink:href="#DejaVuSans-31" x="83.789062"/>
       <use xlink:href="#DejaVuSans-35" x="147.412109"/>
      </g>
     </g>
    </g>
    <g id="ytick_2">
     <g id="line2d_3">
      <path d="M 90 165.239928 
L 648 165.239928 
" clip-path="url(#pe6ec5a868b)" style="fill: none; stroke: #b0b0b0; stroke-width: 0.8; stroke-linecap: square"/>
     </g>
     <g id="line2d_4">
      <g>
       <use xlink:href="#m35a3f8135d" x="90" y="165.239928" style="stroke: #000000; stroke-width: 0.8"/>
      </g>
     </g>
     <g id="text_3">
      <!-- −10 -->
      <g transform="translate(36.569688 173.59821) scale(0.22 -0.22)">
       <defs>
        <path id="DejaVuSans-30" d="M 2034 4250 
Q 1547 4250 1301 3770 
Q 1056 3291 1056 2328 
Q 1056 1369 1301 889 
Q 1547 409 2034 409 
Q 2525 409 2770 889 
Q 3016 1369 3016 2328 
Q 3016 3291 2770 3770 
Q 2525 4250 2034 4250 
z
M 2034 4750 
Q 2819 4750 3233 4129 
Q 3647 3509 3647 2328 
Q 3647 1150 3233 529 
Q 2819 -91 2034 -91 
Q 1250 -91 836 529 
Q 422 1150 422 2328 
Q 422 3509 836 4129 
Q 1250 4750 2034 4750 
z
" transform="scale(0.015625)"/>
       </defs>
       <use xlink:href="#DejaVuSans-2212"/>
       <use xlink:href="#DejaVuSans-31" x="83.789062"/>
       <use xlink:href="#DejaVuSans-30" x="147.412109"/>
      </g>
     </g>
    </g>
    <g id="ytick_3">
     <g id="line2d_5">
      <path d="M 90 138.239857 
L 648 138.239857 
" clip-path="url(#pe6ec5a868b)" style="fill: none; stroke: #b0b0b0; stroke-width: 0.8; stroke-linecap: square"/>
     </g>
     <g id="line2d_6">
      <g>
       <use xlink:href="#m35a3f8135d" x="90" y="138.239857" style="stroke: #000000; stroke-width: 0.8"/>
      </g>
     </g>
     <g id="text_4">
      <!-- −5 -->
      <g transform="translate(50.567188 146.598138) scale(0.22 -0.22)">
       <use xlink:href="#DejaVuSans-2212"/>
       <use xlink:href="#DejaVuSans-35" x="83.789062"/>
      </g>
     </g>
    </g>
    <g id="ytick_4">
     <g id="line2d_7">
      <path d="M 90 111.239785 
L 648 111.239785 
" clip-path="url(#pe6ec5a868b)" style="fill: none; stroke: #b0b0b0; stroke-width: 0.8; stroke-linecap: square"/>
     </g>
     <g id="line2d_8">
      <g>
       <use xlink:href="#m35a3f8135d" x="90" y="111.239785" style="stroke: #000000; stroke-width: 0.8"/>
      </g>
     </g>
     <g id="text_5">
      <!-- 0 -->
      <g transform="translate(69.0025 119.598067) scale(0.22 -0.22)">
       <use xlink:href="#DejaVuSans-30"/>
      </g>
     </g>
    </g>
    <g id="ytick_5">
     <g id="line2d_9">
      <path d="M 90 84.239714 
L 648 84.239714 
" clip-path="url(#pe6ec5a868b)" style="fill: none; stroke: #b0b0b0; stroke-width: 0.8; stroke-linecap: square"/>
     </g>
     <g id="line2d_10">
      <g>
       <use xlink:href="#m35a3f8135d" x="90" y="84.239714" style="stroke: #000000; stroke-width: 0.8"/>
      </g>
     </g>
     <g id="text_6">
      <!-- 5 -->
      <g transform="translate(69.0025 92.597995) scale(0.22 -0.22)">
       <use xlink:href="#DejaVuSans-35"/>
      </g>
     </g>
    </g>
    <g id="ytick_6">
     <g id="line2d_11">
      <path d="M 90 57.239642 
L 648 57.239642 
" clip-path="url(#pe6ec5a868b)" style="fill: none; stroke: #b0b0b0; stroke-width: 0.8; stroke-linecap: square"/>
     </g>
     <g id="line2d_12">
      <g>
       <use xlink:href="#m35a3f8135d" x="90" y="57.239642" style="stroke: #000000; stroke-width: 0.8"/>
      </g>
     </g>
     <g id="text_7">
      <!-- 10 -->
      <g transform="translate(55.005 65.597923) scale(0.22 -0.22)">
       <use xlink:href="#DejaVuSans-31"/>
       <use xlink:href="#DejaVuSans-30" x="63.623047"/>
      </g>
     </g>
    </g>
    <g id="ytick_7">
     <g id="line2d_13">
      <path d="M 90 30.239571 
L 648 30.239571 
" clip-path="url(#pe6ec5a868b)" style="fill: none; stroke: #b0b0b0; stroke-width: 0.8; stroke-linecap: square"/>
     </g>
     <g id="line2d_14">
      <g>
       <use xlink:href="#m35a3f8135d" x="90" y="30.239571" style="stroke: #000000; stroke-width: 0.8"/>
      </g>
     </g>
     <g id="text_8">
      <!-- 15 -->
      <g transform="translate(55.005 38.597852) scale(0.22 -0.22)">
       <use xlink:href="#DejaVuSans-31"/>
       <use xlink:href="#DejaVuSans-35" x="63.623047"/>
      </g>
     </g>
    </g>
    <g id="text_9">
     <!-- G$_{AB}(r)-G_A(r)-G_B(r)$ -->
     <g transform="translate(28.82625 202.41) rotate(-90) scale(0.18 -0.18)">
      <defs>
       <path id="DejaVuSans-47" d="M 3809 666 
L 3809 1919 
L 2778 1919 
L 2778 2438 
L 4434 2438 
L 4434 434 
Q 4069 175 3628 42 
Q 3188 -91 2688 -91 
Q 1594 -91 976 548 
Q 359 1188 359 2328 
Q 359 3472 976 4111 
Q 1594 4750 2688 4750 
Q 3144 4750 3555 4637 
Q 3966 4525 4313 4306 
L 4313 3634 
Q 3963 3931 3569 4081 
Q 3175 4231 2741 4231 
Q 1884 4231 1454 3753 
Q 1025 3275 1025 2328 
Q 1025 1384 1454 906 
Q 1884 428 2741 428 
Q 3075 428 3337 486 
Q 3600 544 3809 666 
z
" transform="scale(0.015625)"/>
       <path id="DejaVuSans-Oblique-41" d="M 2356 4666 
L 3072 4666 
L 3938 0 
L 3278 0 
L 3084 1197 
L 984 1197 
L 325 0 
L -341 0 
L 2356 4666 
z
M 2584 4044 
L 1275 1722 
L 2988 1722 
L 2584 4044 
z
" transform="scale(0.015625)"/>
       <path id="DejaVuSans-Oblique-42" d="M 1081 4666 
L 2694 4666 
Q 3350 4666 3675 4422 
Q 4000 4178 4000 3688 
Q 4000 3238 3720 2911 
Q 3441 2584 2988 2516 
Q 3375 2428 3569 2181 
Q 3763 1934 3763 1522 
Q 3763 819 3242 409 
Q 2722 0 1819 0 
L 172 0 
L 1081 4666 
z
M 1234 2228 
L 903 519 
L 1919 519 
Q 2491 519 2800 781 
Q 3109 1044 3109 1522 
Q 3109 1891 2904 2059 
Q 2700 2228 2247 2228 
L 1234 2228 
z
M 1606 4147 
L 1331 2741 
L 2272 2741 
Q 2775 2741 3058 2959 
Q 3341 3178 3341 3566 
Q 3341 3869 3150 4008 
Q 2959 4147 2541 4147 
L 1606 4147 
z
" transform="scale(0.015625)"/>
       <path id="DejaVuSans-28" d="M 1984 4856 
Q 1566 4138 1362 3434 
Q 1159 2731 1159 2009 
Q 1159 1288 1364 580 
Q 1569 -128 1984 -844 
L 1484 -844 
Q 1016 -109 783 600 
Q 550 1309 550 2009 
Q 550 2706 781 3412 
Q 1013 4119 1484 4856 
L 1984 4856 
z
" transform="scale(0.015625)"/>
       <path id="DejaVuSans-Oblique-72" d="M 2853 2969 
Q 2766 3016 2653 3041 
Q 2541 3066 2413 3066 
Q 1953 3066 1609 2717 
Q 1266 2369 1153 1784 
L 800 0 
L 225 0 
L 909 3500 
L 1484 3500 
L 1375 2956 
Q 1603 3259 1920 3421 
Q 2238 3584 2597 3584 
Q 2691 3584 2781 3573 
Q 2872 3563 2963 3538 
L 2853 2969 
z
" transform="scale(0.015625)"/>
       <path id="DejaVuSans-29" d="M 513 4856 
L 1013 4856 
Q 1481 4119 1714 3412 
Q 1947 2706 1947 2009 
Q 1947 1309 1714 600 
Q 1481 -109 1013 -844 
L 513 -844 
Q 928 -128 1133 580 
Q 1338 1288 1338 2009 
Q 1338 2731 1133 3434 
Q 928 4138 513 4856 
z
" transform="scale(0.015625)"/>
       <path id="DejaVuSans-Oblique-47" d="M 3494 697 
L 3738 1919 
L 2700 1919 
L 2797 2438 
L 4453 2438 
L 4050 384 
Q 3634 156 3143 32 
Q 2653 -91 2156 -91 
Q 1278 -91 783 396 
Q 288 884 288 1753 
Q 288 2475 589 3126 
Q 891 3778 1422 4213 
Q 1756 4484 2153 4617 
Q 2550 4750 3034 4750 
Q 3472 4750 3873 4639 
Q 4275 4528 4641 4306 
L 4513 3634 
Q 4231 3928 3853 4083 
Q 3475 4238 3047 4238 
Q 2550 4238 2172 4048 
Q 1794 3859 1497 3463 
Q 1244 3125 1098 2667 
Q 953 2209 953 1734 
Q 953 1081 1287 751 
Q 1622 422 2284 422 
Q 2616 422 2925 492 
Q 3234 563 3494 697 
z
" transform="scale(0.015625)"/>
      </defs>
      <use xlink:href="#DejaVuSans-47" transform="translate(0 0.125)"/>
      <use xlink:href="#DejaVuSans-Oblique-41" transform="translate(78.447266 -16.28125) scale(0.7)"/>
      <use xlink:href="#DejaVuSans-Oblique-42" transform="translate(126.333008 -16.28125) scale(0.7)"/>
      <use xlink:href="#DejaVuSans-28" transform="translate(177.089844 0.125)"/>
      <use xlink:href="#DejaVuSans-Oblique-72" transform="translate(216.103516 0.125)"/>
      <use xlink:href="#DejaVuSans-29" transform="translate(257.216797 0.125)"/>
      <use xlink:href="#DejaVuSans-2212" transform="translate(315.712891 0.125)"/>
      <use xlink:href="#DejaVuSans-Oblique-47" transform="translate(418.984375 0.125)"/>
      <use xlink:href="#DejaVuSans-Oblique-41" transform="translate(496.474609 -16.28125) scale(0.7)"/>
      <use xlink:href="#DejaVuSans-28" transform="translate(547.094727 0.125)"/>
      <use xlink:href="#DejaVuSans-Oblique-72" transform="translate(586.108398 0.125)"/>
      <use xlink:href="#DejaVuSans-29" transform="translate(627.22168 0.125)"/>
      <use xlink:href="#DejaVuSans-2212" transform="translate(685.717773 0.125)"/>
      <use xlink:href="#DejaVuSans-Oblique-47" transform="translate(788.989258 0.125)"/>
      <use xlink:href="#DejaVuSans-Oblique-42" transform="translate(866.479492 -16.28125) scale(0.7)"/>
      <use xlink:href="#DejaVuSans-28" transform="translate(917.236328 0.125)"/>
      <use xlink:href="#DejaVuSans-Oblique-72" transform="translate(956.25 0.125)"/>
      <use xlink:href="#DejaVuSans-29" transform="translate(997.363281 0.125)"/>
     </g>
    </g>
   </g>
   <g id="line2d_15">
    <path d="M 622.636364 30.239571 
L 620.806375 34.548122 
L 618.976387 38.74648 
L 617.146399 42.834645 
L 615.316411 46.812617 
L 613.486423 50.680396 
L 611.656434 54.437982 
L 609.826446 58.085374 
L 607.996458 61.622574 
L 606.16647 65.04958 
L 604.336482 68.366393 
L 602.506494 71.573014 
L 600.676505 74.66944 
L 598.846517 77.655674 
L 597.016529 80.531715 
L 595.186541 83.297563 
L 593.356553 85.953217 
L 591.526564 88.498678 
L 589.696576 90.933946 
L 587.866588 93.259021 
L 586.0366 95.473903 
L 584.206612 97.578592 
L 582.376623 99.573088 
L 580.546635 101.45739 
L 578.716647 103.2315 
L 576.886659 104.895416 
L 575.056671 106.449139 
L 573.226682 107.892669 
L 571.396694 109.226006 
L 569.566706 110.44915 
L 567.736718 111.5621 
L 565.90673 112.564858 
L 564.076741 113.457422 
L 562.246753 114.239793 
L 560.416765 114.911971 
L 558.586777 115.473956 
L 556.756789 115.925748 
L 554.9268 116.267347 
L 553.096812 116.498752 
L 551.266824 116.619965 
L 549.436836 116.630984 
L 547.606848 116.53181 
L 545.77686 116.322443 
L 543.946871 116.002883 
L 542.116883 115.57313 
L 540.286895 115.033184 
L 538.456907 114.383044 
L 536.626919 113.622712 
L 534.79693 112.752186 
L 532.966942 111.771467 
L 531.136954 110.680555 
L 529.306966 109.47945 
L 527.476978 108.168152 
L 525.646989 106.74666 
L 523.817001 105.214976 
L 521.987013 103.573098 
L 520.157025 101.821028 
L 518.327037 99.958764 
L 516.497048 97.986307 
L 514.66706 95.903657 
L 512.837072 93.710813 
L 511.007084 91.407777 
L 509.177096 88.994547 
L 507.347107 86.471125 
L 505.517119 83.837509 
L 503.687131 81.093701 
L 501.857143 78.239704 
L 500.027155 75.275528 
L 498.197166 72.20122 
L 496.367178 69.016969 
L 494.53719 65.723551 
L 492.707202 62.324161 
L 490.877214 58.831881 
L 489.047226 55.299627 
L 487.217237 51.930964 
L 485.387249 49.376592 
L 483.557261 48.814609 
L 481.727273 50.533491 
L 479.897285 53.428023 
L 478.067296 56.630955 
L 476.237308 59.834295 
L 474.40732 62.954907 
L 472.577332 65.97204 
L 470.747344 68.880613 
L 468.917355 71.679391 
L 467.087367 74.368072 
L 465.257379 76.946584 
L 463.427391 79.414908 
L 461.597403 81.773041 
L 459.767414 84.02098 
L 457.937426 86.158727 
L 456.107438 88.186281 
L 454.27745 90.103641 
L 452.447462 91.910808 
L 450.617473 93.607783 
L 448.787485 95.194564 
L 446.957497 96.671152 
L 445.127509 98.037546 
L 443.297521 99.293748 
L 441.467532 100.439757 
" clip-path="url(#pe6ec5a868b)" style="fill: none; stroke: #000000; stroke-width: 1.5; stroke-linecap: square"/>
   </g>
   <g id="line2d_16">
    <path d="M 441.467532 100.439757 
L 438.997048 101.812074 
L 436.526564 102.983565 
L 434.05608 103.954229 
L 431.585596 104.724066 
L 429.115112 105.293075 
L 426.644628 105.661258 
L 424.174144 105.828614 
L 421.70366 105.795143 
L 419.233176 105.560845 
L 416.762692 105.12572 
L 414.292208 104.489767 
L 411.821724 103.652988 
L 409.35124 102.615382 
L 406.880756 101.376949 
L 404.410272 99.937689 
L 401.939787 98.297602 
L 399.469303 96.456688 
L 396.998819 94.414948 
L 394.528335 92.17238 
L 392.057851 89.728987 
L 389.587367 87.084771 
L 387.116883 84.239747 
L 384.646399 81.193968 
L 382.175915 77.947642 
L 379.705431 74.501589 
L 377.234947 70.859001 
L 374.764463 67.032316 
L 372.293979 63.069396 
L 369.823495 59.146238 
L 367.353011 55.813468 
L 364.882527 54.126482 
L 362.412043 54.540704 
L 359.941558 56.152011 
L 357.471074 58.066641 
L 355.00059 59.923732 
L 352.530106 61.617702 
L 350.059622 63.12056 
L 347.589138 64.425079 
L 345.118654 65.529409 
L 342.64817 66.433074 
L 340.177686 67.135954 
L 337.707202 67.638018 
L 335.236718 67.939258 
L 332.766234 68.039671 
L 330.29575 67.939257 
L 327.825266 67.638017 
L 325.354782 67.135949 
L 322.884298 66.433055 
L 320.413813 65.529334 
L 317.943329 64.424785 
L 315.472845 63.11941 
L 313.002361 61.613208 
L 310.531877 59.906178 
L 308.061393 57.998322 
L 305.590909 55.88964 
L 303.120425 53.580137 
L 300.649941 51.069835 
L 298.179457 48.358851 
L 295.708973 45.447785 
L 293.238489 42.33972 
L 290.768005 39.050424 
L 288.297521 35.659315 
L 285.827037 32.53673 
L 283.356553 30.930966 
L 280.886068 32.35065 
L 278.415584 35.901957 
L 275.9451 40.009455 
L 273.474616 44.084499 
L 271.004132 47.992428 
L 268.533648 51.706129 
L 266.063164 55.220291 
L 263.59268 58.533875 
L 261.122196 61.646682 
L 258.651712 64.55867 
L 256.181228 67.269834 
L 253.710744 69.780171 
L 251.24026 72.089682 
L 248.769776 74.198365 
L 246.299292 76.106221 
L 243.828808 77.81325 
L 241.358323 79.319453 
L 238.887839 80.624828 
L 236.417355 81.729377 
L 233.946871 82.633098 
L 231.476387 83.335992 
L 229.005903 83.83806 
L 226.535419 84.1393 
L 224.064935 84.239714 
L 221.594451 84.1393 
L 219.123967 83.83806 
L 216.653483 83.335992 
L 214.182999 82.633098 
L 211.712515 81.729377 
L 209.242031 80.624828 
L 206.771547 79.319453 
L 204.301063 77.81325 
L 201.830579 76.106222 
L 199.360094 74.198369 
L 196.88961 72.089736 
" clip-path="url(#pe6ec5a868b)" style="fill: none; stroke: #000000; stroke-width: 1.5; stroke-linecap: square"/>
   </g>
   <g id="line2d_17">
    <path d="M 196.88961 72.089736 
L 196.066116 71.342282 
L 195.242621 70.572599 
L 194.419126 69.780785 
L 193.595632 68.967057 
L 192.772137 68.131876 
L 191.948642 67.276219 
L 191.125148 66.402131 
L 190.301653 65.513855 
L 189.478158 64.620069 
L 188.654664 63.738174 
L 187.831169 62.902029 
L 187.007674 62.174133 
L 186.184179 61.659488 
L 185.360685 61.506787 
L 184.53719 61.869523 
L 183.713695 62.823464 
L 182.890201 64.310666 
L 182.066706 66.178624 
L 181.243211 68.265696 
L 180.419717 70.451099 
L 179.596222 72.659762 
L 178.772727 74.849347 
L 177.949233 76.997099 
L 177.125738 79.091052 
L 176.302243 81.124959 
L 175.478749 83.095562 
L 174.655254 85.001154 
L 173.831759 86.840836 
L 173.008264 88.614133 
L 172.18477 90.320789 
L 171.361275 91.960668 
L 170.53778 93.533696 
L 169.714286 95.039833 
L 168.890791 96.479055 
L 168.067296 97.851351 
L 167.243802 99.156714 
L 166.420307 100.395139 
L 165.596812 101.566626 
L 164.773318 102.671172 
L 163.949823 103.708776 
L 163.126328 104.679439 
L 162.302834 105.58316 
L 161.479339 106.419938 
L 160.655844 107.189775 
L 159.832349 107.892669 
L 159.008855 108.528621 
L 158.18536 109.097631 
L 157.361865 109.599698 
L 156.538371 110.034824 
L 155.714876 110.403006 
L 154.891381 110.704247 
L 154.067887 110.938545 
L 153.244392 111.105901 
L 152.420897 111.206314 
L 151.597403 111.239785 
L 150.773908 111.239785 
L 149.950413 111.239785 
L 149.126919 111.239785 
L 148.303424 111.239785 
L 147.479929 111.239785 
L 146.656434 111.239785 
L 145.83294 111.239785 
L 145.009445 111.239785 
L 144.18595 111.239785 
L 143.362456 111.239785 
L 142.538961 111.239785 
L 141.715466 111.239785 
L 140.891972 111.239785 
L 140.068477 111.239785 
L 139.244982 111.239785 
L 138.421488 111.239785 
L 137.597993 111.239785 
L 136.774498 111.239785 
L 135.951004 111.239785 
L 135.127509 111.239785 
L 134.304014 111.239785 
L 133.480519 111.239785 
L 132.657025 111.239785 
L 131.83353 111.239785 
L 131.010035 111.239785 
L 130.186541 111.239785 
L 129.363046 111.239785 
L 128.539551 111.239785 
L 127.716057 111.239785 
L 126.892562 111.239785 
L 126.069067 111.239785 
L 125.245573 111.239785 
L 124.422078 111.239785 
L 123.598583 111.239785 
L 122.775089 111.239785 
L 121.951594 111.239785 
L 121.128099 111.239785 
L 120.304604 111.239785 
L 119.48111 111.239785 
L 118.657615 111.239785 
L 117.83412 111.239785 
L 117.010626 111.239785 
L 116.187131 111.239785 
L 115.363636 111.239785 
" clip-path="url(#pe6ec5a868b)" style="fill: none; stroke: #000000; stroke-width: 1.5; stroke-linecap: square"/>
   </g>
   <g id="patch_3">
    <path d="M 90 192.24 
L 90 25.92 
" style="fill: none; stroke: #000000; stroke-width: 0.8; stroke-linejoin: miter; stroke-linecap: square"/>
   </g>
   <g id="patch_4">
    <path d="M 648 192.24 
L 648 25.92 
" style="fill: none; stroke: #000000; stroke-width: 0.8; stroke-linejoin: miter; stroke-linecap: square"/>
   </g>
   <g id="patch_5">
    <path d="M 90 192.24 
L 648 192.24 
" style="fill: none; stroke: #000000; stroke-width: 0.8; stroke-linejoin: miter; stroke-linecap: square"/>
   </g>
   <g id="patch_6">
    <path d="M 90 25.92 
L 648 25.92 
" style="fill: none; stroke: #000000; stroke-width: 0.8; stroke-linejoin: miter; stroke-linecap: square"/>
   </g>
  </g>
 </g>
 <defs>
  <clipPath id="pe6ec5a868b">
   <rect x="90" y="25.92" width="558" height="166.32"/>
  </clipPath>
 </defs>
</svg>
