<?xml version="1.0" encoding="utf-8" standalone="no"?>
<!DOCTYPE svg PUBLIC "-//W3C//DTD SVG 1.1//EN"
  "http://www.w3.org/Graphics/SVG/1.1/DTD/svg11.dtd">
<svg xmlns:xlink="http://www.w3.org/1999/xlink" width="864pt" height="288pt" viewBox="0 0 864 288" xmlns="http://www.w3.org/2000/svg" version="1.1">
 <metadata>
  <rdf:RDF xmlns:dc="http://purl.org/dc/elements/1.1/" xmlns:cc="http://creativecommons.org/ns#" xmlns:rdf="http://www.w3.org/1999/02/22-rdf-syntax-ns#">
   <cc:Work>
    <dc:type rdf:resource="http://purl.org/dc/dcmitype/StillImage"/>
    <dc:date>2024-08-12T09:45:22.462329</dc:date>
    <dc:format>image/svg+xml</dc:format>
    <dc:creator>
     <cc:Agent>
      <dc:title>Matplotlib v3.7.2, https://matplotlib.org/</dc:title>
     </cc:Agent>
    </dc:creator>
   </cc:Work>
  </rdf:RDF>
 </metadata>
 <defs>
  <style type="text/css">*{stroke-linejoin: round; stroke-linecap: butt}</style>
 </defs>
 <g id="figure_1">
  <g id="patch_1">
   <path d="M 0 288 
L 864 288 
L 864 0 
L 0 0 
z
" style="fill: #ffffff"/>
  </g>
  <g id="axes_1">
   <g id="patch_2">
    <path d="M 121.735 209.32 
L 294.26 209.32 
L 294.26 52.56 
L 121.735 52.56 
z
" style="fill: #ffffff"/>
   </g>
   <g id="matplotlib.axis_1">
    <g id="xtick_1">
     <g id="line2d_1">
      <path d="M 121.735 209.32 
L 121.735 52.56 
" clip-path="url(#pd6f98878b4)" style="fill: none; stroke: #b0b0b0; stroke-width: 0.8; stroke-linecap: square"/>
     </g>
     <g id="line2d_2">
      <defs>
       <path id="mb1e662e790" d="M 0 0 
L 0 3.5 
" style="stroke: #000000; stroke-width: 0.8"/>
      </defs>
      <g>
       <use xlink:href="#mb1e662e790" x="121.735" y="209.32" style="stroke: #000000; stroke-width: 0.8"/>
      </g>
     </g>
     <g id="text_1">
      <!-- 0 -->
      <g transform="translate(114.73625 233.036563) scale(0.22 -0.22)">
       <defs>
        <path id="DejaVuSans-30" d="M 2034 4250 
Q 1547 4250 1301 3770 
Q 1056 3291 1056 2328 
Q 1056 1369 1301 889 
Q 1547 409 2034 409 
Q 2525 409 2770 889 
Q 3016 1369 3016 2328 
Q 3016 3291 2770 3770 
Q 2525 4250 2034 4250 
z
M 2034 4750 
Q 2819 4750 3233 4129 
Q 3647 3509 3647 2328 
Q 3647 1150 3233 529 
Q 2819 -91 2034 -91 
Q 1250 -91 836 529 
Q 422 1150 422 2328 
Q 422 3509 836 4129 
Q 1250 4750 2034 4750 
z
" transform="scale(0.015625)"/>
       </defs>
       <use xlink:href="#DejaVuSans-30"/>
      </g>
     </g>
    </g>
    <g id="xtick_2">
     <g id="line2d_3">
      <path d="M 207.9975 209.32 
L 207.9975 52.56 
" clip-path="url(#pd6f98878b4)" style="fill: none; stroke: #b0b0b0; stroke-width: 0.8; stroke-linecap: square"/>
     </g>
     <g id="line2d_4">
      <g>
       <use xlink:href="#mb1e662e790" x="207.9975" y="209.32" style="stroke: #000000; stroke-width: 0.8"/>
      </g>
     </g>
     <g id="text_2">
      <!-- 5 -->
      <g transform="translate(200.99875 233.036563) scale(0.22 -0.22)">
       <defs>
        <path id="DejaVuSans-35" d="M 691 4666 
L 3169 4666 
L 3169 4134 
L 1269 4134 
L 1269 2991 
Q 1406 3038 1543 3061 
Q 1681 3084 1819 3084 
Q 2600 3084 3056 2656 
Q 3513 2228 3513 1497 
Q 3513 744 3044 326 
Q 2575 -91 1722 -91 
Q 1428 -91 1123 -41 
Q 819 9 494 109 
L 494 744 
Q 775 591 1075 516 
Q 1375 441 1709 441 
Q 2250 441 2565 725 
Q 2881 1009 2881 1497 
Q 2881 1984 2565 2268 
Q 2250 2553 1709 2553 
Q 1456 2553 1204 2497 
Q 953 2441 691 2322 
L 691 4666 
z
" transform="scale(0.015625)"/>
       </defs>
       <use xlink:href="#DejaVuSans-35"/>
      </g>
     </g>
    </g>
    <g id="xtick_3">
     <g id="line2d_5">
      <path d="M 294.26 209.32 
L 294.26 52.56 
" clip-path="url(#pd6f98878b4)" style="fill: none; stroke: #b0b0b0; stroke-width: 0.8; stroke-linecap: square"/>
     </g>
     <g id="line2d_6">
      <g>
       <use xlink:href="#mb1e662e790" x="294.26" y="209.32" style="stroke: #000000; stroke-width: 0.8"/>
      </g>
     </g>
     <g id="text_3">
      <!-- 10 -->
      <g transform="translate(280.2625 233.036563) scale(0.22 -0.22)">
       <defs>
        <path id="DejaVuSans-31" d="M 794 531 
L 1825 531 
L 1825 4091 
L 703 3866 
L 703 4441 
L 1819 4666 
L 2450 4666 
L 2450 531 
L 3481 531 
L 3481 0 
L 794 0 
L 794 531 
z
" transform="scale(0.015625)"/>
       </defs>
       <use xlink:href="#DejaVuSans-31"/>
       <use xlink:href="#DejaVuSans-30" x="63.623047"/>
      </g>
     </g>
    </g>
    <g id="text_4">
     <!-- $[L_{tot}]$ ($\mu M$) -->
     <g transform="translate(158.5975 256.811875) scale(0.2 -0.2)">
      <defs>
       <path id="DejaVuSans-5b" d="M 550 4863 
L 1875 4863 
L 1875 4416 
L 1125 4416 
L 1125 -397 
L 1875 -397 
L 1875 -844 
L 550 -844 
L 550 4863 
z
" transform="scale(0.015625)"/>
       <path id="DejaVuSans-Oblique-4c" d="M 1075 4666 
L 1709 4666 
L 909 525 
L 3181 525 
L 3078 0 
L 172 0 
L 1075 4666 
z
" transform="scale(0.015625)"/>
       <path id="DejaVuSans-Oblique-74" d="M 2706 3500 
L 2619 3053 
L 1472 3053 
L 1100 1153 
Q 1081 1047 1072 975 
Q 1063 903 1063 863 
Q 1063 663 1183 572 
Q 1303 481 1569 481 
L 2150 481 
L 2053 0 
L 1503 0 
Q 991 0 739 200 
Q 488 400 488 806 
Q 488 878 497 964 
Q 506 1050 525 1153 
L 897 3053 
L 409 3053 
L 500 3500 
L 978 3500 
L 1172 4494 
L 1747 4494 
L 1556 3500 
L 2706 3500 
z
" transform="scale(0.015625)"/>
       <path id="DejaVuSans-Oblique-6f" d="M 1625 -91 
Q 1009 -91 651 289 
Q 294 669 294 1325 
Q 294 1706 417 2101 
Q 541 2497 738 2766 
Q 1047 3184 1428 3384 
Q 1809 3584 2291 3584 
Q 2888 3584 3255 3212 
Q 3622 2841 3622 2241 
Q 3622 1825 3500 1412 
Q 3378 1000 3181 728 
Q 2875 309 2494 109 
Q 2113 -91 1625 -91 
z
M 891 1344 
Q 891 869 1089 633 
Q 1288 397 1691 397 
Q 2269 397 2648 901 
Q 3028 1406 3028 2181 
Q 3028 2634 2825 2865 
Q 2622 3097 2228 3097 
Q 1903 3097 1650 2945 
Q 1397 2794 1197 2484 
Q 1050 2253 970 1956 
Q 891 1659 891 1344 
z
" transform="scale(0.015625)"/>
       <path id="DejaVuSans-5d" d="M 1947 4863 
L 1947 -844 
L 622 -844 
L 622 -397 
L 1369 -397 
L 1369 4416 
L 622 4416 
L 622 4863 
L 1947 4863 
z
" transform="scale(0.015625)"/>
       <path id="DejaVuSans-20" transform="scale(0.015625)"/>
       <path id="DejaVuSans-28" d="M 1984 4856 
Q 1566 4138 1362 3434 
Q 1159 2731 1159 2009 
Q 1159 1288 1364 580 
Q 1569 -128 1984 -844 
L 1484 -844 
Q 1016 -109 783 600 
Q 550 1309 550 2009 
Q 550 2706 781 3412 
Q 1013 4119 1484 4856 
L 1984 4856 
z
" transform="scale(0.015625)"/>
       <path id="DejaVuSans-Oblique-3bc" d="M -84 -1331 
L 856 3500 
L 1434 3500 
L 1009 1322 
Q 997 1256 987 1175 
Q 978 1094 978 1013 
Q 978 722 1161 565 
Q 1344 409 1684 409 
Q 2147 409 2431 671 
Q 2716 934 2816 1459 
L 3213 3500 
L 3788 3500 
L 3266 809 
Q 3253 750 3248 706 
Q 3244 663 3244 628 
Q 3244 531 3283 486 
Q 3322 441 3406 441 
Q 3438 441 3492 456 
Q 3547 472 3647 513 
L 3559 50 
Q 3422 -19 3297 -55 
Q 3172 -91 3053 -91 
Q 2847 -91 2730 40 
Q 2613 172 2613 403 
Q 2438 153 2195 31 
Q 1953 -91 1625 -91 
Q 1334 -91 1117 43 
Q 900 178 831 397 
L 494 -1331 
L -84 -1331 
z
" transform="scale(0.015625)"/>
       <path id="DejaVuSans-Oblique-4d" d="M 1081 4666 
L 2028 4666 
L 2572 1522 
L 4378 4666 
L 5350 4666 
L 4441 0 
L 3828 0 
L 4622 4091 
L 2791 897 
L 2175 897 
L 1581 4103 
L 788 0 
L 172 0 
L 1081 4666 
z
" transform="scale(0.015625)"/>
       <path id="DejaVuSans-29" d="M 513 4856 
L 1013 4856 
Q 1481 4119 1714 3412 
Q 1947 2706 1947 2009 
Q 1947 1309 1714 600 
Q 1481 -109 1013 -844 
L 513 -844 
Q 928 -128 1133 580 
Q 1338 1288 1338 2009 
Q 1338 2731 1133 3434 
Q 928 4138 513 4856 
z
" transform="scale(0.015625)"/>
      </defs>
      <use xlink:href="#DejaVuSans-5b" transform="translate(0 0.015625)"/>
      <use xlink:href="#DejaVuSans-Oblique-4c" transform="translate(39.013672 0.015625)"/>
      <use xlink:href="#DejaVuSans-Oblique-74" transform="translate(94.726562 -16.390625) scale(0.7)"/>
      <use xlink:href="#DejaVuSans-Oblique-6f" transform="translate(122.172852 -16.390625) scale(0.7)"/>
      <use xlink:href="#DejaVuSans-Oblique-74" transform="translate(165 -16.390625) scale(0.7)"/>
      <use xlink:href="#DejaVuSans-5d" transform="translate(195.180664 0.015625)"/>
      <use xlink:href="#DejaVuSans-20" transform="translate(234.194336 0.015625)"/>
      <use xlink:href="#DejaVuSans-28" transform="translate(265.981445 0.015625)"/>
      <use xlink:href="#DejaVuSans-Oblique-3bc" transform="translate(304.995117 0.015625)"/>
      <use xlink:href="#DejaVuSans-Oblique-4d" transform="translate(368.618164 0.015625)"/>
      <use xlink:href="#DejaVuSans-29" transform="translate(454.897461 0.015625)"/>
     </g>
    </g>
   </g>
   <g id="matplotlib.axis_2">
    <g id="ytick_1">
     <g id="line2d_7">
      <path d="M 121.735 209.32 
L 294.26 209.32 
" clip-path="url(#pd6f98878b4)" style="fill: none; stroke: #b0b0b0; stroke-width: 0.8; stroke-linecap: square"/>
     </g>
     <g id="line2d_8">
      <defs>
       <path id="m2650c3bb8f" d="M 0 0 
L -3.5 0 
" style="stroke: #000000; stroke-width: 0.8"/>
      </defs>
      <g>
       <use xlink:href="#m2650c3bb8f" x="121.735" y="209.32" style="stroke: #000000; stroke-width: 0.8"/>
      </g>
     </g>
     <g id="text_5">
      <!-- 0.0 -->
      <g transform="translate(79.748125 217.678281) scale(0.22 -0.22)">
       <defs>
        <path id="DejaVuSans-2e" d="M 684 794 
L 1344 794 
L 1344 0 
L 684 0 
L 684 794 
z
" transform="scale(0.015625)"/>
       </defs>
       <use xlink:href="#DejaVuSans-30"/>
       <use xlink:href="#DejaVuSans-2e" x="63.623047"/>
       <use xlink:href="#DejaVuSans-30" x="95.410156"/>
      </g>
     </g>
    </g>
    <g id="ytick_2">
     <g id="line2d_9">
      <path d="M 121.735 144.003333 
L 294.26 144.003333 
" clip-path="url(#pd6f98878b4)" style="fill: none; stroke: #b0b0b0; stroke-width: 0.8; stroke-linecap: square"/>
     </g>
     <g id="line2d_10">
      <g>
       <use xlink:href="#m2650c3bb8f" x="121.735" y="144.003333" style="stroke: #000000; stroke-width: 0.8"/>
      </g>
     </g>
     <g id="text_6">
      <!-- 0.5 -->
      <g transform="translate(79.748125 152.361615) scale(0.22 -0.22)">
       <use xlink:href="#DejaVuSans-30"/>
       <use xlink:href="#DejaVuSans-2e" x="63.623047"/>
       <use xlink:href="#DejaVuSans-35" x="95.410156"/>
      </g>
     </g>
    </g>
    <g id="ytick_3">
     <g id="line2d_11">
      <path d="M 121.735 78.686667 
L 294.26 78.686667 
" clip-path="url(#pd6f98878b4)" style="fill: none; stroke: #b0b0b0; stroke-width: 0.8; stroke-linecap: square"/>
     </g>
     <g id="line2d_12">
      <g>
       <use xlink:href="#m2650c3bb8f" x="121.735" y="78.686667" style="stroke: #000000; stroke-width: 0.8"/>
      </g>
     </g>
     <g id="text_7">
      <!-- 1.0 -->
      <g transform="translate(79.748125 87.044948) scale(0.22 -0.22)">
       <use xlink:href="#DejaVuSans-31"/>
       <use xlink:href="#DejaVuSans-2e" x="63.623047"/>
       <use xlink:href="#DejaVuSans-30" x="95.410156"/>
      </g>
     </g>
    </g>
    <g id="text_8">
     <!-- f=$\frac{[ALB]}{min\{[A_{tot}],[B_{tot}],[L_{tot}]\}}$ -->
     <g transform="translate(64.088125 233.79) rotate(-90) scale(0.22 -0.22)">
      <defs>
       <path id="DejaVuSans-66" d="M 2375 4863 
L 2375 4384 
L 1825 4384 
Q 1516 4384 1395 4259 
Q 1275 4134 1275 3809 
L 1275 3500 
L 2222 3500 
L 2222 3053 
L 1275 3053 
L 1275 0 
L 697 0 
L 697 3053 
L 147 3053 
L 147 3500 
L 697 3500 
L 697 3744 
Q 697 4328 969 4595 
Q 1241 4863 1831 4863 
L 2375 4863 
z
" transform="scale(0.015625)"/>
       <path id="DejaVuSans-3d" d="M 678 2906 
L 4684 2906 
L 4684 2381 
L 678 2381 
L 678 2906 
z
M 678 1631 
L 4684 1631 
L 4684 1100 
L 678 1100 
L 678 1631 
z
" transform="scale(0.015625)"/>
       <path id="DejaVuSans-Oblique-41" d="M 2356 4666 
L 3072 4666 
L 3938 0 
L 3278 0 
L 3084 1197 
L 984 1197 
L 325 0 
L -341 0 
L 2356 4666 
z
M 2584 4044 
L 1275 1722 
L 2988 1722 
L 2584 4044 
z
" transform="scale(0.015625)"/>
       <path id="DejaVuSans-Oblique-42" d="M 1081 4666 
L 2694 4666 
Q 3350 4666 3675 4422 
Q 4000 4178 4000 3688 
Q 4000 3238 3720 2911 
Q 3441 2584 2988 2516 
Q 3375 2428 3569 2181 
Q 3763 1934 3763 1522 
Q 3763 819 3242 409 
Q 2722 0 1819 0 
L 172 0 
L 1081 4666 
z
M 1234 2228 
L 903 519 
L 1919 519 
Q 2491 519 2800 781 
Q 3109 1044 3109 1522 
Q 3109 1891 2904 2059 
Q 2700 2228 2247 2228 
L 1234 2228 
z
M 1606 4147 
L 1331 2741 
L 2272 2741 
Q 2775 2741 3058 2959 
Q 3341 3178 3341 3566 
Q 3341 3869 3150 4008 
Q 2959 4147 2541 4147 
L 1606 4147 
z
" transform="scale(0.015625)"/>
       <path id="DejaVuSans-Oblique-6d" d="M 5747 2113 
L 5338 0 
L 4763 0 
L 5166 2094 
Q 5191 2228 5203 2325 
Q 5216 2422 5216 2491 
Q 5216 2772 5059 2928 
Q 4903 3084 4622 3084 
Q 4203 3084 3875 2770 
Q 3547 2456 3450 1953 
L 3066 0 
L 2491 0 
L 2900 2094 
Q 2925 2209 2937 2307 
Q 2950 2406 2950 2484 
Q 2950 2769 2794 2926 
Q 2638 3084 2363 3084 
Q 1938 3084 1609 2770 
Q 1281 2456 1184 1953 
L 800 0 
L 225 0 
L 909 3500 
L 1484 3500 
L 1375 2956 
Q 1609 3263 1923 3423 
Q 2238 3584 2597 3584 
Q 2978 3584 3223 3384 
Q 3469 3184 3519 2828 
Q 3781 3197 4126 3390 
Q 4472 3584 4856 3584 
Q 5306 3584 5551 3325 
Q 5797 3066 5797 2591 
Q 5797 2488 5784 2364 
Q 5772 2241 5747 2113 
z
" transform="scale(0.015625)"/>
       <path id="DejaVuSans-Oblique-69" d="M 1172 4863 
L 1747 4863 
L 1606 4134 
L 1031 4134 
L 1172 4863 
z
M 909 3500 
L 1484 3500 
L 800 0 
L 225 0 
L 909 3500 
z
" transform="scale(0.015625)"/>
       <path id="DejaVuSans-Oblique-6e" d="M 3566 2113 
L 3156 0 
L 2578 0 
L 2988 2091 
Q 3016 2238 3031 2350 
Q 3047 2463 3047 2528 
Q 3047 2791 2881 2937 
Q 2716 3084 2419 3084 
Q 1956 3084 1622 2776 
Q 1288 2469 1184 1941 
L 800 0 
L 225 0 
L 903 3500 
L 1478 3500 
L 1363 2950 
Q 1603 3253 1940 3418 
Q 2278 3584 2650 3584 
Q 3113 3584 3367 3334 
Q 3622 3084 3622 2631 
Q 3622 2519 3608 2391 
Q 3594 2263 3566 2113 
z
" transform="scale(0.015625)"/>
       <path id="DejaVuSans-7b" d="M 3272 -594 
L 3272 -1044 
L 3078 -1044 
Q 2300 -1044 2036 -812 
Q 1772 -581 1772 109 
L 1772 856 
Q 1772 1328 1603 1509 
Q 1434 1691 991 1691 
L 800 1691 
L 800 2138 
L 991 2138 
Q 1438 2138 1605 2317 
Q 1772 2497 1772 2963 
L 1772 3713 
Q 1772 4403 2036 4633 
Q 2300 4863 3078 4863 
L 3272 4863 
L 3272 4416 
L 3059 4416 
Q 2619 4416 2484 4278 
Q 2350 4141 2350 3700 
L 2350 2925 
Q 2350 2434 2208 2212 
Q 2066 1991 1722 1913 
Q 2069 1828 2209 1606 
Q 2350 1384 2350 897 
L 2350 122 
Q 2350 -319 2484 -456 
Q 2619 -594 3059 -594 
L 3272 -594 
z
" transform="scale(0.015625)"/>
       <path id="DejaVuSans-2c" d="M 750 794 
L 1409 794 
L 1409 256 
L 897 -744 
L 494 -744 
L 750 256 
L 750 794 
z
" transform="scale(0.015625)"/>
       <path id="DejaVuSans-7d" d="M 800 -594 
L 1019 -594 
Q 1456 -594 1589 -459 
Q 1722 -325 1722 122 
L 1722 897 
Q 1722 1384 1862 1606 
Q 2003 1828 2350 1913 
Q 2003 1991 1862 2212 
Q 1722 2434 1722 2925 
L 1722 3700 
Q 1722 4144 1589 4280 
Q 1456 4416 1019 4416 
L 800 4416 
L 800 4863 
L 997 4863 
Q 1775 4863 2036 4633 
Q 2297 4403 2297 3713 
L 2297 2963 
Q 2297 2497 2465 2317 
Q 2634 2138 3078 2138 
L 3272 2138 
L 3272 1691 
L 3078 1691 
Q 2634 1691 2465 1509 
Q 2297 1328 2297 856 
L 2297 109 
Q 2297 -581 2036 -812 
Q 1775 -1044 997 -1044 
L 800 -1044 
L 800 -594 
z
" transform="scale(0.015625)"/>
      </defs>
      <use xlink:href="#DejaVuSans-66" transform="translate(0 0.782813)"/>
      <use xlink:href="#DejaVuSans-3d" transform="translate(35.205078 0.782813)"/>
      <use xlink:href="#DejaVuSans-5b" transform="translate(425.994141 53.810938) scale(0.7)"/>
      <use xlink:href="#DejaVuSans-Oblique-41" transform="translate(453.303711 53.810938) scale(0.7)"/>
      <use xlink:href="#DejaVuSans-Oblique-4c" transform="translate(501.189453 53.810938) scale(0.7)"/>
      <use xlink:href="#DejaVuSans-Oblique-42" transform="translate(540.188477 53.810938) scale(0.7)"/>
      <use xlink:href="#DejaVuSans-5d" transform="translate(588.210938 53.810938) scale(0.7)"/>
      <use xlink:href="#DejaVuSans-Oblique-6d" transform="translate(118.994141 -39.859375) scale(0.7)"/>
      <use xlink:href="#DejaVuSans-Oblique-69" transform="translate(187.182617 -39.859375) scale(0.7)"/>
      <use xlink:href="#DejaVuSans-Oblique-6e" transform="translate(206.630859 -39.859375) scale(0.7)"/>
      <use xlink:href="#DejaVuSans-7b" transform="translate(250.996094 -39.859375) scale(0.7)"/>
      <use xlink:href="#DejaVuSans-5b" transform="translate(295.532227 -39.859375) scale(0.7)"/>
      <use xlink:href="#DejaVuSans-Oblique-41" transform="translate(322.841797 -39.859375) scale(0.7)"/>
      <use xlink:href="#DejaVuSans-Oblique-74" transform="translate(370.727539 -51.34375) scale(0.49)"/>
      <use xlink:href="#DejaVuSans-Oblique-6f" transform="translate(389.939941 -51.34375) scale(0.49)"/>
      <use xlink:href="#DejaVuSans-Oblique-74" transform="translate(419.918945 -51.34375) scale(0.49)"/>
      <use xlink:href="#DejaVuSans-5d" transform="translate(441.04541 -39.859375) scale(0.7)"/>
      <use xlink:href="#DejaVuSans-2c" transform="translate(468.35498 -39.859375) scale(0.7)"/>
      <use xlink:href="#DejaVuSans-5b" transform="translate(504.243652 -39.859375) scale(0.7)"/>
      <use xlink:href="#DejaVuSans-Oblique-42" transform="translate(531.553223 -39.859375) scale(0.7)"/>
      <use xlink:href="#DejaVuSans-Oblique-74" transform="translate(579.575684 -51.34375) scale(0.49)"/>
      <use xlink:href="#DejaVuSans-Oblique-6f" transform="translate(598.788086 -51.34375) scale(0.49)"/>
      <use xlink:href="#DejaVuSans-Oblique-74" transform="translate(628.76709 -51.34375) scale(0.49)"/>
      <use xlink:href="#DejaVuSans-5d" transform="translate(649.893555 -39.859375) scale(0.7)"/>
      <use xlink:href="#DejaVuSans-2c" transform="translate(677.203125 -39.859375) scale(0.7)"/>
      <use xlink:href="#DejaVuSans-5b" transform="translate(713.091797 -39.859375) scale(0.7)"/>
      <use xlink:href="#DejaVuSans-Oblique-4c" transform="translate(740.401367 -39.859375) scale(0.7)"/>
      <use xlink:href="#DejaVuSans-Oblique-74" transform="translate(779.400391 -51.34375) scale(0.49)"/>
      <use xlink:href="#DejaVuSans-Oblique-6f" transform="translate(798.612793 -51.34375) scale(0.49)"/>
      <use xlink:href="#DejaVuSans-Oblique-74" transform="translate(828.591797 -51.34375) scale(0.49)"/>
      <use xlink:href="#DejaVuSans-5d" transform="translate(849.718262 -39.859375) scale(0.7)"/>
      <use xlink:href="#DejaVuSans-7d" transform="translate(877.027832 -39.859375) scale(0.7)"/>
      <path d="M 118.994141 19.579688 
L 118.994141 25.829688 
L 921.563965 25.829688 
L 921.563965 19.579688 
L 118.994141 19.579688 
z
"/>
     </g>
    </g>
   </g>
   <g id="line2d_13">
    <path d="M 121.759842 209.314777 
L 127.721783 208.174915 
L 134.271308 207.151932 
L 141.553552 206.243669 
L 149.718527 205.453649 
L 159.026356 204.781256 
L 169.834203 204.2294 
L 182.613488 203.80539 
L 198.36393 203.514677 
L 218.52215 203.377155 
L 246.297169 203.425263 
L 291.911579 203.754255 
L 294.449488 203.776373 
L 294.449488 203.776373 
" clip-path="url(#pd6f98878b4)" style="fill: none; stroke: #808080; stroke-width: 3; stroke-linecap: square"/>
   </g>
   <g id="line2d_14">
    <path d="M 225.256527 209.32 
L 225.256527 203.369802 
" clip-path="url(#pd6f98878b4)" style="fill: none; stroke-dasharray: 11.1,4.8; stroke-dashoffset: 0; stroke: #ff0000; stroke-opacity: 0.5; stroke-width: 3"/>
   </g>
   <g id="line2d_15">
    <path d="M 121.735 203.369802 
L 225.256527 203.369802 
" clip-path="url(#pd6f98878b4)" style="fill: none; stroke-dasharray: 11.1,4.8; stroke-dashoffset: 0; stroke: #ff0000; stroke-opacity: 0.5; stroke-width: 3"/>
   </g>
   <g id="line2d_16">
    <path d="M 121.766042 209.267809 
L 124.050958 205.646265 
L 126.383484 202.361366 
L 128.77544 199.372978 
L 131.251286 196.634577 
L 133.810481 194.134442 
L 136.484874 191.833076 
L 139.278334 189.722673 
L 142.235123 187.769668 
L 145.377481 185.964842 
L 148.708964 184.310623 
L 152.248702 182.800451 
L 156.104389 181.399513 
L 160.28557 180.120439 
L 164.886202 178.951888 
L 169.940621 177.904381 
L 175.485138 176.985909 
L 181.679004 176.188316 
L 188.60431 175.521995 
L 196.506215 174.987328 
L 205.717925 174.594322 
L 216.499037 174.366328 
L 229.390592 174.326603 
L 245.140923 174.510038 
L 265.398993 174.979498 
L 293.806258 175.876156 
L 294.532884 175.901226 
L 294.532884 175.901226 
" clip-path="url(#pd6f98878b4)" style="fill: none; stroke: #ffa500; stroke-width: 3; stroke-linecap: square"/>
   </g>
   <g id="line2d_17">
    <path d="M 225.256394 209.32 
L 225.256394 174.316904 
" clip-path="url(#pd6f98878b4)" style="fill: none; stroke-dasharray: 11.1,4.8; stroke-dashoffset: 0; stroke: #ff0000; stroke-opacity: 0.5; stroke-width: 3"/>
   </g>
   <g id="line2d_18">
    <path d="M 121.735 174.316904 
L 225.256394 174.316904 
" clip-path="url(#pd6f98878b4)" style="fill: none; stroke-dasharray: 11.1,4.8; stroke-dashoffset: 0; stroke: #ff0000; stroke-opacity: 0.5; stroke-width: 3"/>
   </g>
   <g id="line2d_19">
    <path d="M 121.827561 208.801811 
L 124.121068 196.614104 
L 126.179409 186.833762 
L 128.085776 178.81717 
L 129.902599 172.110362 
L 131.660075 166.448788 
L 133.395064 161.591317 
L 135.117597 157.410623 
L 136.853934 153.762151 
L 138.637329 150.523372 
L 140.470222 147.650943 
L 142.360889 145.095803 
L 144.324926 142.808157 
L 146.387035 140.740629 
L 148.583201 138.85023 
L 150.916324 137.131694 
L 153.439431 135.548198 
L 156.167245 134.097894 
L 159.178005 132.752243 
L 162.50667 131.514311 
L 166.19252 130.386766 
L 170.279676 129.371905 
L 174.913402 128.454868 
L 180.182207 127.644477 
L 186.19044 126.94957 
L 193.196312 126.369733 
L 201.398256 125.921858 
L 211.03965 125.623295 
L 222.819724 125.490521 
L 237.294814 125.560466 
L 255.737953 125.884186 
L 280.39809 126.554303 
L 294.545328 127.010163 
L 294.545328 127.010163 
" clip-path="url(#pd6f98878b4)" style="fill: none; stroke: #00008b; stroke-width: 3; stroke-linecap: square"/>
   </g>
   <g id="line2d_20">
    <path d="M 225.256172 209.32 
L 225.256172 125.487047 
" clip-path="url(#pd6f98878b4)" style="fill: none; stroke-dasharray: 11.1,4.8; stroke-dashoffset: 0; stroke: #ff0000; stroke-opacity: 0.5; stroke-width: 3"/>
   </g>
   <g id="line2d_21">
    <path d="M 121.735 125.487047 
L 225.256172 125.487047 
" clip-path="url(#pd6f98878b4)" style="fill: none; stroke-dasharray: 11.1,4.8; stroke-dashoffset: 0; stroke: #ff0000; stroke-opacity: 0.5; stroke-width: 3"/>
   </g>
   <g id="patch_3">
    <path d="M 121.735 209.32 
L 121.735 52.56 
" style="fill: none; stroke: #000000; stroke-width: 0.8; stroke-linejoin: miter; stroke-linecap: square"/>
   </g>
   <g id="patch_4">
    <path d="M 294.26 209.32 
L 294.26 52.56 
" style="fill: none; stroke: #000000; stroke-width: 0.8; stroke-linejoin: miter; stroke-linecap: square"/>
   </g>
   <g id="patch_5">
    <path d="M 121.735 209.32 
L 294.26 209.32 
" style="fill: none; stroke: #000000; stroke-width: 0.8; stroke-linejoin: miter; stroke-linecap: square"/>
   </g>
   <g id="patch_6">
    <path d="M 121.735 52.56 
L 294.26 52.56 
" style="fill: none; stroke: #000000; stroke-width: 0.8; stroke-linejoin: miter; stroke-linecap: square"/>
   </g>
   <g id="text_9">
    <!-- K$_D$=0.2$\mu$M -->
    <g transform="translate(140.5455 46.56) scale(0.264 -0.264)">
     <defs>
      <path id="DejaVuSans-4b" d="M 628 4666 
L 1259 4666 
L 1259 2694 
L 3353 4666 
L 4166 4666 
L 1850 2491 
L 4331 0 
L 3500 0 
L 1259 2247 
L 1259 0 
L 628 0 
L 628 4666 
z
" transform="scale(0.015625)"/>
      <path id="DejaVuSans-Oblique-44" d="M 1081 4666 
L 2438 4666 
Q 3519 4666 4070 4208 
Q 4622 3750 4622 2847 
Q 4622 2250 4412 1698 
Q 4203 1147 3834 769 
Q 3463 381 2891 190 
Q 2319 0 1538 0 
L 172 0 
L 1081 4666 
z
M 1613 4147 
L 909 519 
L 1734 519 
Q 2794 519 3375 1128 
Q 3956 1738 3956 2847 
Q 3956 3519 3581 3833 
Q 3206 4147 2406 4147 
L 1613 4147 
z
" transform="scale(0.015625)"/>
      <path id="DejaVuSans-32" d="M 1228 531 
L 3431 531 
L 3431 0 
L 469 0 
L 469 531 
Q 828 903 1448 1529 
Q 2069 2156 2228 2338 
Q 2531 2678 2651 2914 
Q 2772 3150 2772 3378 
Q 2772 3750 2511 3984 
Q 2250 4219 1831 4219 
Q 1534 4219 1204 4116 
Q 875 4013 500 3803 
L 500 4441 
Q 881 4594 1212 4672 
Q 1544 4750 1819 4750 
Q 2544 4750 2975 4387 
Q 3406 4025 3406 3419 
Q 3406 3131 3298 2873 
Q 3191 2616 2906 2266 
Q 2828 2175 2409 1742 
Q 1991 1309 1228 531 
z
" transform="scale(0.015625)"/>
      <path id="DejaVuSans-4d" d="M 628 4666 
L 1569 4666 
L 2759 1491 
L 3956 4666 
L 4897 4666 
L 4897 0 
L 4281 0 
L 4281 4097 
L 3078 897 
L 2444 897 
L 1241 4097 
L 1241 0 
L 628 0 
L 628 4666 
z
" transform="scale(0.015625)"/>
     </defs>
     <use xlink:href="#DejaVuSans-4b" transform="translate(0 0.78125)"/>
     <use xlink:href="#DejaVuSans-Oblique-44" transform="translate(66.533203 -15.625) scale(0.7)"/>
     <use xlink:href="#DejaVuSans-3d" transform="translate(123.168945 0.78125)"/>
     <use xlink:href="#DejaVuSans-30" transform="translate(206.958008 0.78125)"/>
     <use xlink:href="#DejaVuSans-2e" transform="translate(270.581055 0.78125)"/>
     <use xlink:href="#DejaVuSans-32" transform="translate(296.868164 0.78125)"/>
     <use xlink:href="#DejaVuSans-Oblique-3bc" transform="translate(360.491211 0.78125)"/>
     <use xlink:href="#DejaVuSans-4d" transform="translate(424.114258 0.78125)"/>
    </g>
   </g>
  </g>
  <g id="axes_2">
   <g id="patch_7">
    <path d="M 387.75 209.32 
L 560.275 209.32 
L 560.275 52.56 
L 387.75 52.56 
z
" style="fill: #ffffff"/>
   </g>
   <g id="matplotlib.axis_3">
    <g id="xtick_4">
     <g id="line2d_22">
      <path d="M 387.75 209.32 
L 387.75 52.56 
" clip-path="url(#pb003d054b9)" style="fill: none; stroke: #b0b0b0; stroke-width: 0.8; stroke-linecap: square"/>
     </g>
     <g id="line2d_23">
      <g>
       <use xlink:href="#mb1e662e790" x="387.75" y="209.32" style="stroke: #000000; stroke-width: 0.8"/>
      </g>
     </g>
     <g id="text_10">
      <!-- 0 -->
      <g transform="translate(380.75125 233.036563) scale(0.22 -0.22)">
       <use xlink:href="#DejaVuSans-30"/>
      </g>
     </g>
    </g>
    <g id="xtick_5">
     <g id="line2d_24">
      <path d="M 474.0125 209.32 
L 474.0125 52.56 
" clip-path="url(#pb003d054b9)" style="fill: none; stroke: #b0b0b0; stroke-width: 0.8; stroke-linecap: square"/>
     </g>
     <g id="line2d_25">
      <g>
       <use xlink:href="#mb1e662e790" x="474.0125" y="209.32" style="stroke: #000000; stroke-width: 0.8"/>
      </g>
     </g>
     <g id="text_11">
      <!-- 5 -->
      <g transform="translate(467.01375 233.036563) scale(0.22 -0.22)">
       <use xlink:href="#DejaVuSans-35"/>
      </g>
     </g>
    </g>
    <g id="xtick_6">
     <g id="line2d_26">
      <path d="M 560.275 209.32 
L 560.275 52.56 
" clip-path="url(#pb003d054b9)" style="fill: none; stroke: #b0b0b0; stroke-width: 0.8; stroke-linecap: square"/>
     </g>
     <g id="line2d_27">
      <g>
       <use xlink:href="#mb1e662e790" x="560.275" y="209.32" style="stroke: #000000; stroke-width: 0.8"/>
      </g>
     </g>
     <g id="text_12">
      <!-- 10 -->
      <g transform="translate(546.2775 233.036563) scale(0.22 -0.22)">
       <use xlink:href="#DejaVuSans-31"/>
       <use xlink:href="#DejaVuSans-30" x="63.623047"/>
      </g>
     </g>
    </g>
    <g id="text_13">
     <!-- $[L_{tot}]$ ($\mu M$) -->
     <g transform="translate(424.6125 256.811875) scale(0.2 -0.2)">
      <use xlink:href="#DejaVuSans-5b" transform="translate(0 0.015625)"/>
      <use xlink:href="#DejaVuSans-Oblique-4c" transform="translate(39.013672 0.015625)"/>
      <use xlink:href="#DejaVuSans-Oblique-74" transform="translate(94.726562 -16.390625) scale(0.7)"/>
      <use xlink:href="#DejaVuSans-Oblique-6f" transform="translate(122.172852 -16.390625) scale(0.7)"/>
      <use xlink:href="#DejaVuSans-Oblique-74" transform="translate(165 -16.390625) scale(0.7)"/>
      <use xlink:href="#DejaVuSans-5d" transform="translate(195.180664 0.015625)"/>
      <use xlink:href="#DejaVuSans-20" transform="translate(234.194336 0.015625)"/>
      <use xlink:href="#DejaVuSans-28" transform="translate(265.981445 0.015625)"/>
      <use xlink:href="#DejaVuSans-Oblique-3bc" transform="translate(304.995117 0.015625)"/>
      <use xlink:href="#DejaVuSans-Oblique-4d" transform="translate(368.618164 0.015625)"/>
      <use xlink:href="#DejaVuSans-29" transform="translate(454.897461 0.015625)"/>
     </g>
    </g>
   </g>
   <g id="matplotlib.axis_4">
    <g id="ytick_4">
     <g id="line2d_28">
      <path d="M 387.75 209.32 
L 560.275 209.32 
" clip-path="url(#pb003d054b9)" style="fill: none; stroke: #b0b0b0; stroke-width: 0.8; stroke-linecap: square"/>
     </g>
     <g id="line2d_29">
      <g>
       <use xlink:href="#m2650c3bb8f" x="387.75" y="209.32" style="stroke: #000000; stroke-width: 0.8"/>
      </g>
     </g>
     <g id="text_14">
      <!-- 0.0 -->
      <g transform="translate(345.763125 217.678281) scale(0.22 -0.22)">
       <use xlink:href="#DejaVuSans-30"/>
       <use xlink:href="#DejaVuSans-2e" x="63.623047"/>
       <use xlink:href="#DejaVuSans-30" x="95.410156"/>
      </g>
     </g>
    </g>
    <g id="ytick_5">
     <g id="line2d_30">
      <path d="M 387.75 144.003333 
L 560.275 144.003333 
" clip-path="url(#pb003d054b9)" style="fill: none; stroke: #b0b0b0; stroke-width: 0.8; stroke-linecap: square"/>
     </g>
     <g id="line2d_31">
      <g>
       <use xlink:href="#m2650c3bb8f" x="387.75" y="144.003333" style="stroke: #000000; stroke-width: 0.8"/>
      </g>
     </g>
     <g id="text_15">
      <!-- 0.5 -->
      <g transform="translate(345.763125 152.361615) scale(0.22 -0.22)">
       <use xlink:href="#DejaVuSans-30"/>
       <use xlink:href="#DejaVuSans-2e" x="63.623047"/>
       <use xlink:href="#DejaVuSans-35" x="95.410156"/>
      </g>
     </g>
    </g>
    <g id="ytick_6">
     <g id="line2d_32">
      <path d="M 387.75 78.686667 
L 560.275 78.686667 
" clip-path="url(#pb003d054b9)" style="fill: none; stroke: #b0b0b0; stroke-width: 0.8; stroke-linecap: square"/>
     </g>
     <g id="line2d_33">
      <g>
       <use xlink:href="#m2650c3bb8f" x="387.75" y="78.686667" style="stroke: #000000; stroke-width: 0.8"/>
      </g>
     </g>
     <g id="text_16">
      <!-- 1.0 -->
      <g transform="translate(345.763125 87.044948) scale(0.22 -0.22)">
       <use xlink:href="#DejaVuSans-31"/>
       <use xlink:href="#DejaVuSans-2e" x="63.623047"/>
       <use xlink:href="#DejaVuSans-30" x="95.410156"/>
      </g>
     </g>
    </g>
   </g>
   <g id="line2d_34">
    <path d="M 387.818872 209.189887 
L 389.913352 205.47734 
L 391.972019 202.272465 
L 394.003839 199.514348 
L 396.026244 197.139502 
L 398.04339 195.108592 
L 400.082847 193.366431 
L 402.174711 191.87122 
L 404.332295 190.603403 
L 406.57053 189.545814 
L 408.927105 188.676837 
L 411.465264 187.978769 
L 414.235043 187.450655 
L 417.305619 187.095556 
L 420.770878 186.922171 
L 424.81819 186.947491 
L 429.713274 187.20709 
L 436.080592 187.778783 
L 445.791133 188.898566 
L 476.656762 192.574908 
L 491.731359 194.084153 
L 507.566627 195.444434 
L 524.921591 196.707399 
L 544.294494 197.888061 
L 560.278649 198.715808 
L 560.278649 198.715808 
" clip-path="url(#pb003d054b9)" style="fill: none; stroke: #808080; stroke-width: 3; stroke-linecap: square"/>
   </g>
   <g id="line2d_35">
    <path d="M 422.255 209.32 
L 422.255 186.906863 
" clip-path="url(#pb003d054b9)" style="fill: none; stroke-dasharray: 11.1,4.8; stroke-dashoffset: 0; stroke: #ff0000; stroke-opacity: 0.5; stroke-width: 3"/>
   </g>
   <g id="line2d_36">
    <path d="M 387.75 186.906863 
L 422.255 186.906863 
" clip-path="url(#pb003d054b9)" style="fill: none; stroke-dasharray: 11.1,4.8; stroke-dashoffset: 0; stroke: #ff0000; stroke-opacity: 0.5; stroke-width: 3"/>
   </g>
   <g id="line2d_37">
    <path d="M 387.970213 208.041666 
L 390.543061 193.808174 
L 392.736615 182.868326 
L 394.676894 174.278366 
L 396.43631 167.460833 
L 398.078648 161.961121 
L 399.625872 157.531571 
L 401.123757 153.899634 
L 402.586396 150.922716 
L 404.022951 148.486774 
L 405.472621 146.456189 
L 406.945874 144.7701 
L 408.457765 143.374314 
L 410.029093 142.223407 
L 411.687882 141.281786 
L 413.471325 140.524242 
L 415.428415 139.936355 
L 417.623693 139.515003 
L 420.097731 139.271622 
L 422.949057 139.217842 
L 426.367182 139.382689 
L 430.557966 139.816229 
L 435.962945 140.609721 
L 443.72269 141.993732 
L 460.132039 145.209922 
L 478.731125 148.759376 
L 494.06363 151.457151 
L 509.650954 153.971776 
L 525.747192 156.342901 
L 543.062172 158.664572 
L 560.40736 160.781285 
L 560.40736 160.781285 
" clip-path="url(#pb003d054b9)" style="fill: none; stroke: #ffa500; stroke-width: 3; stroke-linecap: square"/>
   </g>
   <g id="line2d_38">
    <path d="M 422.255 209.32 
L 422.255 139.21235 
" clip-path="url(#pb003d054b9)" style="fill: none; stroke-dasharray: 11.1,4.8; stroke-dashoffset: 0; stroke: #ff0000; stroke-opacity: 0.5; stroke-width: 3"/>
   </g>
   <g id="line2d_39">
    <path d="M 387.75 139.21235 
L 422.255 139.21235 
" clip-path="url(#pb003d054b9)" style="fill: none; stroke-dasharray: 11.1,4.8; stroke-dashoffset: 0; stroke: #ff0000; stroke-opacity: 0.5; stroke-width: 3"/>
   </g>
   <g id="line2d_40">
    <path d="M 389.244224 198.375731 
L 394.167951 163.275558 
L 397.003655 144.530714 
L 398.959277 132.993405 
L 400.475504 125.301822 
L 401.766055 119.849628 
L 402.930408 115.852856 
L 404.030118 112.836508 
L 405.109268 110.498138 
L 406.207543 108.636422 
L 407.333178 107.156182 
L 408.525553 105.951037 
L 409.80385 104.971564 
L 411.213371 104.169258 
L 412.818644 103.513513 
L 414.684399 102.996714 
L 416.899067 102.619768 
L 419.622961 102.390603 
L 423.049796 102.335547 
L 427.569495 102.498707 
L 433.879391 102.966334 
L 443.810014 103.950471 
L 511.292426 111.036929 
L 536.981044 113.346171 
L 560.501948 115.285222 
L 560.501948 115.285222 
" clip-path="url(#pb003d054b9)" style="fill: none; stroke: #00008b; stroke-width: 3; stroke-linecap: square"/>
   </g>
   <g id="line2d_41">
    <path d="M 422.255 209.32 
L 422.255 102.330975 
" clip-path="url(#pb003d054b9)" style="fill: none; stroke-dasharray: 11.1,4.8; stroke-dashoffset: 0; stroke: #ff0000; stroke-opacity: 0.5; stroke-width: 3"/>
   </g>
   <g id="line2d_42">
    <path d="M 387.75 102.330975 
L 422.255 102.330975 
" clip-path="url(#pb003d054b9)" style="fill: none; stroke-dasharray: 11.1,4.8; stroke-dashoffset: 0; stroke: #ff0000; stroke-opacity: 0.5; stroke-width: 3"/>
   </g>
   <g id="patch_8">
    <path d="M 387.75 209.32 
L 387.75 52.56 
" style="fill: none; stroke: #000000; stroke-width: 0.8; stroke-linejoin: miter; stroke-linecap: square"/>
   </g>
   <g id="patch_9">
    <path d="M 560.275 209.32 
L 560.275 52.56 
" style="fill: none; stroke: #000000; stroke-width: 0.8; stroke-linejoin: miter; stroke-linecap: square"/>
   </g>
   <g id="patch_10">
    <path d="M 387.75 209.32 
L 560.275 209.32 
" style="fill: none; stroke: #000000; stroke-width: 0.8; stroke-linejoin: miter; stroke-linecap: square"/>
   </g>
   <g id="patch_11">
    <path d="M 387.75 52.56 
L 560.275 52.56 
" style="fill: none; stroke: #000000; stroke-width: 0.8; stroke-linejoin: miter; stroke-linecap: square"/>
   </g>
   <g id="text_17">
    <!-- K$_D$=1$\mu$M -->
    <g transform="translate(418.4405 46.56) scale(0.264 -0.264)">
     <use xlink:href="#DejaVuSans-4b" transform="translate(0 0.09375)"/>
     <use xlink:href="#DejaVuSans-Oblique-44" transform="translate(66.533203 -16.3125) scale(0.7)"/>
     <use xlink:href="#DejaVuSans-3d" transform="translate(123.168945 0.09375)"/>
     <use xlink:href="#DejaVuSans-31" transform="translate(206.958008 0.09375)"/>
     <use xlink:href="#DejaVuSans-Oblique-3bc" transform="translate(270.581055 0.09375)"/>
     <use xlink:href="#DejaVuSans-4d" transform="translate(334.204102 0.09375)"/>
    </g>
   </g>
  </g>
  <g id="axes_3">
   <g id="patch_12">
    <path d="M 653.765 209.32 
L 826.29 209.32 
L 826.29 52.56 
L 653.765 52.56 
z
" style="fill: #ffffff"/>
   </g>
   <g id="matplotlib.axis_5">
    <g id="xtick_7">
     <g id="line2d_43">
      <path d="M 653.765 209.32 
L 653.765 52.56 
" clip-path="url(#pc0af6b2bad)" style="fill: none; stroke: #b0b0b0; stroke-width: 0.8; stroke-linecap: square"/>
     </g>
     <g id="line2d_44">
      <g>
       <use xlink:href="#mb1e662e790" x="653.765" y="209.32" style="stroke: #000000; stroke-width: 0.8"/>
      </g>
     </g>
     <g id="text_18">
      <!-- 0 -->
      <g transform="translate(646.76625 233.036563) scale(0.22 -0.22)">
       <use xlink:href="#DejaVuSans-30"/>
      </g>
     </g>
    </g>
    <g id="xtick_8">
     <g id="line2d_45">
      <path d="M 740.0275 209.32 
L 740.0275 52.56 
" clip-path="url(#pc0af6b2bad)" style="fill: none; stroke: #b0b0b0; stroke-width: 0.8; stroke-linecap: square"/>
     </g>
     <g id="line2d_46">
      <g>
       <use xlink:href="#mb1e662e790" x="740.0275" y="209.32" style="stroke: #000000; stroke-width: 0.8"/>
      </g>
     </g>
     <g id="text_19">
      <!-- 5 -->
      <g transform="translate(733.02875 233.036563) scale(0.22 -0.22)">
       <use xlink:href="#DejaVuSans-35"/>
      </g>
     </g>
    </g>
    <g id="xtick_9">
     <g id="line2d_47">
      <path d="M 826.29 209.32 
L 826.29 52.56 
" clip-path="url(#pc0af6b2bad)" style="fill: none; stroke: #b0b0b0; stroke-width: 0.8; stroke-linecap: square"/>
     </g>
     <g id="line2d_48">
      <g>
       <use xlink:href="#mb1e662e790" x="826.29" y="209.32" style="stroke: #000000; stroke-width: 0.8"/>
      </g>
     </g>
     <g id="text_20">
      <!-- 10 -->
      <g transform="translate(812.2925 233.036563) scale(0.22 -0.22)">
       <use xlink:href="#DejaVuSans-31"/>
       <use xlink:href="#DejaVuSans-30" x="63.623047"/>
      </g>
     </g>
    </g>
    <g id="text_21">
     <!-- $[L_{tot}]$ ($\mu M$) -->
     <g transform="translate(690.6275 256.811875) scale(0.2 -0.2)">
      <use xlink:href="#DejaVuSans-5b" transform="translate(0 0.015625)"/>
      <use xlink:href="#DejaVuSans-Oblique-4c" transform="translate(39.013672 0.015625)"/>
      <use xlink:href="#DejaVuSans-Oblique-74" transform="translate(94.726562 -16.390625) scale(0.7)"/>
      <use xlink:href="#DejaVuSans-Oblique-6f" transform="translate(122.172852 -16.390625) scale(0.7)"/>
      <use xlink:href="#DejaVuSans-Oblique-74" transform="translate(165 -16.390625) scale(0.7)"/>
      <use xlink:href="#DejaVuSans-5d" transform="translate(195.180664 0.015625)"/>
      <use xlink:href="#DejaVuSans-20" transform="translate(234.194336 0.015625)"/>
      <use xlink:href="#DejaVuSans-28" transform="translate(265.981445 0.015625)"/>
      <use xlink:href="#DejaVuSans-Oblique-3bc" transform="translate(304.995117 0.015625)"/>
      <use xlink:href="#DejaVuSans-Oblique-4d" transform="translate(368.618164 0.015625)"/>
      <use xlink:href="#DejaVuSans-29" transform="translate(454.897461 0.015625)"/>
     </g>
    </g>
   </g>
   <g id="matplotlib.axis_6">
    <g id="ytick_7">
     <g id="line2d_49">
      <path d="M 653.765 209.32 
L 826.29 209.32 
" clip-path="url(#pc0af6b2bad)" style="fill: none; stroke: #b0b0b0; stroke-width: 0.8; stroke-linecap: square"/>
     </g>
     <g id="line2d_50">
      <g>
       <use xlink:href="#m2650c3bb8f" x="653.765" y="209.32" style="stroke: #000000; stroke-width: 0.8"/>
      </g>
     </g>
     <g id="text_22">
      <!-- 0.0 -->
      <g transform="translate(611.778125 217.678281) scale(0.22 -0.22)">
       <use xlink:href="#DejaVuSans-30"/>
       <use xlink:href="#DejaVuSans-2e" x="63.623047"/>
       <use xlink:href="#DejaVuSans-30" x="95.410156"/>
      </g>
     </g>
    </g>
    <g id="ytick_8">
     <g id="line2d_51">
      <path d="M 653.765 144.003333 
L 826.29 144.003333 
" clip-path="url(#pc0af6b2bad)" style="fill: none; stroke: #b0b0b0; stroke-width: 0.8; stroke-linecap: square"/>
     </g>
     <g id="line2d_52">
      <g>
       <use xlink:href="#m2650c3bb8f" x="653.765" y="144.003333" style="stroke: #000000; stroke-width: 0.8"/>
      </g>
     </g>
     <g id="text_23">
      <!-- 0.5 -->
      <g transform="translate(611.778125 152.361615) scale(0.22 -0.22)">
       <use xlink:href="#DejaVuSans-30"/>
       <use xlink:href="#DejaVuSans-2e" x="63.623047"/>
       <use xlink:href="#DejaVuSans-35" x="95.410156"/>
      </g>
     </g>
    </g>
    <g id="ytick_9">
     <g id="line2d_53">
      <path d="M 653.765 78.686667 
L 826.29 78.686667 
" clip-path="url(#pc0af6b2bad)" style="fill: none; stroke: #b0b0b0; stroke-width: 0.8; stroke-linecap: square"/>
     </g>
     <g id="line2d_54">
      <g>
       <use xlink:href="#m2650c3bb8f" x="653.765" y="78.686667" style="stroke: #000000; stroke-width: 0.8"/>
      </g>
     </g>
     <g id="text_24">
      <!-- 1.0 -->
      <g transform="translate(611.778125 87.044948) scale(0.22 -0.22)">
       <use xlink:href="#DejaVuSans-31"/>
       <use xlink:href="#DejaVuSans-2e" x="63.623047"/>
       <use xlink:href="#DejaVuSans-30" x="95.410156"/>
      </g>
     </g>
    </g>
   </g>
   <g id="line2d_55">
    <path d="M 654.356984 206.237382 
L 656.828229 194.078947 
L 658.977329 184.574177 
L 660.877653 177.134481 
L 662.584138 171.314934 
L 664.133769 166.788123 
L 665.554346 163.294987 
L 666.880181 160.604064 
L 668.112719 158.584393 
L 669.276933 157.083881 
L 670.391108 155.994571 
L 671.479242 155.231573 
L 672.553378 154.741927 
L 673.665731 154.47979 
L 674.820712 154.436929 
L 676.086292 154.617037 
L 677.503095 155.048775 
L 679.172302 155.798909 
L 681.231616 156.980367 
L 684.064898 158.884352 
L 690.72735 163.733269 
L 695.834978 167.277606 
L 700.221023 170.054336 
L 704.584612 172.553441 
L 709.050204 174.852046 
L 713.686546 176.987462 
L 718.617204 179.011125 
L 723.8258 180.909238 
L 729.517147 182.74315 
L 735.602275 184.469872 
L 742.363961 186.151816 
L 749.728027 187.749215 
L 757.911931 189.289869 
L 766.8199 190.738969 
L 776.933083 192.152711 
L 788.200857 193.497025 
L 800.763517 194.769684 
L 815.080532 195.99314 
L 826.429205 196.826754 
L 826.429205 196.826754 
" clip-path="url(#pc0af6b2bad)" style="fill: none; stroke: #808080; stroke-width: 3; stroke-linecap: square"/>
   </g>
   <g id="line2d_56">
    <path d="M 674.467416 209.32 
L 674.467416 154.427337 
" clip-path="url(#pc0af6b2bad)" style="fill: none; stroke-dasharray: 11.1,4.8; stroke-dashoffset: 0; stroke: #ff0000; stroke-opacity: 0.5; stroke-width: 3"/>
   </g>
   <g id="line2d_57">
    <path d="M 653.765 154.427337 
L 674.467416 154.427337 
" clip-path="url(#pc0af6b2bad)" style="fill: none; stroke-dasharray: 11.1,4.8; stroke-dashoffset: 0; stroke: #ff0000; stroke-opacity: 0.5; stroke-width: 3"/>
   </g>
   <g id="line2d_58">
    <path d="M 656.863903 187.064593 
L 661.017849 158.386458 
L 663.649844 141.647927 
L 665.506312 131.170617 
L 666.935045 124.300036 
L 668.107468 119.687673 
L 669.120881 116.548111 
L 670.038369 114.390062 
L 670.893672 112.919758 
L 671.709102 111.940199 
L 672.517453 111.306605 
L 673.348238 110.935983 
L 674.239704 110.783623 
L 675.257686 110.841282 
L 676.480764 111.141221 
L 678.062122 111.770925 
L 680.294042 112.919005 
L 684.322765 115.285927 
L 692.483166 120.073641 
L 698.01999 123.042672 
L 703.653733 125.809467 
L 709.612259 128.483823 
L 715.978593 131.092526 
L 722.732563 133.619625 
L 730.132407 136.146802 
L 738.028515 138.607241 
L 746.672881 141.064218 
L 755.902431 143.456416 
L 766.07751 145.85973 
L 777.037958 148.216289 
L 789.034836 150.562254 
L 801.847387 152.839771 
L 815.766547 155.088178 
L 826.334512 156.660057 
L 826.334512 156.660057 
" clip-path="url(#pc0af6b2bad)" style="fill: none; stroke: #ffa500; stroke-width: 3; stroke-linecap: square"/>
   </g>
   <g id="line2d_59">
    <path d="M 674.467615 209.32 
L 674.467615 110.777677 
" clip-path="url(#pc0af6b2bad)" style="fill: none; stroke-dasharray: 11.1,4.8; stroke-dashoffset: 0; stroke: #ff0000; stroke-opacity: 0.5; stroke-width: 3"/>
   </g>
   <g id="line2d_60">
    <path d="M 653.765 110.777677 
L 674.467615 110.777677 
" clip-path="url(#pc0af6b2bad)" style="fill: none; stroke-dasharray: 11.1,4.8; stroke-dashoffset: 0; stroke: #ff0000; stroke-opacity: 0.5; stroke-width: 3"/>
   </g>
   <g id="line2d_61">
    <path d="M 663.093185 139.423367 
L 667.031308 111.157991 
L 668.627786 101.121219 
L 669.600379 96.291527 
L 670.343662 93.634573 
L 671.000955 92.051814 
L 671.635751 91.071304 
L 672.286328 90.45908 
L 673.010306 90.082271 
L 673.877585 89.889938 
L 675.00563 89.879866 
L 676.630366 90.105349 
L 679.350214 90.73494 
L 699.226595 95.742639 
L 708.214955 97.620027 
L 718.444417 99.524805 
L 730.154811 101.473582 
L 743.458175 103.457868 
L 758.583215 105.485665 
L 775.701804 107.553611 
L 795.065966 109.665702 
L 817.044604 111.833137 
L 826.615544 112.713599 
L 826.615544 112.713599 
" clip-path="url(#pc0af6b2bad)" style="fill: none; stroke: #00008b; stroke-width: 3; stroke-linecap: square"/>
   </g>
   <g id="line2d_62">
    <path d="M 674.467711 209.32 
L 674.467711 89.860012 
" clip-path="url(#pc0af6b2bad)" style="fill: none; stroke-dasharray: 11.1,4.8; stroke-dashoffset: 0; stroke: #ff0000; stroke-opacity: 0.5; stroke-width: 3"/>
   </g>
   <g id="line2d_63">
    <path d="M 653.765 89.860012 
L 674.467711 89.860012 
" clip-path="url(#pc0af6b2bad)" style="fill: none; stroke-dasharray: 11.1,4.8; stroke-dashoffset: 0; stroke: #ff0000; stroke-opacity: 0.5; stroke-width: 3"/>
   </g>
   <g id="patch_13">
    <path d="M 653.765 209.32 
L 653.765 52.56 
" style="fill: none; stroke: #000000; stroke-width: 0.8; stroke-linejoin: miter; stroke-linecap: square"/>
   </g>
   <g id="patch_14">
    <path d="M 826.29 209.32 
L 826.29 52.56 
" style="fill: none; stroke: #000000; stroke-width: 0.8; stroke-linejoin: miter; stroke-linecap: square"/>
   </g>
   <g id="patch_15">
    <path d="M 653.765 209.32 
L 826.29 209.32 
" style="fill: none; stroke: #000000; stroke-width: 0.8; stroke-linejoin: miter; stroke-linecap: square"/>
   </g>
   <g id="patch_16">
    <path d="M 653.765 52.56 
L 826.29 52.56 
" style="fill: none; stroke: #000000; stroke-width: 0.8; stroke-linejoin: miter; stroke-linecap: square"/>
   </g>
   <g id="text_25">
    <!-- K$_D$=5$\mu$M -->
    <g transform="translate(684.4555 46.56) scale(0.264 -0.264)">
     <use xlink:href="#DejaVuSans-4b" transform="translate(0 0.09375)"/>
     <use xlink:href="#DejaVuSans-Oblique-44" transform="translate(66.533203 -16.3125) scale(0.7)"/>
     <use xlink:href="#DejaVuSans-3d" transform="translate(123.168945 0.09375)"/>
     <use xlink:href="#DejaVuSans-35" transform="translate(206.958008 0.09375)"/>
     <use xlink:href="#DejaVuSans-Oblique-3bc" transform="translate(270.581055 0.09375)"/>
     <use xlink:href="#DejaVuSans-4d" transform="translate(334.204102 0.09375)"/>
    </g>
   </g>
  </g>
  <g id="legend_1">
   <g id="patch_17">
    <path d="M 199.68 6.691875 
L 664.32 6.691875 
Q 668.72 6.691875 668.72 2.291875 
L 668.72 -27.8 
Q 668.72 -32.2 664.32 -32.2 
L 199.68 -32.2 
Q 195.28 -32.2 195.28 -27.8 
L 195.28 2.291875 
Q 195.28 6.691875 199.68 6.691875 
z
" style="fill: #ffffff; opacity: 0.8; stroke: #cccccc; stroke-linejoin: miter"/>
   </g>
   <g id="line2d_64">
    <path style="fill: none; stroke: #808080; stroke-width: 3; stroke-linecap: square"/>
   </g>
   <g id="text_26">
    <!-- $\alpha$=1 -->
    <g transform="translate(265.68 -6.683438) scale(0.22 -0.22)">
     <defs>
      <path id="DejaVuSans-Oblique-3b1" d="M 2619 1628 
L 2622 2350 
Q 2625 3088 2069 3091 
Q 1653 3094 1394 2747 
Q 1069 2319 959 1747 
Q 825 1059 994 731 
Q 1169 397 1547 397 
Q 1966 397 2319 1063 
L 2619 1628 
z
M 2166 3578 
Q 3141 3594 3128 2584 
Q 3128 2584 3616 3500 
L 4128 3500 
L 3119 1603 
L 3109 919 
Q 3109 766 3194 638 
Q 3291 488 3391 488 
L 3669 488 
L 3575 0 
L 3228 0 
Q 2934 0 2722 263 
Q 2622 394 2619 669 
Q 2416 334 2066 50 
Q 1900 -81 1453 -78 
Q 722 -72 456 397 
Q 184 884 353 1747 
Q 534 2675 1009 3097 
Q 1544 3569 2166 3578 
z
" transform="scale(0.015625)"/>
     </defs>
     <use xlink:href="#DejaVuSans-Oblique-3b1" transform="translate(0 0.09375)"/>
     <use xlink:href="#DejaVuSans-3d" transform="translate(65.917969 0.09375)"/>
     <use xlink:href="#DejaVuSans-31" transform="translate(149.707031 0.09375)"/>
    </g>
   </g>
   <g id="line2d_65">
    <path style="fill: none; stroke: #ffa500; stroke-width: 3; stroke-linecap: square"/>
   </g>
   <g id="text_27">
    <!-- $\alpha$=10 -->
    <g transform="translate(418.36 -6.683438) scale(0.22 -0.22)">
     <use xlink:href="#DejaVuSans-Oblique-3b1" transform="translate(0 0.78125)"/>
     <use xlink:href="#DejaVuSans-3d" transform="translate(65.917969 0.78125)"/>
     <use xlink:href="#DejaVuSans-31" transform="translate(149.707031 0.78125)"/>
     <use xlink:href="#DejaVuSans-30" transform="translate(213.330078 0.78125)"/>
    </g>
   </g>
   <g id="line2d_66">
    <path style="fill: none; stroke: #00008b; stroke-width: 3; stroke-linecap: square"/>
   </g>
   <g id="text_28">
    <!-- $\alpha$=100 -->
    <g transform="translate(584.9 -6.683438) scale(0.22 -0.22)">
     <use xlink:href="#DejaVuSans-Oblique-3b1" transform="translate(0 0.78125)"/>
     <use xlink:href="#DejaVuSans-3d" transform="translate(65.917969 0.78125)"/>
     <use xlink:href="#DejaVuSans-31" transform="translate(149.707031 0.78125)"/>
     <use xlink:href="#DejaVuSans-30" transform="translate(213.330078 0.78125)"/>
     <use xlink:href="#DejaVuSans-30" transform="translate(276.953125 0.78125)"/>
    </g>
   </g>
  </g>
 </g>
 <defs>
  <clipPath id="pd6f98878b4">
   <rect x="121.735" y="52.56" width="172.525" height="156.76"/>
  </clipPath>
  <clipPath id="pb003d054b9">
   <rect x="387.75" y="52.56" width="172.525" height="156.76"/>
  </clipPath>
  <clipPath id="pc0af6b2bad">
   <rect x="653.765" y="52.56" width="172.525" height="156.76"/>
  </clipPath>
 </defs>
</svg>
