<?xml version="1.0" encoding="utf-8" standalone="no"?>
<!DOCTYPE svg PUBLIC "-//W3C//DTD SVG 1.1//EN"
  "http://www.w3.org/Graphics/SVG/1.1/DTD/svg11.dtd">
<svg xmlns:xlink="http://www.w3.org/1999/xlink" width="432pt" height="288pt" viewBox="0 0 432 288" xmlns="http://www.w3.org/2000/svg" version="1.1">
 <metadata>
  <rdf:RDF xmlns:dc="http://purl.org/dc/elements/1.1/" xmlns:cc="http://creativecommons.org/ns#" xmlns:rdf="http://www.w3.org/1999/02/22-rdf-syntax-ns#">
   <cc:Work>
    <dc:type rdf:resource="http://purl.org/dc/dcmitype/StillImage"/>
    <dc:date>2024-09-20T14:42:07.748893</dc:date>
    <dc:format>image/svg+xml</dc:format>
    <dc:creator>
     <cc:Agent>
      <dc:title>Matplotlib v3.7.2, https://matplotlib.org/</dc:title>
     </cc:Agent>
    </dc:creator>
   </cc:Work>
  </rdf:RDF>
 </metadata>
 <defs>
  <style type="text/css">*{stroke-linejoin: round; stroke-linecap: butt}</style>
 </defs>
 <g id="figure_1">
  <g id="patch_1">
   <path d="M 0 288 
L 432 288 
L 432 0 
L 0 0 
z
" style="fill: #ffffff"/>
  </g>
  <g id="axes_1">
   <g id="patch_2">
    <path d="M 107.875 209.32 
L 394.29 209.32 
L 394.29 51.84 
L 107.875 51.84 
z
" style="fill: #ffffff"/>
   </g>
   <g id="matplotlib.axis_1">
    <g id="xtick_1">
     <g id="line2d_1">
      <path d="M 107.875 209.32 
L 107.875 51.84 
" clip-path="url(#pfba8423ea8)" style="fill: none; stroke: #b0b0b0; stroke-width: 0.8; stroke-linecap: square"/>
     </g>
     <g id="line2d_2">
      <defs>
       <path id="md1c3bc53eb" d="M 0 0 
L 0 3.5 
" style="stroke: #000000; stroke-width: 0.8"/>
      </defs>
      <g>
       <use xlink:href="#md1c3bc53eb" x="107.875" y="209.32" style="stroke: #000000; stroke-width: 0.8"/>
      </g>
     </g>
     <g id="text_1">
      <!-- 0.0 -->
      <g transform="translate(90.381563 233.036563) scale(0.22 -0.22)">
       <defs>
        <path id="DejaVuSans-30" d="M 2034 4250 
Q 1547 4250 1301 3770 
Q 1056 3291 1056 2328 
Q 1056 1369 1301 889 
Q 1547 409 2034 409 
Q 2525 409 2770 889 
Q 3016 1369 3016 2328 
Q 3016 3291 2770 3770 
Q 2525 4250 2034 4250 
z
M 2034 4750 
Q 2819 4750 3233 4129 
Q 3647 3509 3647 2328 
Q 3647 1150 3233 529 
Q 2819 -91 2034 -91 
Q 1250 -91 836 529 
Q 422 1150 422 2328 
Q 422 3509 836 4129 
Q 1250 4750 2034 4750 
z
" transform="scale(0.015625)"/>
        <path id="DejaVuSans-2e" d="M 684 794 
L 1344 794 
L 1344 0 
L 684 0 
L 684 794 
z
" transform="scale(0.015625)"/>
       </defs>
       <use xlink:href="#DejaVuSans-30"/>
       <use xlink:href="#DejaVuSans-2e" x="63.623047"/>
       <use xlink:href="#DejaVuSans-30" x="95.410156"/>
      </g>
     </g>
    </g>
    <g id="xtick_2">
     <g id="line2d_3">
      <path d="M 179.47875 209.32 
L 179.47875 51.84 
" clip-path="url(#pfba8423ea8)" style="fill: none; stroke: #b0b0b0; stroke-width: 0.8; stroke-linecap: square"/>
     </g>
     <g id="line2d_4">
      <g>
       <use xlink:href="#md1c3bc53eb" x="179.47875" y="209.32" style="stroke: #000000; stroke-width: 0.8"/>
      </g>
     </g>
     <g id="text_2">
      <!-- 2.5 -->
      <g transform="translate(161.985312 233.036563) scale(0.22 -0.22)">
       <defs>
        <path id="DejaVuSans-32" d="M 1228 531 
L 3431 531 
L 3431 0 
L 469 0 
L 469 531 
Q 828 903 1448 1529 
Q 2069 2156 2228 2338 
Q 2531 2678 2651 2914 
Q 2772 3150 2772 3378 
Q 2772 3750 2511 3984 
Q 2250 4219 1831 4219 
Q 1534 4219 1204 4116 
Q 875 4013 500 3803 
L 500 4441 
Q 881 4594 1212 4672 
Q 1544 4750 1819 4750 
Q 2544 4750 2975 4387 
Q 3406 4025 3406 3419 
Q 3406 3131 3298 2873 
Q 3191 2616 2906 2266 
Q 2828 2175 2409 1742 
Q 1991 1309 1228 531 
z
" transform="scale(0.015625)"/>
        <path id="DejaVuSans-35" d="M 691 4666 
L 3169 4666 
L 3169 4134 
L 1269 4134 
L 1269 2991 
Q 1406 3038 1543 3061 
Q 1681 3084 1819 3084 
Q 2600 3084 3056 2656 
Q 3513 2228 3513 1497 
Q 3513 744 3044 326 
Q 2575 -91 1722 -91 
Q 1428 -91 1123 -41 
Q 819 9 494 109 
L 494 744 
Q 775 591 1075 516 
Q 1375 441 1709 441 
Q 2250 441 2565 725 
Q 2881 1009 2881 1497 
Q 2881 1984 2565 2268 
Q 2250 2553 1709 2553 
Q 1456 2553 1204 2497 
Q 953 2441 691 2322 
L 691 4666 
z
" transform="scale(0.015625)"/>
       </defs>
       <use xlink:href="#DejaVuSans-32"/>
       <use xlink:href="#DejaVuSans-2e" x="63.623047"/>
       <use xlink:href="#DejaVuSans-35" x="95.410156"/>
      </g>
     </g>
    </g>
    <g id="xtick_3">
     <g id="line2d_5">
      <path d="M 251.0825 209.32 
L 251.0825 51.84 
" clip-path="url(#pfba8423ea8)" style="fill: none; stroke: #b0b0b0; stroke-width: 0.8; stroke-linecap: square"/>
     </g>
     <g id="line2d_6">
      <g>
       <use xlink:href="#md1c3bc53eb" x="251.0825" y="209.32" style="stroke: #000000; stroke-width: 0.8"/>
      </g>
     </g>
     <g id="text_3">
      <!-- 5.0 -->
      <g transform="translate(233.589062 233.036563) scale(0.22 -0.22)">
       <use xlink:href="#DejaVuSans-35"/>
       <use xlink:href="#DejaVuSans-2e" x="63.623047"/>
       <use xlink:href="#DejaVuSans-30" x="95.410156"/>
      </g>
     </g>
    </g>
    <g id="xtick_4">
     <g id="line2d_7">
      <path d="M 322.68625 209.32 
L 322.68625 51.84 
" clip-path="url(#pfba8423ea8)" style="fill: none; stroke: #b0b0b0; stroke-width: 0.8; stroke-linecap: square"/>
     </g>
     <g id="line2d_8">
      <g>
       <use xlink:href="#md1c3bc53eb" x="322.68625" y="209.32" style="stroke: #000000; stroke-width: 0.8"/>
      </g>
     </g>
     <g id="text_4">
      <!-- 7.5 -->
      <g transform="translate(305.192812 233.036563) scale(0.22 -0.22)">
       <defs>
        <path id="DejaVuSans-37" d="M 525 4666 
L 3525 4666 
L 3525 4397 
L 1831 0 
L 1172 0 
L 2766 4134 
L 525 4134 
L 525 4666 
z
" transform="scale(0.015625)"/>
       </defs>
       <use xlink:href="#DejaVuSans-37"/>
       <use xlink:href="#DejaVuSans-2e" x="63.623047"/>
       <use xlink:href="#DejaVuSans-35" x="95.410156"/>
      </g>
     </g>
    </g>
    <g id="xtick_5">
     <g id="line2d_9">
      <path d="M 394.29 209.32 
L 394.29 51.84 
" clip-path="url(#pfba8423ea8)" style="fill: none; stroke: #b0b0b0; stroke-width: 0.8; stroke-linecap: square"/>
     </g>
     <g id="line2d_10">
      <g>
       <use xlink:href="#md1c3bc53eb" x="394.29" y="209.32" style="stroke: #000000; stroke-width: 0.8"/>
      </g>
     </g>
     <g id="text_5">
      <!-- 10.0 -->
      <g transform="translate(369.797812 233.036563) scale(0.22 -0.22)">
       <defs>
        <path id="DejaVuSans-31" d="M 794 531 
L 1825 531 
L 1825 4091 
L 703 3866 
L 703 4441 
L 1819 4666 
L 2450 4666 
L 2450 531 
L 3481 531 
L 3481 0 
L 794 0 
L 794 531 
z
" transform="scale(0.015625)"/>
       </defs>
       <use xlink:href="#DejaVuSans-31"/>
       <use xlink:href="#DejaVuSans-30" x="63.623047"/>
       <use xlink:href="#DejaVuSans-2e" x="127.246094"/>
       <use xlink:href="#DejaVuSans-30" x="159.033203"/>
      </g>
     </g>
    </g>
    <g id="text_6">
     <!-- $[L_{tot}]$ ($\mu M$) -->
     <g transform="translate(201.6825 256.811875) scale(0.2 -0.2)">
      <defs>
       <path id="DejaVuSans-5b" d="M 550 4863 
L 1875 4863 
L 1875 4416 
L 1125 4416 
L 1125 -397 
L 1875 -397 
L 1875 -844 
L 550 -844 
L 550 4863 
z
" transform="scale(0.015625)"/>
       <path id="DejaVuSans-Oblique-4c" d="M 1075 4666 
L 1709 4666 
L 909 525 
L 3181 525 
L 3078 0 
L 172 0 
L 1075 4666 
z
" transform="scale(0.015625)"/>
       <path id="DejaVuSans-Oblique-74" d="M 2706 3500 
L 2619 3053 
L 1472 3053 
L 1100 1153 
Q 1081 1047 1072 975 
Q 1063 903 1063 863 
Q 1063 663 1183 572 
Q 1303 481 1569 481 
L 2150 481 
L 2053 0 
L 1503 0 
Q 991 0 739 200 
Q 488 400 488 806 
Q 488 878 497 964 
Q 506 1050 525 1153 
L 897 3053 
L 409 3053 
L 500 3500 
L 978 3500 
L 1172 4494 
L 1747 4494 
L 1556 3500 
L 2706 3500 
z
" transform="scale(0.015625)"/>
       <path id="DejaVuSans-Oblique-6f" d="M 1625 -91 
Q 1009 -91 651 289 
Q 294 669 294 1325 
Q 294 1706 417 2101 
Q 541 2497 738 2766 
Q 1047 3184 1428 3384 
Q 1809 3584 2291 3584 
Q 2888 3584 3255 3212 
Q 3622 2841 3622 2241 
Q 3622 1825 3500 1412 
Q 3378 1000 3181 728 
Q 2875 309 2494 109 
Q 2113 -91 1625 -91 
z
M 891 1344 
Q 891 869 1089 633 
Q 1288 397 1691 397 
Q 2269 397 2648 901 
Q 3028 1406 3028 2181 
Q 3028 2634 2825 2865 
Q 2622 3097 2228 3097 
Q 1903 3097 1650 2945 
Q 1397 2794 1197 2484 
Q 1050 2253 970 1956 
Q 891 1659 891 1344 
z
" transform="scale(0.015625)"/>
       <path id="DejaVuSans-5d" d="M 1947 4863 
L 1947 -844 
L 622 -844 
L 622 -397 
L 1369 -397 
L 1369 4416 
L 622 4416 
L 622 4863 
L 1947 4863 
z
" transform="scale(0.015625)"/>
       <path id="DejaVuSans-20" transform="scale(0.015625)"/>
       <path id="DejaVuSans-28" d="M 1984 4856 
Q 1566 4138 1362 3434 
Q 1159 2731 1159 2009 
Q 1159 1288 1364 580 
Q 1569 -128 1984 -844 
L 1484 -844 
Q 1016 -109 783 600 
Q 550 1309 550 2009 
Q 550 2706 781 3412 
Q 1013 4119 1484 4856 
L 1984 4856 
z
" transform="scale(0.015625)"/>
       <path id="DejaVuSans-Oblique-3bc" d="M -84 -1331 
L 856 3500 
L 1434 3500 
L 1009 1322 
Q 997 1256 987 1175 
Q 978 1094 978 1013 
Q 978 722 1161 565 
Q 1344 409 1684 409 
Q 2147 409 2431 671 
Q 2716 934 2816 1459 
L 3213 3500 
L 3788 3500 
L 3266 809 
Q 3253 750 3248 706 
Q 3244 663 3244 628 
Q 3244 531 3283 486 
Q 3322 441 3406 441 
Q 3438 441 3492 456 
Q 3547 472 3647 513 
L 3559 50 
Q 3422 -19 3297 -55 
Q 3172 -91 3053 -91 
Q 2847 -91 2730 40 
Q 2613 172 2613 403 
Q 2438 153 2195 31 
Q 1953 -91 1625 -91 
Q 1334 -91 1117 43 
Q 900 178 831 397 
L 494 -1331 
L -84 -1331 
z
" transform="scale(0.015625)"/>
       <path id="DejaVuSans-Oblique-4d" d="M 1081 4666 
L 2028 4666 
L 2572 1522 
L 4378 4666 
L 5350 4666 
L 4441 0 
L 3828 0 
L 4622 4091 
L 2791 897 
L 2175 897 
L 1581 4103 
L 788 0 
L 172 0 
L 1081 4666 
z
" transform="scale(0.015625)"/>
       <path id="DejaVuSans-29" d="M 513 4856 
L 1013 4856 
Q 1481 4119 1714 3412 
Q 1947 2706 1947 2009 
Q 1947 1309 1714 600 
Q 1481 -109 1013 -844 
L 513 -844 
Q 928 -128 1133 580 
Q 1338 1288 1338 2009 
Q 1338 2731 1133 3434 
Q 928 4138 513 4856 
z
" transform="scale(0.015625)"/>
      </defs>
      <use xlink:href="#DejaVuSans-5b" transform="translate(0 0.015625)"/>
      <use xlink:href="#DejaVuSans-Oblique-4c" transform="translate(39.013672 0.015625)"/>
      <use xlink:href="#DejaVuSans-Oblique-74" transform="translate(94.726562 -16.390625) scale(0.7)"/>
      <use xlink:href="#DejaVuSans-Oblique-6f" transform="translate(122.172852 -16.390625) scale(0.7)"/>
      <use xlink:href="#DejaVuSans-Oblique-74" transform="translate(165 -16.390625) scale(0.7)"/>
      <use xlink:href="#DejaVuSans-5d" transform="translate(195.180664 0.015625)"/>
      <use xlink:href="#DejaVuSans-20" transform="translate(234.194336 0.015625)"/>
      <use xlink:href="#DejaVuSans-28" transform="translate(265.981445 0.015625)"/>
      <use xlink:href="#DejaVuSans-Oblique-3bc" transform="translate(304.995117 0.015625)"/>
      <use xlink:href="#DejaVuSans-Oblique-4d" transform="translate(368.618164 0.015625)"/>
      <use xlink:href="#DejaVuSans-29" transform="translate(454.897461 0.015625)"/>
     </g>
    </g>
   </g>
   <g id="matplotlib.axis_2">
    <g id="ytick_1">
     <g id="line2d_11">
      <path d="M 107.875 209.32 
L 394.29 209.32 
" clip-path="url(#pfba8423ea8)" style="fill: none; stroke: #b0b0b0; stroke-width: 0.8; stroke-linecap: square"/>
     </g>
     <g id="line2d_12">
      <defs>
       <path id="m59c1e02b4f" d="M 0 0 
L -3.5 0 
" style="stroke: #000000; stroke-width: 0.8"/>
      </defs>
      <g>
       <use xlink:href="#m59c1e02b4f" x="107.875" y="209.32" style="stroke: #000000; stroke-width: 0.8"/>
      </g>
     </g>
     <g id="text_7">
      <!-- 0.0 -->
      <g transform="translate(65.888125 217.678281) scale(0.22 -0.22)">
       <use xlink:href="#DejaVuSans-30"/>
       <use xlink:href="#DejaVuSans-2e" x="63.623047"/>
       <use xlink:href="#DejaVuSans-30" x="95.410156"/>
      </g>
     </g>
    </g>
    <g id="ytick_2">
     <g id="line2d_13">
      <path d="M 107.875 130.58 
L 394.29 130.58 
" clip-path="url(#pfba8423ea8)" style="fill: none; stroke: #b0b0b0; stroke-width: 0.8; stroke-linecap: square"/>
     </g>
     <g id="line2d_14">
      <g>
       <use xlink:href="#m59c1e02b4f" x="107.875" y="130.58" style="stroke: #000000; stroke-width: 0.8"/>
      </g>
     </g>
     <g id="text_8">
      <!-- 0.2 -->
      <g transform="translate(65.888125 138.938281) scale(0.22 -0.22)">
       <use xlink:href="#DejaVuSans-30"/>
       <use xlink:href="#DejaVuSans-2e" x="63.623047"/>
       <use xlink:href="#DejaVuSans-32" x="95.410156"/>
      </g>
     </g>
    </g>
    <g id="ytick_3">
     <g id="line2d_15">
      <path d="M 107.875 51.84 
L 394.29 51.84 
" clip-path="url(#pfba8423ea8)" style="fill: none; stroke: #b0b0b0; stroke-width: 0.8; stroke-linecap: square"/>
     </g>
     <g id="line2d_16">
      <g>
       <use xlink:href="#m59c1e02b4f" x="107.875" y="51.84" style="stroke: #000000; stroke-width: 0.8"/>
      </g>
     </g>
     <g id="text_9">
      <!-- 0.4 -->
      <g transform="translate(65.888125 60.198281) scale(0.22 -0.22)">
       <defs>
        <path id="DejaVuSans-34" d="M 2419 4116 
L 825 1625 
L 2419 1625 
L 2419 4116 
z
M 2253 4666 
L 3047 4666 
L 3047 1625 
L 3713 1625 
L 3713 1100 
L 3047 1100 
L 3047 0 
L 2419 0 
L 2419 1100 
L 313 1100 
L 313 1709 
L 2253 4666 
z
" transform="scale(0.015625)"/>
       </defs>
       <use xlink:href="#DejaVuSans-30"/>
       <use xlink:href="#DejaVuSans-2e" x="63.623047"/>
       <use xlink:href="#DejaVuSans-34" x="95.410156"/>
      </g>
     </g>
    </g>
    <g id="text_10">
     <!-- $f_3=\frac{[ALB]}{min\{[A_{tot}],[B_{tot}],[L_{tot}]\}}$ -->
     <g transform="translate(50.228125 242.89) rotate(-90) scale(0.22 -0.22)">
      <defs>
       <path id="DejaVuSans-Oblique-66" d="M 3059 4863 
L 2969 4384 
L 2419 4384 
Q 2106 4384 1964 4261 
Q 1822 4138 1753 3809 
L 1691 3500 
L 2638 3500 
L 2553 3053 
L 1606 3053 
L 1013 0 
L 434 0 
L 1031 3053 
L 481 3053 
L 563 3500 
L 1113 3500 
L 1159 3744 
Q 1278 4363 1576 4613 
Q 1875 4863 2516 4863 
L 3059 4863 
z
" transform="scale(0.015625)"/>
       <path id="DejaVuSans-33" d="M 2597 2516 
Q 3050 2419 3304 2112 
Q 3559 1806 3559 1356 
Q 3559 666 3084 287 
Q 2609 -91 1734 -91 
Q 1441 -91 1130 -33 
Q 819 25 488 141 
L 488 750 
Q 750 597 1062 519 
Q 1375 441 1716 441 
Q 2309 441 2620 675 
Q 2931 909 2931 1356 
Q 2931 1769 2642 2001 
Q 2353 2234 1838 2234 
L 1294 2234 
L 1294 2753 
L 1863 2753 
Q 2328 2753 2575 2939 
Q 2822 3125 2822 3475 
Q 2822 3834 2567 4026 
Q 2313 4219 1838 4219 
Q 1578 4219 1281 4162 
Q 984 4106 628 3988 
L 628 4550 
Q 988 4650 1302 4700 
Q 1616 4750 1894 4750 
Q 2613 4750 3031 4423 
Q 3450 4097 3450 3541 
Q 3450 3153 3228 2886 
Q 3006 2619 2597 2516 
z
" transform="scale(0.015625)"/>
       <path id="DejaVuSans-3d" d="M 678 2906 
L 4684 2906 
L 4684 2381 
L 678 2381 
L 678 2906 
z
M 678 1631 
L 4684 1631 
L 4684 1100 
L 678 1100 
L 678 1631 
z
" transform="scale(0.015625)"/>
       <path id="DejaVuSans-Oblique-41" d="M 2356 4666 
L 3072 4666 
L 3938 0 
L 3278 0 
L 3084 1197 
L 984 1197 
L 325 0 
L -341 0 
L 2356 4666 
z
M 2584 4044 
L 1275 1722 
L 2988 1722 
L 2584 4044 
z
" transform="scale(0.015625)"/>
       <path id="DejaVuSans-Oblique-42" d="M 1081 4666 
L 2694 4666 
Q 3350 4666 3675 4422 
Q 4000 4178 4000 3688 
Q 4000 3238 3720 2911 
Q 3441 2584 2988 2516 
Q 3375 2428 3569 2181 
Q 3763 1934 3763 1522 
Q 3763 819 3242 409 
Q 2722 0 1819 0 
L 172 0 
L 1081 4666 
z
M 1234 2228 
L 903 519 
L 1919 519 
Q 2491 519 2800 781 
Q 3109 1044 3109 1522 
Q 3109 1891 2904 2059 
Q 2700 2228 2247 2228 
L 1234 2228 
z
M 1606 4147 
L 1331 2741 
L 2272 2741 
Q 2775 2741 3058 2959 
Q 3341 3178 3341 3566 
Q 3341 3869 3150 4008 
Q 2959 4147 2541 4147 
L 1606 4147 
z
" transform="scale(0.015625)"/>
       <path id="DejaVuSans-Oblique-6d" d="M 5747 2113 
L 5338 0 
L 4763 0 
L 5166 2094 
Q 5191 2228 5203 2325 
Q 5216 2422 5216 2491 
Q 5216 2772 5059 2928 
Q 4903 3084 4622 3084 
Q 4203 3084 3875 2770 
Q 3547 2456 3450 1953 
L 3066 0 
L 2491 0 
L 2900 2094 
Q 2925 2209 2937 2307 
Q 2950 2406 2950 2484 
Q 2950 2769 2794 2926 
Q 2638 3084 2363 3084 
Q 1938 3084 1609 2770 
Q 1281 2456 1184 1953 
L 800 0 
L 225 0 
L 909 3500 
L 1484 3500 
L 1375 2956 
Q 1609 3263 1923 3423 
Q 2238 3584 2597 3584 
Q 2978 3584 3223 3384 
Q 3469 3184 3519 2828 
Q 3781 3197 4126 3390 
Q 4472 3584 4856 3584 
Q 5306 3584 5551 3325 
Q 5797 3066 5797 2591 
Q 5797 2488 5784 2364 
Q 5772 2241 5747 2113 
z
" transform="scale(0.015625)"/>
       <path id="DejaVuSans-Oblique-69" d="M 1172 4863 
L 1747 4863 
L 1606 4134 
L 1031 4134 
L 1172 4863 
z
M 909 3500 
L 1484 3500 
L 800 0 
L 225 0 
L 909 3500 
z
" transform="scale(0.015625)"/>
       <path id="DejaVuSans-Oblique-6e" d="M 3566 2113 
L 3156 0 
L 2578 0 
L 2988 2091 
Q 3016 2238 3031 2350 
Q 3047 2463 3047 2528 
Q 3047 2791 2881 2937 
Q 2716 3084 2419 3084 
Q 1956 3084 1622 2776 
Q 1288 2469 1184 1941 
L 800 0 
L 225 0 
L 903 3500 
L 1478 3500 
L 1363 2950 
Q 1603 3253 1940 3418 
Q 2278 3584 2650 3584 
Q 3113 3584 3367 3334 
Q 3622 3084 3622 2631 
Q 3622 2519 3608 2391 
Q 3594 2263 3566 2113 
z
" transform="scale(0.015625)"/>
       <path id="DejaVuSans-7b" d="M 3272 -594 
L 3272 -1044 
L 3078 -1044 
Q 2300 -1044 2036 -812 
Q 1772 -581 1772 109 
L 1772 856 
Q 1772 1328 1603 1509 
Q 1434 1691 991 1691 
L 800 1691 
L 800 2138 
L 991 2138 
Q 1438 2138 1605 2317 
Q 1772 2497 1772 2963 
L 1772 3713 
Q 1772 4403 2036 4633 
Q 2300 4863 3078 4863 
L 3272 4863 
L 3272 4416 
L 3059 4416 
Q 2619 4416 2484 4278 
Q 2350 4141 2350 3700 
L 2350 2925 
Q 2350 2434 2208 2212 
Q 2066 1991 1722 1913 
Q 2069 1828 2209 1606 
Q 2350 1384 2350 897 
L 2350 122 
Q 2350 -319 2484 -456 
Q 2619 -594 3059 -594 
L 3272 -594 
z
" transform="scale(0.015625)"/>
       <path id="DejaVuSans-2c" d="M 750 794 
L 1409 794 
L 1409 256 
L 897 -744 
L 494 -744 
L 750 256 
L 750 794 
z
" transform="scale(0.015625)"/>
       <path id="DejaVuSans-7d" d="M 800 -594 
L 1019 -594 
Q 1456 -594 1589 -459 
Q 1722 -325 1722 122 
L 1722 897 
Q 1722 1384 1862 1606 
Q 2003 1828 2350 1913 
Q 2003 1991 1862 2212 
Q 1722 2434 1722 2925 
L 1722 3700 
Q 1722 4144 1589 4280 
Q 1456 4416 1019 4416 
L 800 4416 
L 800 4863 
L 997 4863 
Q 1775 4863 2036 4633 
Q 2297 4403 2297 3713 
L 2297 2963 
Q 2297 2497 2465 2317 
Q 2634 2138 3078 2138 
L 3272 2138 
L 3272 1691 
L 3078 1691 
Q 2634 1691 2465 1509 
Q 2297 1328 2297 856 
L 2297 109 
Q 2297 -581 2036 -812 
Q 1775 -1044 997 -1044 
L 800 -1044 
L 800 -594 
z
" transform="scale(0.015625)"/>
      </defs>
      <use xlink:href="#DejaVuSans-Oblique-66" transform="translate(0 0.782813)"/>
      <use xlink:href="#DejaVuSans-33" transform="translate(35.205078 -15.623437) scale(0.7)"/>
      <use xlink:href="#DejaVuSans-3d" transform="translate(101.958008 0.782813)"/>
      <use xlink:href="#DejaVuSans-5b" transform="translate(512.229492 53.810938) scale(0.7)"/>
      <use xlink:href="#DejaVuSans-Oblique-41" transform="translate(539.539062 53.810938) scale(0.7)"/>
      <use xlink:href="#DejaVuSans-Oblique-4c" transform="translate(587.424805 53.810938) scale(0.7)"/>
      <use xlink:href="#DejaVuSans-Oblique-42" transform="translate(626.423828 53.810938) scale(0.7)"/>
      <use xlink:href="#DejaVuSans-5d" transform="translate(674.446289 53.810938) scale(0.7)"/>
      <use xlink:href="#DejaVuSans-Oblique-6d" transform="translate(205.229492 -39.859375) scale(0.7)"/>
      <use xlink:href="#DejaVuSans-Oblique-69" transform="translate(273.417969 -39.859375) scale(0.7)"/>
      <use xlink:href="#DejaVuSans-Oblique-6e" transform="translate(292.866211 -39.859375) scale(0.7)"/>
      <use xlink:href="#DejaVuSans-7b" transform="translate(337.231445 -39.859375) scale(0.7)"/>
      <use xlink:href="#DejaVuSans-5b" transform="translate(381.767578 -39.859375) scale(0.7)"/>
      <use xlink:href="#DejaVuSans-Oblique-41" transform="translate(409.077148 -39.859375) scale(0.7)"/>
      <use xlink:href="#DejaVuSans-Oblique-74" transform="translate(456.962891 -51.34375) scale(0.49)"/>
      <use xlink:href="#DejaVuSans-Oblique-6f" transform="translate(476.175293 -51.34375) scale(0.49)"/>
      <use xlink:href="#DejaVuSans-Oblique-74" transform="translate(506.154297 -51.34375) scale(0.49)"/>
      <use xlink:href="#DejaVuSans-5d" transform="translate(527.280762 -39.859375) scale(0.7)"/>
      <use xlink:href="#DejaVuSans-2c" transform="translate(554.590332 -39.859375) scale(0.7)"/>
      <use xlink:href="#DejaVuSans-5b" transform="translate(590.479004 -39.859375) scale(0.7)"/>
      <use xlink:href="#DejaVuSans-Oblique-42" transform="translate(617.788574 -39.859375) scale(0.7)"/>
      <use xlink:href="#DejaVuSans-Oblique-74" transform="translate(665.811035 -51.34375) scale(0.49)"/>
      <use xlink:href="#DejaVuSans-Oblique-6f" transform="translate(685.023438 -51.34375) scale(0.49)"/>
      <use xlink:href="#DejaVuSans-Oblique-74" transform="translate(715.002441 -51.34375) scale(0.49)"/>
      <use xlink:href="#DejaVuSans-5d" transform="translate(736.128906 -39.859375) scale(0.7)"/>
      <use xlink:href="#DejaVuSans-2c" transform="translate(763.438477 -39.859375) scale(0.7)"/>
      <use xlink:href="#DejaVuSans-5b" transform="translate(799.327148 -39.859375) scale(0.7)"/>
      <use xlink:href="#DejaVuSans-Oblique-4c" transform="translate(826.636719 -39.859375) scale(0.7)"/>
      <use xlink:href="#DejaVuSans-Oblique-74" transform="translate(865.635742 -51.34375) scale(0.49)"/>
      <use xlink:href="#DejaVuSans-Oblique-6f" transform="translate(884.848145 -51.34375) scale(0.49)"/>
      <use xlink:href="#DejaVuSans-Oblique-74" transform="translate(914.827148 -51.34375) scale(0.49)"/>
      <use xlink:href="#DejaVuSans-5d" transform="translate(935.953613 -39.859375) scale(0.7)"/>
      <use xlink:href="#DejaVuSans-7d" transform="translate(963.263184 -39.859375) scale(0.7)"/>
      <path d="M 205.229492 19.579688 
L 205.229492 25.829688 
L 1007.799316 25.829688 
L 1007.799316 19.579688 
L 205.229492 19.579688 
z
"/>
     </g>
    </g>
   </g>
   <g id="line2d_17">
    <path d="M 108.490632 205.501055 
L 111.545446 187.38025 
L 114.429926 171.575727 
L 117.130715 157.978928 
L 119.661387 146.342807 
L 122.027127 136.478381 
L 124.241222 128.175424 
L 126.298465 121.299631 
L 128.212168 115.652412 
L 130.020841 110.990958 
L 131.705211 107.242206 
L 133.301104 104.210186 
L 134.825593 101.771998 
L 136.299459 99.821041 
L 137.717471 98.298545 
L 139.134768 97.098961 
L 140.519264 96.211855 
L 141.933221 95.568379 
L 143.379681 95.155135 
L 144.89855 94.955884 
L 146.49832 94.971218 
L 148.271147 95.217379 
L 150.242996 95.725597 
L 152.445131 96.52733 
L 155.018023 97.704908 
L 158.147716 99.390433 
L 162.216946 101.85167 
L 168.30923 105.825431 
L 183.94511 116.104482 
L 191.163476 120.534176 
L 198.050133 124.50174 
L 204.870158 128.175424 
L 211.77095 131.640498 
L 218.824253 134.933856 
L 226.147762 138.10612 
L 233.709145 141.138366 
L 241.68742 144.093941 
L 250.087944 146.961382 
L 258.913556 149.731391 
L 268.164273 152.396706 
L 277.837009 154.95195 
L 288.242349 157.466779 
L 299.099396 159.86293 
L 310.763198 162.209623 
L 323.29833 164.502019 
L 336.774566 166.735817 
L 351.267282 168.90726 
L 366.857888 171.013138 
L 383.634297 173.050788 
L 394.418751 174.2516 
L 394.418751 174.2516 
" clip-path="url(#pfba8423ea8)" style="fill: none; stroke: #808080; stroke-width: 3; stroke-linecap: square"/>
   </g>
   <g id="line2d_18">
    <path d="M 145.573738 209.32 
L 145.573738 94.936168 
" clip-path="url(#pfba8423ea8)" style="fill: none; stroke-dasharray: 11.1,4.8; stroke-dashoffset: 0; stroke: #ff0000; stroke-opacity: 0.5; stroke-width: 3"/>
   </g>
   <g id="line2d_19">
    <path d="M 107.875 94.936168 
L 145.573738 94.936168 
" clip-path="url(#pfba8423ea8)" style="fill: none; stroke-dasharray: 11.1,4.8; stroke-dashoffset: 0; stroke: #ff0000; stroke-opacity: 0.5; stroke-width: 3"/>
   </g>
   <g id="line2d_20">
    <path d="M 108.029007 208.381497 
L 110.64491 193.163099 
L 113.152333 179.856465 
L 115.569977 168.199986 
L 117.913805 157.97322 
L 120.175429 149.072312 
L 122.382858 141.259815 
L 124.564206 134.343633 
L 126.69531 128.311615 
L 128.808549 122.989758 
L 130.896081 118.330202 
L 132.960168 114.261078 
L 135.013159 110.700604 
L 137.032205 107.631602 
L 139.089694 104.905751 
L 141.126695 102.569218 
L 143.179832 100.543698 
L 145.296831 98.767079 
L 147.416371 97.272909 
L 149.591145 96.004208 
L 151.886626 94.923355 
L 154.240528 94.058451 
L 156.725606 93.38012 
L 159.351531 92.891613 
L 162.212918 92.589484 
L 165.247215 92.492526 
L 168.562949 92.607357 
L 172.294861 92.963911 
L 176.503084 93.598004 
L 181.259419 94.544868 
L 186.905484 95.904119 
L 193.757817 97.790723 
L 203.034771 100.593127 
L 220.575393 106.179733 
L 239.664755 112.169361 
L 253.969728 116.420169 
L 267.477292 120.201874 
L 280.853565 123.716519 
L 294.495663 127.069943 
L 308.632908 130.311181 
L 323.190365 133.416769 
L 338.079329 136.368799 
L 353.673187 139.238544 
L 370.473546 142.099952 
L 388.027547 144.859956 
L 394.734734 145.85769 
L 394.734734 145.85769 
" clip-path="url(#pfba8423ea8)" style="fill: none; stroke: #ffa500; stroke-width: 3; stroke-linecap: square"/>
   </g>
   <g id="line2d_21">
    <path d="M 165.158 209.32 
L 165.158 92.492442 
" clip-path="url(#pfba8423ea8)" style="fill: none; stroke-dasharray: 11.1,4.8; stroke-dashoffset: 0; stroke: #ff0000; stroke-opacity: 0.5; stroke-width: 3"/>
   </g>
   <g id="line2d_22">
    <path d="M 107.875 92.492442 
L 165.158 92.492442 
" clip-path="url(#pfba8423ea8)" style="fill: none; stroke-dasharray: 11.1,4.8; stroke-dashoffset: 0; stroke: #ff0000; stroke-opacity: 0.5; stroke-width: 3"/>
   </g>
   <g id="line2d_23">
    <path d="M 107.96364 208.927516 
L 110.648036 197.561539 
L 113.276211 187.38025 
L 115.874176 178.191207 
L 118.435258 169.936657 
L 120.97487 162.490471 
L 123.498614 155.770314 
L 125.99897 149.731391 
L 128.504637 144.249298 
L 131.020346 139.271419 
L 133.533181 134.77978 
L 136.09221 130.654259 
L 138.669059 126.914249 
L 141.290651 123.493975 
L 143.99883 120.326677 
L 146.784626 117.415629 
L 149.637596 114.759257 
L 152.54566 112.351954 
L 155.577417 110.127958 
L 158.733746 108.085808 
L 162.014921 106.222375 
L 165.521079 104.486674 
L 169.27148 102.883951 
L 173.171888 101.457664 
L 177.344271 100.165244 
L 181.943938 98.979015 
L 186.883174 97.940957 
L 192.191847 97.05366 
L 198.067197 96.301063 
L 204.583797 95.698189 
L 211.827626 95.260222 
L 219.897928 95.002429 
L 228.90939 94.940063 
L 239.246071 95.094394 
L 251.414337 95.507997 
L 265.781186 96.229458 
L 283.150146 97.332534 
L 305.41259 98.979015 
L 337.260585 101.574722 
L 394.829063 106.473673 
L 394.829063 106.473673 
" clip-path="url(#pfba8423ea8)" style="fill: none; stroke: #00008b; stroke-width: 3; stroke-linecap: square"/>
   </g>
   <g id="line2d_24">
    <path d="M 227.088876 209.32 
L 227.088876 94.936168 
" clip-path="url(#pfba8423ea8)" style="fill: none; stroke-dasharray: 11.1,4.8; stroke-dashoffset: 0; stroke: #ff0000; stroke-opacity: 0.5; stroke-width: 3"/>
   </g>
   <g id="line2d_25">
    <path d="M 107.875 94.936168 
L 227.088876 94.936168 
" clip-path="url(#pfba8423ea8)" style="fill: none; stroke-dasharray: 11.1,4.8; stroke-dashoffset: 0; stroke: #ff0000; stroke-opacity: 0.5; stroke-width: 3"/>
   </g>
   <g id="patch_3">
    <path d="M 107.875 209.32 
L 107.875 51.84 
" style="fill: none; stroke: #000000; stroke-width: 0.8; stroke-linejoin: miter; stroke-linecap: square"/>
   </g>
   <g id="patch_4">
    <path d="M 394.29 209.32 
L 394.29 51.84 
" style="fill: none; stroke: #000000; stroke-width: 0.8; stroke-linejoin: miter; stroke-linecap: square"/>
   </g>
   <g id="patch_5">
    <path d="M 107.875 209.32 
L 394.29 209.32 
" style="fill: none; stroke: #000000; stroke-width: 0.8; stroke-linejoin: miter; stroke-linecap: square"/>
   </g>
   <g id="patch_6">
    <path d="M 107.875 51.84 
L 394.29 51.84 
" style="fill: none; stroke: #000000; stroke-width: 0.8; stroke-linejoin: miter; stroke-linecap: square"/>
   </g>
   <g id="text_11">
    <!-- K$_{A-L}$=1$\mu$M -->
    <g transform="translate(179.8025 45.84) scale(0.264 -0.264)">
     <defs>
      <path id="DejaVuSans-4b" d="M 628 4666 
L 1259 4666 
L 1259 2694 
L 3353 4666 
L 4166 4666 
L 1850 2491 
L 4331 0 
L 3500 0 
L 1259 2247 
L 1259 0 
L 628 0 
L 628 4666 
z
" transform="scale(0.015625)"/>
      <path id="DejaVuSans-2212" d="M 678 2272 
L 4684 2272 
L 4684 1741 
L 678 1741 
L 678 2272 
z
" transform="scale(0.015625)"/>
      <path id="DejaVuSans-4d" d="M 628 4666 
L 1569 4666 
L 2759 1491 
L 3956 4666 
L 4897 4666 
L 4897 0 
L 4281 0 
L 4281 4097 
L 3078 897 
L 2444 897 
L 1241 4097 
L 1241 0 
L 628 0 
L 628 4666 
z
" transform="scale(0.015625)"/>
     </defs>
     <use xlink:href="#DejaVuSans-4b" transform="translate(0 0.09375)"/>
     <use xlink:href="#DejaVuSans-Oblique-41" transform="translate(66.533203 -16.3125) scale(0.7)"/>
     <use xlink:href="#DejaVuSans-2212" transform="translate(128.056641 -16.3125) scale(0.7)"/>
     <use xlink:href="#DejaVuSans-Oblique-4c" transform="translate(200.34668 -16.3125) scale(0.7)"/>
     <use xlink:href="#DejaVuSans-3d" transform="translate(242.080078 0.09375)"/>
     <use xlink:href="#DejaVuSans-31" transform="translate(325.869141 0.09375)"/>
     <use xlink:href="#DejaVuSans-Oblique-3bc" transform="translate(389.492188 0.09375)"/>
     <use xlink:href="#DejaVuSans-4d" transform="translate(453.115234 0.09375)"/>
    </g>
   </g>
  </g>
  <g id="legend_1">
   <g id="patch_7">
    <path d="M 405.12 196.325938 
L 559.04 196.325938 
Q 562.24 196.325938 562.24 193.125938 
L 562.24 94.874062 
Q 562.24 91.674062 559.04 91.674062 
L 405.12 91.674062 
Q 401.92 91.674062 401.92 94.874062 
L 401.92 193.125938 
Q 401.92 196.325938 405.12 196.325938 
z
" style="fill: #ffffff; opacity: 0.8; stroke: #cccccc; stroke-linejoin: miter"/>
   </g>
   <g id="text_12">
    <!-- (K$_{B-L}$, $\alpha$) -->
    <g transform="translate(432.58 114.790625) scale(0.22 -0.22)">
     <defs>
      <path id="DejaVuSans-Oblique-3b1" d="M 2619 1628 
L 2622 2350 
Q 2625 3088 2069 3091 
Q 1653 3094 1394 2747 
Q 1069 2319 959 1747 
Q 825 1059 994 731 
Q 1169 397 1547 397 
Q 1966 397 2319 1063 
L 2619 1628 
z
M 2166 3578 
Q 3141 3594 3128 2584 
Q 3128 2584 3616 3500 
L 4128 3500 
L 3119 1603 
L 3109 919 
Q 3109 766 3194 638 
Q 3291 488 3391 488 
L 3669 488 
L 3575 0 
L 3228 0 
Q 2934 0 2722 263 
Q 2622 394 2619 669 
Q 2416 334 2066 50 
Q 1900 -81 1453 -78 
Q 722 -72 456 397 
Q 184 884 353 1747 
Q 534 2675 1009 3097 
Q 1544 3569 2166 3578 
z
" transform="scale(0.015625)"/>
     </defs>
     <use xlink:href="#DejaVuSans-28" transform="translate(0 0.125)"/>
     <use xlink:href="#DejaVuSans-4b" transform="translate(39.013672 0.125)"/>
     <use xlink:href="#DejaVuSans-Oblique-42" transform="translate(105.546875 -16.28125) scale(0.7)"/>
     <use xlink:href="#DejaVuSans-2212" transform="translate(167.207031 -16.28125) scale(0.7)"/>
     <use xlink:href="#DejaVuSans-Oblique-4c" transform="translate(239.49707 -16.28125) scale(0.7)"/>
     <use xlink:href="#DejaVuSans-2c" transform="translate(281.230469 0.125)"/>
     <use xlink:href="#DejaVuSans-20" transform="translate(313.017578 0.125)"/>
     <use xlink:href="#DejaVuSans-Oblique-3b1" transform="translate(344.804688 0.125)"/>
     <use xlink:href="#DejaVuSans-29" transform="translate(410.722656 0.125)"/>
    </g>
   </g>
   <g id="line2d_26">
    <path d="M 408.32 133.925938 
L 424.32 133.925938 
L 433 133.925938 
" style="fill: none; stroke: #808080; stroke-width: 3; stroke-linecap: square"/>
   </g>
   <g id="text_13">
    <!-- (0.1$\mu M$, 1) -->
    <g transform="translate(453.12 139.525937) scale(0.16 -0.16)">
     <use xlink:href="#DejaVuSans-28" transform="translate(0 0.125)"/>
     <use xlink:href="#DejaVuSans-30" transform="translate(39.013672 0.125)"/>
     <use xlink:href="#DejaVuSans-2e" transform="translate(102.636719 0.125)"/>
     <use xlink:href="#DejaVuSans-31" transform="translate(134.423828 0.125)"/>
     <use xlink:href="#DejaVuSans-Oblique-3bc" transform="translate(198.046875 0.125)"/>
     <use xlink:href="#DejaVuSans-Oblique-4d" transform="translate(261.669922 0.125)"/>
     <use xlink:href="#DejaVuSans-2c" transform="translate(347.949219 0.125)"/>
     <use xlink:href="#DejaVuSans-20" transform="translate(379.736328 0.125)"/>
     <use xlink:href="#DejaVuSans-31" transform="translate(411.523438 0.125)"/>
     <use xlink:href="#DejaVuSans-29" transform="translate(475.146484 0.125)"/>
    </g>
   </g>
   <g id="line2d_27">
    <path d="M 408.32 157.445938 
L 424.32 157.445938 
L 433 157.445938 
" style="fill: none; stroke: #ffa500; stroke-width: 3; stroke-linecap: square"/>
   </g>
   <g id="text_14">
    <!-- (1.0$\mu M$, 2.4) -->
    <g transform="translate(453.12 163.045938) scale(0.16 -0.16)">
     <use xlink:href="#DejaVuSans-28" transform="translate(0 0.125)"/>
     <use xlink:href="#DejaVuSans-31" transform="translate(39.013672 0.125)"/>
     <use xlink:href="#DejaVuSans-2e" transform="translate(102.636719 0.125)"/>
     <use xlink:href="#DejaVuSans-30" transform="translate(134.423828 0.125)"/>
     <use xlink:href="#DejaVuSans-Oblique-3bc" transform="translate(198.046875 0.125)"/>
     <use xlink:href="#DejaVuSans-Oblique-4d" transform="translate(261.669922 0.125)"/>
     <use xlink:href="#DejaVuSans-2c" transform="translate(347.949219 0.125)"/>
     <use xlink:href="#DejaVuSans-20" transform="translate(379.736328 0.125)"/>
     <use xlink:href="#DejaVuSans-32" transform="translate(411.523438 0.125)"/>
     <use xlink:href="#DejaVuSans-2e" transform="translate(475.146484 0.125)"/>
     <use xlink:href="#DejaVuSans-34" transform="translate(506.933594 0.125)"/>
     <use xlink:href="#DejaVuSans-29" transform="translate(570.556641 0.125)"/>
    </g>
   </g>
   <g id="line2d_28">
    <path d="M 408.32 180.965938 
L 424.32 180.965938 
L 433 180.965938 
" style="fill: none; stroke: #00008b; stroke-width: 3; stroke-linecap: square"/>
   </g>
   <g id="text_15">
    <!-- (10.0$\mu M$, 10) -->
    <g transform="translate(453.12 186.565938) scale(0.16 -0.16)">
     <use xlink:href="#DejaVuSans-28" transform="translate(0 0.125)"/>
     <use xlink:href="#DejaVuSans-31" transform="translate(39.013672 0.125)"/>
     <use xlink:href="#DejaVuSans-30" transform="translate(102.636719 0.125)"/>
     <use xlink:href="#DejaVuSans-2e" transform="translate(166.259766 0.125)"/>
     <use xlink:href="#DejaVuSans-30" transform="translate(198.046875 0.125)"/>
     <use xlink:href="#DejaVuSans-Oblique-3bc" transform="translate(261.669922 0.125)"/>
     <use xlink:href="#DejaVuSans-Oblique-4d" transform="translate(325.292969 0.125)"/>
     <use xlink:href="#DejaVuSans-2c" transform="translate(411.572266 0.125)"/>
     <use xlink:href="#DejaVuSans-20" transform="translate(443.359375 0.125)"/>
     <use xlink:href="#DejaVuSans-31" transform="translate(475.146484 0.125)"/>
     <use xlink:href="#DejaVuSans-30" transform="translate(538.769531 0.125)"/>
     <use xlink:href="#DejaVuSans-29" transform="translate(602.392578 0.125)"/>
    </g>
   </g>
  </g>
 </g>
 <defs>
  <clipPath id="pfba8423ea8">
   <rect x="107.875" y="51.84" width="286.415" height="157.48"/>
  </clipPath>
 </defs>
</svg>
