<?xml version="1.0" encoding="utf-8" standalone="no"?>
<!DOCTYPE svg PUBLIC "-//W3C//DTD SVG 1.1//EN"
  "http://www.w3.org/Graphics/SVG/1.1/DTD/svg11.dtd">
<svg xmlns:xlink="http://www.w3.org/1999/xlink" width="504pt" height="216pt" viewBox="0 0 504 216" xmlns="http://www.w3.org/2000/svg" version="1.1">
 <metadata>
  <rdf:RDF xmlns:dc="http://purl.org/dc/elements/1.1/" xmlns:cc="http://creativecommons.org/ns#" xmlns:rdf="http://www.w3.org/1999/02/22-rdf-syntax-ns#">
   <cc:Work>
    <dc:type rdf:resource="http://purl.org/dc/dcmitype/StillImage"/>
    <dc:date>2024-09-30T13:58:56.445929</dc:date>
    <dc:format>image/svg+xml</dc:format>
    <dc:creator>
     <cc:Agent>
      <dc:title>Matplotlib v3.7.2, https://matplotlib.org/</dc:title>
     </cc:Agent>
    </dc:creator>
   </cc:Work>
  </rdf:RDF>
 </metadata>
 <defs>
  <style type="text/css">*{stroke-linejoin: round; stroke-linecap: butt}</style>
 </defs>
 <g id="figure_1">
  <g id="patch_1">
   <path d="M 0 216 
L 504 216 
L 504 0 
L 0 0 
z
" style="fill: #ffffff"/>
  </g>
  <g id="axes_1">
   <g id="patch_2">
    <path d="M 60.9608 162.952 
L 242.155608 162.952 
L 242.155608 10.8 
L 60.9608 10.8 
z
" style="fill: #ffffff"/>
   </g>
   <g id="matplotlib.axis_1">
    <g id="xtick_1">
     <g id="line2d_1">
      <path d="M 89.704166 162.952 
L 89.704166 10.8 
" clip-path="url(#p961d63084b)" style="fill: none; stroke: #b0b0b0; stroke-width: 0.8; stroke-linecap: square"/>
     </g>
     <g id="line2d_2">
      <defs>
       <path id="mde71d73f3b" d="M 0 0 
L 0 3.5 
" style="stroke: #000000; stroke-width: 0.8"/>
      </defs>
      <g>
       <use xlink:href="#mde71d73f3b" x="89.704166" y="162.952" style="stroke: #000000; stroke-width: 0.8"/>
      </g>
     </g>
     <g id="text_1">
      <!-- −100 -->
      <g transform="translate(75.970572 177.550437) scale(0.1 -0.1)">
       <defs>
        <path id="DejaVuSans-2212" d="M 678 2272 
L 4684 2272 
L 4684 1741 
L 678 1741 
L 678 2272 
z
" transform="scale(0.015625)"/>
        <path id="DejaVuSans-31" d="M 794 531 
L 1825 531 
L 1825 4091 
L 703 3866 
L 703 4441 
L 1819 4666 
L 2450 4666 
L 2450 531 
L 3481 531 
L 3481 0 
L 794 0 
L 794 531 
z
" transform="scale(0.015625)"/>
        <path id="DejaVuSans-30" d="M 2034 4250 
Q 1547 4250 1301 3770 
Q 1056 3291 1056 2328 
Q 1056 1369 1301 889 
Q 1547 409 2034 409 
Q 2525 409 2770 889 
Q 3016 1369 3016 2328 
Q 3016 3291 2770 3770 
Q 2525 4250 2034 4250 
z
M 2034 4750 
Q 2819 4750 3233 4129 
Q 3647 3509 3647 2328 
Q 3647 1150 3233 529 
Q 2819 -91 2034 -91 
Q 1250 -91 836 529 
Q 422 1150 422 2328 
Q 422 3509 836 4129 
Q 1250 4750 2034 4750 
z
" transform="scale(0.015625)"/>
       </defs>
       <use xlink:href="#DejaVuSans-2212"/>
       <use xlink:href="#DejaVuSans-31" x="83.789062"/>
       <use xlink:href="#DejaVuSans-30" x="147.412109"/>
       <use xlink:href="#DejaVuSans-30" x="211.035156"/>
      </g>
     </g>
    </g>
    <g id="xtick_2">
     <g id="line2d_3">
      <path d="M 127.662357 162.952 
L 127.662357 10.8 
" clip-path="url(#p961d63084b)" style="fill: none; stroke: #b0b0b0; stroke-width: 0.8; stroke-linecap: square"/>
     </g>
     <g id="line2d_4">
      <g>
       <use xlink:href="#mde71d73f3b" x="127.662357" y="162.952" style="stroke: #000000; stroke-width: 0.8"/>
      </g>
     </g>
     <g id="text_2">
      <!-- −50 -->
      <g transform="translate(117.110014 177.550437) scale(0.1 -0.1)">
       <defs>
        <path id="DejaVuSans-35" d="M 691 4666 
L 3169 4666 
L 3169 4134 
L 1269 4134 
L 1269 2991 
Q 1406 3038 1543 3061 
Q 1681 3084 1819 3084 
Q 2600 3084 3056 2656 
Q 3513 2228 3513 1497 
Q 3513 744 3044 326 
Q 2575 -91 1722 -91 
Q 1428 -91 1123 -41 
Q 819 9 494 109 
L 494 744 
Q 775 591 1075 516 
Q 1375 441 1709 441 
Q 2250 441 2565 725 
Q 2881 1009 2881 1497 
Q 2881 1984 2565 2268 
Q 2250 2553 1709 2553 
Q 1456 2553 1204 2497 
Q 953 2441 691 2322 
L 691 4666 
z
" transform="scale(0.015625)"/>
       </defs>
       <use xlink:href="#DejaVuSans-2212"/>
       <use xlink:href="#DejaVuSans-35" x="83.789062"/>
       <use xlink:href="#DejaVuSans-30" x="147.412109"/>
      </g>
     </g>
    </g>
    <g id="xtick_3">
     <g id="line2d_5">
      <path d="M 165.620549 162.952 
L 165.620549 10.8 
" clip-path="url(#p961d63084b)" style="fill: none; stroke: #b0b0b0; stroke-width: 0.8; stroke-linecap: square"/>
     </g>
     <g id="line2d_6">
      <g>
       <use xlink:href="#mde71d73f3b" x="165.620549" y="162.952" style="stroke: #000000; stroke-width: 0.8"/>
      </g>
     </g>
     <g id="text_3">
      <!-- 0 -->
      <g transform="translate(162.439299 177.550437) scale(0.1 -0.1)">
       <use xlink:href="#DejaVuSans-30"/>
      </g>
     </g>
    </g>
    <g id="xtick_4">
     <g id="line2d_7">
      <path d="M 203.57874 162.952 
L 203.57874 10.8 
" clip-path="url(#p961d63084b)" style="fill: none; stroke: #b0b0b0; stroke-width: 0.8; stroke-linecap: square"/>
     </g>
     <g id="line2d_8">
      <g>
       <use xlink:href="#mde71d73f3b" x="203.57874" y="162.952" style="stroke: #000000; stroke-width: 0.8"/>
      </g>
     </g>
     <g id="text_4">
      <!-- 50 -->
      <g transform="translate(197.21624 177.550437) scale(0.1 -0.1)">
       <use xlink:href="#DejaVuSans-35"/>
       <use xlink:href="#DejaVuSans-30" x="63.623047"/>
      </g>
     </g>
    </g>
    <g id="xtick_5">
     <g id="line2d_9">
      <path d="M 241.536932 162.952 
L 241.536932 10.8 
" clip-path="url(#p961d63084b)" style="fill: none; stroke: #b0b0b0; stroke-width: 0.8; stroke-linecap: square"/>
     </g>
     <g id="line2d_10">
      <g>
       <use xlink:href="#mde71d73f3b" x="241.536932" y="162.952" style="stroke: #000000; stroke-width: 0.8"/>
      </g>
     </g>
     <g id="text_5">
      <!-- 100 -->
      <g transform="translate(231.993182 177.550437) scale(0.1 -0.1)">
       <use xlink:href="#DejaVuSans-31"/>
       <use xlink:href="#DejaVuSans-30" x="63.623047"/>
       <use xlink:href="#DejaVuSans-30" x="127.246094"/>
      </g>
     </g>
    </g>
    <g id="text_6">
     <!-- $\rm \Delta$G$^{induced}_{A-B}$  (kJ/mol) -->
     <g transform="translate(98.878204 194.670125) scale(0.12 -0.12)">
      <defs>
       <path id="DejaVuSans-394" d="M 2188 4044 
L 906 525 
L 3472 525 
L 2188 4044 
z
M 50 0 
L 1831 4666 
L 2547 4666 
L 4325 0 
L 50 0 
z
" transform="scale(0.015625)"/>
       <path id="DejaVuSans-47" d="M 3809 666 
L 3809 1919 
L 2778 1919 
L 2778 2438 
L 4434 2438 
L 4434 434 
Q 4069 175 3628 42 
Q 3188 -91 2688 -91 
Q 1594 -91 976 548 
Q 359 1188 359 2328 
Q 359 3472 976 4111 
Q 1594 4750 2688 4750 
Q 3144 4750 3555 4637 
Q 3966 4525 4313 4306 
L 4313 3634 
Q 3963 3931 3569 4081 
Q 3175 4231 2741 4231 
Q 1884 4231 1454 3753 
Q 1025 3275 1025 2328 
Q 1025 1384 1454 906 
Q 1884 428 2741 428 
Q 3075 428 3337 486 
Q 3600 544 3809 666 
z
" transform="scale(0.015625)"/>
       <path id="DejaVuSans-Oblique-69" d="M 1172 4863 
L 1747 4863 
L 1606 4134 
L 1031 4134 
L 1172 4863 
z
M 909 3500 
L 1484 3500 
L 800 0 
L 225 0 
L 909 3500 
z
" transform="scale(0.015625)"/>
       <path id="DejaVuSans-Oblique-6e" d="M 3566 2113 
L 3156 0 
L 2578 0 
L 2988 2091 
Q 3016 2238 3031 2350 
Q 3047 2463 3047 2528 
Q 3047 2791 2881 2937 
Q 2716 3084 2419 3084 
Q 1956 3084 1622 2776 
Q 1288 2469 1184 1941 
L 800 0 
L 225 0 
L 903 3500 
L 1478 3500 
L 1363 2950 
Q 1603 3253 1940 3418 
Q 2278 3584 2650 3584 
Q 3113 3584 3367 3334 
Q 3622 3084 3622 2631 
Q 3622 2519 3608 2391 
Q 3594 2263 3566 2113 
z
" transform="scale(0.015625)"/>
       <path id="DejaVuSans-Oblique-64" d="M 2675 525 
Q 2444 222 2128 65 
Q 1813 -91 1428 -91 
Q 903 -91 598 267 
Q 294 625 294 1247 
Q 294 1766 478 2236 
Q 663 2706 1013 3078 
Q 1244 3325 1534 3454 
Q 1825 3584 2144 3584 
Q 2481 3584 2739 3421 
Q 2997 3259 3138 2956 
L 3513 4863 
L 4091 4863 
L 3144 0 
L 2566 0 
L 2675 525 
z
M 891 1350 
Q 891 897 1095 644 
Q 1300 391 1663 391 
Q 1931 391 2161 520 
Q 2391 650 2566 903 
Q 2750 1166 2856 1509 
Q 2963 1853 2963 2188 
Q 2963 2622 2758 2865 
Q 2553 3109 2194 3109 
Q 1922 3109 1687 2981 
Q 1453 2853 1288 2613 
Q 1106 2353 998 2009 
Q 891 1666 891 1350 
z
" transform="scale(0.015625)"/>
       <path id="DejaVuSans-Oblique-75" d="M 428 1388 
L 838 3500 
L 1416 3500 
L 1006 1409 
Q 975 1256 961 1147 
Q 947 1038 947 966 
Q 947 700 1109 554 
Q 1272 409 1569 409 
Q 2031 409 2368 721 
Q 2706 1034 2809 1563 
L 3194 3500 
L 3769 3500 
L 3091 0 
L 2516 0 
L 2631 550 
Q 2388 244 2052 76 
Q 1716 -91 1338 -91 
Q 878 -91 622 161 
Q 366 413 366 863 
Q 366 956 381 1097 
Q 397 1238 428 1388 
z
" transform="scale(0.015625)"/>
       <path id="DejaVuSans-Oblique-63" d="M 3431 3366 
L 3316 2797 
Q 3109 2947 2876 3022 
Q 2644 3097 2394 3097 
Q 2119 3097 1870 3000 
Q 1622 2903 1453 2725 
Q 1184 2453 1037 2087 
Q 891 1722 891 1331 
Q 891 859 1127 628 
Q 1363 397 1844 397 
Q 2081 397 2348 469 
Q 2616 541 2906 684 
L 2797 116 
Q 2547 13 2283 -39 
Q 2019 -91 1741 -91 
Q 1044 -91 669 257 
Q 294 606 294 1253 
Q 294 1797 489 2255 
Q 684 2713 1069 3078 
Q 1331 3328 1684 3456 
Q 2038 3584 2456 3584 
Q 2700 3584 2940 3529 
Q 3181 3475 3431 3366 
z
" transform="scale(0.015625)"/>
       <path id="DejaVuSans-Oblique-65" d="M 3078 2063 
Q 3088 2113 3092 2166 
Q 3097 2219 3097 2272 
Q 3097 2653 2873 2875 
Q 2650 3097 2266 3097 
Q 1838 3097 1509 2826 
Q 1181 2556 1013 2059 
L 3078 2063 
z
M 3578 1613 
L 903 1613 
Q 884 1494 878 1425 
Q 872 1356 872 1306 
Q 872 872 1139 634 
Q 1406 397 1894 397 
Q 2269 397 2603 481 
Q 2938 566 3225 728 
L 3116 159 
Q 2806 34 2476 -28 
Q 2147 -91 1806 -91 
Q 1078 -91 686 257 
Q 294 606 294 1247 
Q 294 1794 489 2264 
Q 684 2734 1063 3103 
Q 1306 3334 1642 3459 
Q 1978 3584 2356 3584 
Q 2950 3584 3301 3228 
Q 3653 2872 3653 2272 
Q 3653 2128 3634 1964 
Q 3616 1800 3578 1613 
z
" transform="scale(0.015625)"/>
       <path id="DejaVuSans-Oblique-41" d="M 2356 4666 
L 3072 4666 
L 3938 0 
L 3278 0 
L 3084 1197 
L 984 1197 
L 325 0 
L -341 0 
L 2356 4666 
z
M 2584 4044 
L 1275 1722 
L 2988 1722 
L 2584 4044 
z
" transform="scale(0.015625)"/>
       <path id="DejaVuSans-Oblique-42" d="M 1081 4666 
L 2694 4666 
Q 3350 4666 3675 4422 
Q 4000 4178 4000 3688 
Q 4000 3238 3720 2911 
Q 3441 2584 2988 2516 
Q 3375 2428 3569 2181 
Q 3763 1934 3763 1522 
Q 3763 819 3242 409 
Q 2722 0 1819 0 
L 172 0 
L 1081 4666 
z
M 1234 2228 
L 903 519 
L 1919 519 
Q 2491 519 2800 781 
Q 3109 1044 3109 1522 
Q 3109 1891 2904 2059 
Q 2700 2228 2247 2228 
L 1234 2228 
z
M 1606 4147 
L 1331 2741 
L 2272 2741 
Q 2775 2741 3058 2959 
Q 3341 3178 3341 3566 
Q 3341 3869 3150 4008 
Q 2959 4147 2541 4147 
L 1606 4147 
z
" transform="scale(0.015625)"/>
       <path id="DejaVuSans-20" transform="scale(0.015625)"/>
       <path id="DejaVuSans-28" d="M 1984 4856 
Q 1566 4138 1362 3434 
Q 1159 2731 1159 2009 
Q 1159 1288 1364 580 
Q 1569 -128 1984 -844 
L 1484 -844 
Q 1016 -109 783 600 
Q 550 1309 550 2009 
Q 550 2706 781 3412 
Q 1013 4119 1484 4856 
L 1984 4856 
z
" transform="scale(0.015625)"/>
       <path id="DejaVuSans-6b" d="M 581 4863 
L 1159 4863 
L 1159 1991 
L 2875 3500 
L 3609 3500 
L 1753 1863 
L 3688 0 
L 2938 0 
L 1159 1709 
L 1159 0 
L 581 0 
L 581 4863 
z
" transform="scale(0.015625)"/>
       <path id="DejaVuSans-4a" d="M 628 4666 
L 1259 4666 
L 1259 325 
Q 1259 -519 939 -900 
Q 619 -1281 -91 -1281 
L -331 -1281 
L -331 -750 
L -134 -750 
Q 284 -750 456 -515 
Q 628 -281 628 325 
L 628 4666 
z
" transform="scale(0.015625)"/>
       <path id="DejaVuSans-2f" d="M 1625 4666 
L 2156 4666 
L 531 -594 
L 0 -594 
L 1625 4666 
z
" transform="scale(0.015625)"/>
       <path id="DejaVuSans-6d" d="M 3328 2828 
Q 3544 3216 3844 3400 
Q 4144 3584 4550 3584 
Q 5097 3584 5394 3201 
Q 5691 2819 5691 2113 
L 5691 0 
L 5113 0 
L 5113 2094 
Q 5113 2597 4934 2840 
Q 4756 3084 4391 3084 
Q 3944 3084 3684 2787 
Q 3425 2491 3425 1978 
L 3425 0 
L 2847 0 
L 2847 2094 
Q 2847 2600 2669 2842 
Q 2491 3084 2119 3084 
Q 1678 3084 1418 2786 
Q 1159 2488 1159 1978 
L 1159 0 
L 581 0 
L 581 3500 
L 1159 3500 
L 1159 2956 
Q 1356 3278 1631 3431 
Q 1906 3584 2284 3584 
Q 2666 3584 2933 3390 
Q 3200 3197 3328 2828 
z
" transform="scale(0.015625)"/>
       <path id="DejaVuSans-6f" d="M 1959 3097 
Q 1497 3097 1228 2736 
Q 959 2375 959 1747 
Q 959 1119 1226 758 
Q 1494 397 1959 397 
Q 2419 397 2687 759 
Q 2956 1122 2956 1747 
Q 2956 2369 2687 2733 
Q 2419 3097 1959 3097 
z
M 1959 3584 
Q 2709 3584 3137 3096 
Q 3566 2609 3566 1747 
Q 3566 888 3137 398 
Q 2709 -91 1959 -91 
Q 1206 -91 779 398 
Q 353 888 353 1747 
Q 353 2609 779 3096 
Q 1206 3584 1959 3584 
z
" transform="scale(0.015625)"/>
       <path id="DejaVuSans-6c" d="M 603 4863 
L 1178 4863 
L 1178 0 
L 603 0 
L 603 4863 
z
" transform="scale(0.015625)"/>
       <path id="DejaVuSans-29" d="M 513 4856 
L 1013 4856 
Q 1481 4119 1714 3412 
Q 1947 2706 1947 2009 
Q 1947 1309 1714 600 
Q 1481 -109 1013 -844 
L 513 -844 
Q 928 -128 1133 580 
Q 1338 1288 1338 2009 
Q 1338 2731 1133 3434 
Q 928 4138 513 4856 
z
" transform="scale(0.015625)"/>
      </defs>
      <use xlink:href="#DejaVuSans-394" transform="translate(0 0.529687)"/>
      <use xlink:href="#DejaVuSans-47" transform="translate(68.408203 0.529687)"/>
      <use xlink:href="#DejaVuSans-Oblique-69" transform="translate(146.855469 38.810938) scale(0.7)"/>
      <use xlink:href="#DejaVuSans-Oblique-6e" transform="translate(166.303711 38.810938) scale(0.7)"/>
      <use xlink:href="#DejaVuSans-Oblique-64" transform="translate(210.668945 38.810938) scale(0.7)"/>
      <use xlink:href="#DejaVuSans-Oblique-75" transform="translate(255.102539 38.810938) scale(0.7)"/>
      <use xlink:href="#DejaVuSans-Oblique-63" transform="translate(299.467773 38.810938) scale(0.7)"/>
      <use xlink:href="#DejaVuSans-Oblique-65" transform="translate(337.954102 38.810938) scale(0.7)"/>
      <use xlink:href="#DejaVuSans-Oblique-64" transform="translate(381.020508 38.810938) scale(0.7)"/>
      <use xlink:href="#DejaVuSans-Oblique-41" transform="translate(146.855469 -26.814063) scale(0.7)"/>
      <use xlink:href="#DejaVuSans-2212" transform="translate(208.378906 -26.814063) scale(0.7)"/>
      <use xlink:href="#DejaVuSans-Oblique-42" transform="translate(280.668945 -26.814063) scale(0.7)"/>
      <use xlink:href="#DejaVuSans-20" transform="translate(428.188477 0.529687)"/>
      <use xlink:href="#DejaVuSans-20" transform="translate(459.975586 0.529687)"/>
      <use xlink:href="#DejaVuSans-28" transform="translate(491.762695 0.529687)"/>
      <use xlink:href="#DejaVuSans-6b" transform="translate(530.776367 0.529687)"/>
      <use xlink:href="#DejaVuSans-4a" transform="translate(588.686523 0.529687)"/>
      <use xlink:href="#DejaVuSans-2f" transform="translate(618.178711 0.529687)"/>
      <use xlink:href="#DejaVuSans-6d" transform="translate(651.870117 0.529687)"/>
      <use xlink:href="#DejaVuSans-6f" transform="translate(749.282227 0.529687)"/>
      <use xlink:href="#DejaVuSans-6c" transform="translate(810.463867 0.529687)"/>
      <use xlink:href="#DejaVuSans-29" transform="translate(838.24707 0.529687)"/>
     </g>
    </g>
   </g>
   <g id="matplotlib.axis_2">
    <g id="ytick_1">
     <g id="line2d_11">
      <path d="M 60.9608 162.952 
L 242.155608 162.952 
" clip-path="url(#p961d63084b)" style="fill: none; stroke: #b0b0b0; stroke-width: 0.8; stroke-linecap: square"/>
     </g>
     <g id="line2d_12">
      <defs>
       <path id="m7aec07bd50" d="M 0 0 
L -3.5 0 
" style="stroke: #000000; stroke-width: 0.8"/>
      </defs>
      <g>
       <use xlink:href="#m7aec07bd50" x="60.9608" y="162.952" style="stroke: #000000; stroke-width: 0.8"/>
      </g>
     </g>
     <g id="text_7">
      <!-- −15 -->
      <g transform="translate(32.856113 166.751219) scale(0.1 -0.1)">
       <use xlink:href="#DejaVuSans-2212"/>
       <use xlink:href="#DejaVuSans-31" x="83.789062"/>
       <use xlink:href="#DejaVuSans-35" x="147.412109"/>
      </g>
     </g>
    </g>
    <g id="ytick_2">
     <g id="line2d_13">
      <path d="M 60.9608 127.567814 
L 242.155608 127.567814 
" clip-path="url(#p961d63084b)" style="fill: none; stroke: #b0b0b0; stroke-width: 0.8; stroke-linecap: square"/>
     </g>
     <g id="line2d_14">
      <g>
       <use xlink:href="#m7aec07bd50" x="60.9608" y="127.567814" style="stroke: #000000; stroke-width: 0.8"/>
      </g>
     </g>
     <g id="text_8">
      <!-- −10 -->
      <g transform="translate(32.856113 131.367033) scale(0.1 -0.1)">
       <use xlink:href="#DejaVuSans-2212"/>
       <use xlink:href="#DejaVuSans-31" x="83.789062"/>
       <use xlink:href="#DejaVuSans-30" x="147.412109"/>
      </g>
     </g>
    </g>
    <g id="ytick_3">
     <g id="line2d_15">
      <path d="M 60.9608 92.183628 
L 242.155608 92.183628 
" clip-path="url(#p961d63084b)" style="fill: none; stroke: #b0b0b0; stroke-width: 0.8; stroke-linecap: square"/>
     </g>
     <g id="line2d_16">
      <g>
       <use xlink:href="#m7aec07bd50" x="60.9608" y="92.183628" style="stroke: #000000; stroke-width: 0.8"/>
      </g>
     </g>
     <g id="text_9">
      <!-- −5 -->
      <g transform="translate(39.218613 95.982847) scale(0.1 -0.1)">
       <use xlink:href="#DejaVuSans-2212"/>
       <use xlink:href="#DejaVuSans-35" x="83.789062"/>
      </g>
     </g>
    </g>
    <g id="ytick_4">
     <g id="line2d_17">
      <path d="M 60.9608 56.799442 
L 242.155608 56.799442 
" clip-path="url(#p961d63084b)" style="fill: none; stroke: #b0b0b0; stroke-width: 0.8; stroke-linecap: square"/>
     </g>
     <g id="line2d_18">
      <g>
       <use xlink:href="#m7aec07bd50" x="60.9608" y="56.799442" style="stroke: #000000; stroke-width: 0.8"/>
      </g>
     </g>
     <g id="text_10">
      <!-- 0 -->
      <g transform="translate(47.5983 60.598661) scale(0.1 -0.1)">
       <use xlink:href="#DejaVuSans-30"/>
      </g>
     </g>
    </g>
    <g id="ytick_5">
     <g id="line2d_19">
      <path d="M 60.9608 21.415256 
L 242.155608 21.415256 
" clip-path="url(#p961d63084b)" style="fill: none; stroke: #b0b0b0; stroke-width: 0.8; stroke-linecap: square"/>
     </g>
     <g id="line2d_20">
      <g>
       <use xlink:href="#m7aec07bd50" x="60.9608" y="21.415256" style="stroke: #000000; stroke-width: 0.8"/>
      </g>
     </g>
     <g id="text_11">
      <!-- 5 -->
      <g transform="translate(47.5983 25.214475) scale(0.1 -0.1)">
       <use xlink:href="#DejaVuSans-35"/>
      </g>
     </g>
    </g>
    <g id="text_12">
     <!-- $ \Delta G_{\alpha_{exp}}$ (kJ/mol) -->
     <g transform="translate(24.176113 129.176) rotate(-90) scale(0.12 -0.12)">
      <defs>
       <path id="DejaVuSans-Oblique-47" d="M 3494 697 
L 3738 1919 
L 2700 1919 
L 2797 2438 
L 4453 2438 
L 4050 384 
Q 3634 156 3143 32 
Q 2653 -91 2156 -91 
Q 1278 -91 783 396 
Q 288 884 288 1753 
Q 288 2475 589 3126 
Q 891 3778 1422 4213 
Q 1756 4484 2153 4617 
Q 2550 4750 3034 4750 
Q 3472 4750 3873 4639 
Q 4275 4528 4641 4306 
L 4513 3634 
Q 4231 3928 3853 4083 
Q 3475 4238 3047 4238 
Q 2550 4238 2172 4048 
Q 1794 3859 1497 3463 
Q 1244 3125 1098 2667 
Q 953 2209 953 1734 
Q 953 1081 1287 751 
Q 1622 422 2284 422 
Q 2616 422 2925 492 
Q 3234 563 3494 697 
z
" transform="scale(0.015625)"/>
       <path id="DejaVuSans-Oblique-3b1" d="M 2619 1628 
L 2622 2350 
Q 2625 3088 2069 3091 
Q 1653 3094 1394 2747 
Q 1069 2319 959 1747 
Q 825 1059 994 731 
Q 1169 397 1547 397 
Q 1966 397 2319 1063 
L 2619 1628 
z
M 2166 3578 
Q 3141 3594 3128 2584 
Q 3128 2584 3616 3500 
L 4128 3500 
L 3119 1603 
L 3109 919 
Q 3109 766 3194 638 
Q 3291 488 3391 488 
L 3669 488 
L 3575 0 
L 3228 0 
Q 2934 0 2722 263 
Q 2622 394 2619 669 
Q 2416 334 2066 50 
Q 1900 -81 1453 -78 
Q 722 -72 456 397 
Q 184 884 353 1747 
Q 534 2675 1009 3097 
Q 1544 3569 2166 3578 
z
" transform="scale(0.015625)"/>
       <path id="DejaVuSans-Oblique-78" d="M 3841 3500 
L 2234 1784 
L 3219 0 
L 2559 0 
L 1819 1388 
L 531 0 
L -166 0 
L 1556 1844 
L 641 3500 
L 1300 3500 
L 1972 2234 
L 3144 3500 
L 3841 3500 
z
" transform="scale(0.015625)"/>
       <path id="DejaVuSans-Oblique-70" d="M 3175 2156 
Q 3175 2616 2975 2859 
Q 2775 3103 2400 3103 
Q 2144 3103 1911 2972 
Q 1678 2841 1497 2591 
Q 1319 2344 1212 1994 
Q 1106 1644 1106 1300 
Q 1106 863 1306 627 
Q 1506 391 1875 391 
Q 2147 391 2380 519 
Q 2613 647 2778 891 
Q 2956 1147 3065 1494 
Q 3175 1841 3175 2156 
z
M 1394 2969 
Q 1625 3272 1939 3428 
Q 2253 3584 2638 3584 
Q 3175 3584 3472 3232 
Q 3769 2881 3769 2247 
Q 3769 1728 3584 1258 
Q 3400 788 3053 416 
Q 2822 169 2531 39 
Q 2241 -91 1919 -91 
Q 1547 -91 1294 64 
Q 1041 219 916 525 
L 556 -1331 
L -19 -1331 
L 922 3500 
L 1497 3500 
L 1394 2969 
z
" transform="scale(0.015625)"/>
      </defs>
      <use xlink:href="#DejaVuSans-394" transform="translate(0 0.015625)"/>
      <use xlink:href="#DejaVuSans-Oblique-47" transform="translate(68.408203 0.015625)"/>
      <use xlink:href="#DejaVuSans-Oblique-3b1" transform="translate(145.898438 -16.390625) scale(0.7)"/>
      <use xlink:href="#DejaVuSans-Oblique-65" transform="translate(192.041016 -27.875) scale(0.49)"/>
      <use xlink:href="#DejaVuSans-Oblique-78" transform="translate(222.1875 -27.875) scale(0.49)"/>
      <use xlink:href="#DejaVuSans-Oblique-70" transform="translate(251.185547 -27.875) scale(0.49)"/>
      <use xlink:href="#DejaVuSans-20" transform="translate(286.9375 0.015625)"/>
      <use xlink:href="#DejaVuSans-28" transform="translate(318.724609 0.015625)"/>
      <use xlink:href="#DejaVuSans-6b" transform="translate(357.738281 0.015625)"/>
      <use xlink:href="#DejaVuSans-4a" transform="translate(415.648438 0.015625)"/>
      <use xlink:href="#DejaVuSans-2f" transform="translate(445.140625 0.015625)"/>
      <use xlink:href="#DejaVuSans-6d" transform="translate(478.832031 0.015625)"/>
      <use xlink:href="#DejaVuSans-6f" transform="translate(576.244141 0.015625)"/>
      <use xlink:href="#DejaVuSans-6c" transform="translate(637.425781 0.015625)"/>
      <use xlink:href="#DejaVuSans-29" transform="translate(665.208984 0.015625)"/>
     </g>
    </g>
   </g>
   <g id="line2d_21">
    <path d="M 208.366769 102.63104 
" clip-path="url(#p961d63084b)" style="fill: none; stroke: #a52a2a; stroke-width: 1.5; stroke-linecap: square"/>
    <defs>
     <path id="m12d59e3156" d="M 0 3 
C 0.795609 3 1.55874 2.683901 2.12132 2.12132 
C 2.683901 1.55874 3 0.795609 3 0 
C 3 -0.795609 2.683901 -1.55874 2.12132 -2.12132 
C 1.55874 -2.683901 0.795609 -3 0 -3 
C -0.795609 -3 -1.55874 -2.683901 -2.12132 -2.12132 
C -2.683901 -1.55874 -3 -0.795609 -3 0 
C -3 0.795609 -2.683901 1.55874 -2.12132 2.12132 
C -1.55874 2.683901 -0.795609 3 0 3 
z
" style="stroke: #a52a2a"/>
    </defs>
    <g clip-path="url(#p961d63084b)">
     <use xlink:href="#m12d59e3156" x="208.366769" y="102.63104" style="fill: #a52a2a; stroke: #a52a2a"/>
    </g>
   </g>
   <g id="LineCollection_1">
    <path d="M 182.814058 102.63104 
L 233.91948 102.63104 
" clip-path="url(#p961d63084b)" style="fill: none; stroke: #000000; stroke-width: 1.5"/>
   </g>
   <g id="line2d_22">
    <path d="M 127.925901 106.605253 
" clip-path="url(#p961d63084b)" style="fill: none; stroke: #a52a2a; stroke-width: 1.5; stroke-linecap: square"/>
    <g clip-path="url(#p961d63084b)">
     <use xlink:href="#m12d59e3156" x="127.925901" y="106.605253" style="fill: #a52a2a; stroke: #a52a2a"/>
    </g>
   </g>
   <g id="LineCollection_2">
    <path d="M 123.773102 106.605253 
L 132.078701 106.605253 
" clip-path="url(#p961d63084b)" style="fill: none; stroke: #000000; stroke-width: 1.5"/>
   </g>
   <g id="line2d_23">
    <path d="M 126.479593 108.825291 
" clip-path="url(#p961d63084b)" style="fill: none; stroke: #a52a2a; stroke-width: 1.5; stroke-linecap: square"/>
    <g clip-path="url(#p961d63084b)">
     <use xlink:href="#m12d59e3156" x="126.479593" y="108.825291" style="fill: #a52a2a; stroke: #a52a2a"/>
    </g>
   </g>
   <g id="LineCollection_3">
    <path d="M 120.221757 108.825291 
L 132.737429 108.825291 
" clip-path="url(#p961d63084b)" style="fill: none; stroke: #000000; stroke-width: 1.5"/>
   </g>
   <g id="line2d_24">
    <path d="M 199.466761 40.886537 
" clip-path="url(#p961d63084b)" style="fill: none; stroke: #a52a2a; stroke-width: 1.5; stroke-linecap: square"/>
    <g clip-path="url(#p961d63084b)">
     <use xlink:href="#m12d59e3156" x="199.466761" y="40.886537" style="fill: #a52a2a; stroke: #a52a2a"/>
    </g>
   </g>
   <g id="LineCollection_4">
    <path d="M 192.722678 40.886537 
L 206.210843 40.886537 
" clip-path="url(#p961d63084b)" style="fill: none; stroke: #000000; stroke-width: 1.5"/>
   </g>
   <g id="line2d_25">
    <path d="M 204.473109 47.928109 
" clip-path="url(#p961d63084b)" style="fill: none; stroke: #a52a2a; stroke-width: 1.5; stroke-linecap: square"/>
    <g clip-path="url(#p961d63084b)">
     <use xlink:href="#m12d59e3156" x="204.473109" y="47.928109" style="fill: #a52a2a; stroke: #a52a2a"/>
    </g>
   </g>
   <g id="LineCollection_5">
    <path d="M 198.037773 47.928109 
L 210.908445 47.928109 
" clip-path="url(#p961d63084b)" style="fill: none; stroke: #000000; stroke-width: 1.5"/>
   </g>
   <g id="line2d_26">
    <path d="M 176.066565 65.601168 
" clip-path="url(#p961d63084b)" style="fill: none; stroke: #a52a2a; stroke-width: 1.5; stroke-linecap: square"/>
    <g clip-path="url(#p961d63084b)">
     <use xlink:href="#m12d59e3156" x="176.066565" y="65.601168" style="fill: #a52a2a; stroke: #a52a2a"/>
    </g>
   </g>
   <g id="LineCollection_6">
    <path d="M 166.312444 65.601168 
L 185.820685 65.601168 
" clip-path="url(#p961d63084b)" style="fill: none; stroke: #000000; stroke-width: 1.5"/>
   </g>
   <g id="line2d_27">
    <path d="M 196.220063 74.304299 
" clip-path="url(#p961d63084b)" style="fill: none; stroke: #a52a2a; stroke-width: 1.5; stroke-linecap: square"/>
    <g clip-path="url(#p961d63084b)">
     <use xlink:href="#m12d59e3156" x="196.220063" y="74.304299" style="fill: #a52a2a; stroke: #a52a2a"/>
    </g>
   </g>
   <g id="LineCollection_7">
    <path d="M 179.058342 74.304299 
L 213.381784 74.304299 
" clip-path="url(#p961d63084b)" style="fill: none; stroke: #000000; stroke-width: 1.5"/>
   </g>
   <g id="line2d_28">
    <path d="M 84.175579 136.775844 
" clip-path="url(#p961d63084b)" style="fill: none; stroke: #a52a2a; stroke-width: 1.5; stroke-linecap: square"/>
    <g clip-path="url(#p961d63084b)">
     <use xlink:href="#m12d59e3156" x="84.175579" y="136.775844" style="fill: #a52a2a; stroke: #a52a2a"/>
    </g>
   </g>
   <g id="LineCollection_8">
    <path d="M 69.196928 136.775844 
L 99.154231 136.775844 
" clip-path="url(#p961d63084b)" style="fill: none; stroke: #000000; stroke-width: 1.5"/>
   </g>
   <g id="line2d_29">
    <path d="M 84.175579 132.052366 
L 208.366769 60.786964 
" clip-path="url(#p961d63084b)" style="fill: none; stroke-dasharray: 5.55,2.4; stroke-dashoffset: 0; stroke: #a52a2a; stroke-width: 1.5"/>
   </g>
   <g id="line2d_30">
    <path d="M 208.366769 102.63104 
" clip-path="url(#p961d63084b)" style="fill: none; stroke: #000000; stroke-width: 1.5; stroke-linecap: square"/>
   </g>
   <g id="line2d_31">
    <path d="M 127.925901 106.605253 
" clip-path="url(#p961d63084b)" style="fill: none; stroke: #000000; stroke-width: 1.5; stroke-linecap: square"/>
   </g>
   <g id="line2d_32">
    <path d="M 126.479593 108.825291 
" clip-path="url(#p961d63084b)" style="fill: none; stroke: #000000; stroke-width: 1.5; stroke-linecap: square"/>
   </g>
   <g id="line2d_33">
    <path d="M 199.466761 40.886537 
" clip-path="url(#p961d63084b)" style="fill: none; stroke: #000000; stroke-width: 1.5; stroke-linecap: square"/>
   </g>
   <g id="line2d_34">
    <path d="M 204.473109 47.928109 
" clip-path="url(#p961d63084b)" style="fill: none; stroke: #000000; stroke-width: 1.5; stroke-linecap: square"/>
   </g>
   <g id="line2d_35">
    <path d="M 176.066565 65.601168 
" clip-path="url(#p961d63084b)" style="fill: none; stroke: #000000; stroke-width: 1.5; stroke-linecap: square"/>
   </g>
   <g id="line2d_36">
    <path d="M 196.220063 74.304299 
" clip-path="url(#p961d63084b)" style="fill: none; stroke: #000000; stroke-width: 1.5; stroke-linecap: square"/>
   </g>
   <g id="line2d_37">
    <path d="M 84.175579 136.775844 
" clip-path="url(#p961d63084b)" style="fill: none; stroke: #000000; stroke-width: 1.5; stroke-linecap: square"/>
   </g>
   <g id="patch_3">
    <path d="M 60.9608 162.952 
L 60.9608 10.8 
" style="fill: none; stroke: #000000; stroke-width: 0.8; stroke-linejoin: miter; stroke-linecap: square"/>
   </g>
   <g id="patch_4">
    <path d="M 242.155608 162.952 
L 242.155608 10.8 
" style="fill: none; stroke: #000000; stroke-width: 0.8; stroke-linejoin: miter; stroke-linecap: square"/>
   </g>
   <g id="patch_5">
    <path d="M 60.9608 162.952 
L 242.155608 162.952 
" style="fill: none; stroke: #000000; stroke-width: 0.8; stroke-linejoin: miter; stroke-linecap: square"/>
   </g>
   <g id="patch_6">
    <path d="M 60.9608 10.8 
L 242.155608 10.8 
" style="fill: none; stroke: #000000; stroke-width: 0.8; stroke-linejoin: miter; stroke-linecap: square"/>
   </g>
   <g id="text_13">
    <!-- 6ygj -->
    <g transform="translate(208.366769 102.63104) scale(0.1 -0.1)">
     <defs>
      <path id="DejaVuSans-36" d="M 2113 2584 
Q 1688 2584 1439 2293 
Q 1191 2003 1191 1497 
Q 1191 994 1439 701 
Q 1688 409 2113 409 
Q 2538 409 2786 701 
Q 3034 994 3034 1497 
Q 3034 2003 2786 2293 
Q 2538 2584 2113 2584 
z
M 3366 4563 
L 3366 3988 
Q 3128 4100 2886 4159 
Q 2644 4219 2406 4219 
Q 1781 4219 1451 3797 
Q 1122 3375 1075 2522 
Q 1259 2794 1537 2939 
Q 1816 3084 2150 3084 
Q 2853 3084 3261 2657 
Q 3669 2231 3669 1497 
Q 3669 778 3244 343 
Q 2819 -91 2113 -91 
Q 1303 -91 875 529 
Q 447 1150 447 2328 
Q 447 3434 972 4092 
Q 1497 4750 2381 4750 
Q 2619 4750 2861 4703 
Q 3103 4656 3366 4563 
z
" transform="scale(0.015625)"/>
      <path id="DejaVuSans-79" d="M 2059 -325 
Q 1816 -950 1584 -1140 
Q 1353 -1331 966 -1331 
L 506 -1331 
L 506 -850 
L 844 -850 
Q 1081 -850 1212 -737 
Q 1344 -625 1503 -206 
L 1606 56 
L 191 3500 
L 800 3500 
L 1894 763 
L 2988 3500 
L 3597 3500 
L 2059 -325 
z
" transform="scale(0.015625)"/>
      <path id="DejaVuSans-67" d="M 2906 1791 
Q 2906 2416 2648 2759 
Q 2391 3103 1925 3103 
Q 1463 3103 1205 2759 
Q 947 2416 947 1791 
Q 947 1169 1205 825 
Q 1463 481 1925 481 
Q 2391 481 2648 825 
Q 2906 1169 2906 1791 
z
M 3481 434 
Q 3481 -459 3084 -895 
Q 2688 -1331 1869 -1331 
Q 1566 -1331 1297 -1286 
Q 1028 -1241 775 -1147 
L 775 -588 
Q 1028 -725 1275 -790 
Q 1522 -856 1778 -856 
Q 2344 -856 2625 -561 
Q 2906 -266 2906 331 
L 2906 616 
Q 2728 306 2450 153 
Q 2172 0 1784 0 
Q 1141 0 747 490 
Q 353 981 353 1791 
Q 353 2603 747 3093 
Q 1141 3584 1784 3584 
Q 2172 3584 2450 3431 
Q 2728 3278 2906 2969 
L 2906 3500 
L 3481 3500 
L 3481 434 
z
" transform="scale(0.015625)"/>
      <path id="DejaVuSans-6a" d="M 603 3500 
L 1178 3500 
L 1178 -63 
Q 1178 -731 923 -1031 
Q 669 -1331 103 -1331 
L -116 -1331 
L -116 -844 
L 38 -844 
Q 366 -844 484 -692 
Q 603 -541 603 -63 
L 603 3500 
z
M 603 4863 
L 1178 4863 
L 1178 4134 
L 603 4134 
L 603 4863 
z
" transform="scale(0.015625)"/>
     </defs>
     <use xlink:href="#DejaVuSans-36"/>
     <use xlink:href="#DejaVuSans-79" x="63.623047"/>
     <use xlink:href="#DejaVuSans-67" x="122.802734"/>
     <use xlink:href="#DejaVuSans-6a" x="186.279297"/>
    </g>
   </g>
   <g id="text_14">
    <!-- 5t35 -->
    <g transform="translate(127.925901 106.605253) scale(0.1 -0.1)">
     <defs>
      <path id="DejaVuSans-74" d="M 1172 4494 
L 1172 3500 
L 2356 3500 
L 2356 3053 
L 1172 3053 
L 1172 1153 
Q 1172 725 1289 603 
Q 1406 481 1766 481 
L 2356 481 
L 2356 0 
L 1766 0 
Q 1100 0 847 248 
Q 594 497 594 1153 
L 594 3053 
L 172 3053 
L 172 3500 
L 594 3500 
L 594 4494 
L 1172 4494 
z
" transform="scale(0.015625)"/>
      <path id="DejaVuSans-33" d="M 2597 2516 
Q 3050 2419 3304 2112 
Q 3559 1806 3559 1356 
Q 3559 666 3084 287 
Q 2609 -91 1734 -91 
Q 1441 -91 1130 -33 
Q 819 25 488 141 
L 488 750 
Q 750 597 1062 519 
Q 1375 441 1716 441 
Q 2309 441 2620 675 
Q 2931 909 2931 1356 
Q 2931 1769 2642 2001 
Q 2353 2234 1838 2234 
L 1294 2234 
L 1294 2753 
L 1863 2753 
Q 2328 2753 2575 2939 
Q 2822 3125 2822 3475 
Q 2822 3834 2567 4026 
Q 2313 4219 1838 4219 
Q 1578 4219 1281 4162 
Q 984 4106 628 3988 
L 628 4550 
Q 988 4650 1302 4700 
Q 1616 4750 1894 4750 
Q 2613 4750 3031 4423 
Q 3450 4097 3450 3541 
Q 3450 3153 3228 2886 
Q 3006 2619 2597 2516 
z
" transform="scale(0.015625)"/>
     </defs>
     <use xlink:href="#DejaVuSans-35"/>
     <use xlink:href="#DejaVuSans-74" x="63.623047"/>
     <use xlink:href="#DejaVuSans-33" x="102.832031"/>
     <use xlink:href="#DejaVuSans-35" x="166.455078"/>
    </g>
   </g>
   <g id="text_15">
    <!-- 6sis -->
    <g transform="translate(126.479593 108.825291) scale(0.1 -0.1)">
     <defs>
      <path id="DejaVuSans-73" d="M 2834 3397 
L 2834 2853 
Q 2591 2978 2328 3040 
Q 2066 3103 1784 3103 
Q 1356 3103 1142 2972 
Q 928 2841 928 2578 
Q 928 2378 1081 2264 
Q 1234 2150 1697 2047 
L 1894 2003 
Q 2506 1872 2764 1633 
Q 3022 1394 3022 966 
Q 3022 478 2636 193 
Q 2250 -91 1575 -91 
Q 1294 -91 989 -36 
Q 684 19 347 128 
L 347 722 
Q 666 556 975 473 
Q 1284 391 1588 391 
Q 1994 391 2212 530 
Q 2431 669 2431 922 
Q 2431 1156 2273 1281 
Q 2116 1406 1581 1522 
L 1381 1569 
Q 847 1681 609 1914 
Q 372 2147 372 2553 
Q 372 3047 722 3315 
Q 1072 3584 1716 3584 
Q 2034 3584 2315 3537 
Q 2597 3491 2834 3397 
z
" transform="scale(0.015625)"/>
      <path id="DejaVuSans-69" d="M 603 3500 
L 1178 3500 
L 1178 0 
L 603 0 
L 603 3500 
z
M 603 4863 
L 1178 4863 
L 1178 4134 
L 603 4134 
L 603 4863 
z
" transform="scale(0.015625)"/>
     </defs>
     <use xlink:href="#DejaVuSans-36"/>
     <use xlink:href="#DejaVuSans-73" x="63.623047"/>
     <use xlink:href="#DejaVuSans-69" x="115.722656"/>
     <use xlink:href="#DejaVuSans-73" x="143.505859"/>
    </g>
   </g>
   <g id="text_16">
    <!-- 6bn7 -->
    <g transform="translate(199.466761 40.886537) scale(0.1 -0.1)">
     <defs>
      <path id="DejaVuSans-62" d="M 3116 1747 
Q 3116 2381 2855 2742 
Q 2594 3103 2138 3103 
Q 1681 3103 1420 2742 
Q 1159 2381 1159 1747 
Q 1159 1113 1420 752 
Q 1681 391 2138 391 
Q 2594 391 2855 752 
Q 3116 1113 3116 1747 
z
M 1159 2969 
Q 1341 3281 1617 3432 
Q 1894 3584 2278 3584 
Q 2916 3584 3314 3078 
Q 3713 2572 3713 1747 
Q 3713 922 3314 415 
Q 2916 -91 2278 -91 
Q 1894 -91 1617 61 
Q 1341 213 1159 525 
L 1159 0 
L 581 0 
L 581 4863 
L 1159 4863 
L 1159 2969 
z
" transform="scale(0.015625)"/>
      <path id="DejaVuSans-6e" d="M 3513 2113 
L 3513 0 
L 2938 0 
L 2938 2094 
Q 2938 2591 2744 2837 
Q 2550 3084 2163 3084 
Q 1697 3084 1428 2787 
Q 1159 2491 1159 1978 
L 1159 0 
L 581 0 
L 581 3500 
L 1159 3500 
L 1159 2956 
Q 1366 3272 1645 3428 
Q 1925 3584 2291 3584 
Q 2894 3584 3203 3211 
Q 3513 2838 3513 2113 
z
" transform="scale(0.015625)"/>
      <path id="DejaVuSans-37" d="M 525 4666 
L 3525 4666 
L 3525 4397 
L 1831 0 
L 1172 0 
L 2766 4134 
L 525 4134 
L 525 4666 
z
" transform="scale(0.015625)"/>
     </defs>
     <use xlink:href="#DejaVuSans-36"/>
     <use xlink:href="#DejaVuSans-62" x="63.623047"/>
     <use xlink:href="#DejaVuSans-6e" x="127.099609"/>
     <use xlink:href="#DejaVuSans-37" x="190.478516"/>
    </g>
   </g>
   <g id="text_17">
    <!-- 6boy -->
    <g transform="translate(204.473109 47.928109) scale(0.1 -0.1)">
     <use xlink:href="#DejaVuSans-36"/>
     <use xlink:href="#DejaVuSans-62" x="63.623047"/>
     <use xlink:href="#DejaVuSans-6f" x="127.099609"/>
     <use xlink:href="#DejaVuSans-79" x="188.28125"/>
    </g>
   </g>
   <g id="text_18">
    <!-- 7jto -->
    <g transform="translate(176.066565 65.601168) scale(0.1 -0.1)">
     <use xlink:href="#DejaVuSans-37"/>
     <use xlink:href="#DejaVuSans-6a" x="63.623047"/>
     <use xlink:href="#DejaVuSans-74" x="91.40625"/>
     <use xlink:href="#DejaVuSans-6f" x="130.615234"/>
    </g>
   </g>
   <g id="text_19">
    <!-- 7jtp -->
    <g transform="translate(196.220063 74.304299) scale(0.1 -0.1)">
     <defs>
      <path id="DejaVuSans-70" d="M 1159 525 
L 1159 -1331 
L 581 -1331 
L 581 3500 
L 1159 3500 
L 1159 2969 
Q 1341 3281 1617 3432 
Q 1894 3584 2278 3584 
Q 2916 3584 3314 3078 
Q 3713 2572 3713 1747 
Q 3713 922 3314 415 
Q 2916 -91 2278 -91 
Q 1894 -91 1617 61 
Q 1341 213 1159 525 
z
M 3116 1747 
Q 3116 2381 2855 2742 
Q 2594 3103 2138 3103 
Q 1681 3103 1420 2742 
Q 1159 2381 1159 1747 
Q 1159 1113 1420 752 
Q 1681 391 2138 391 
Q 2594 391 2855 752 
Q 3116 1113 3116 1747 
z
" transform="scale(0.015625)"/>
     </defs>
     <use xlink:href="#DejaVuSans-37"/>
     <use xlink:href="#DejaVuSans-6a" x="63.623047"/>
     <use xlink:href="#DejaVuSans-74" x="91.40625"/>
     <use xlink:href="#DejaVuSans-70" x="130.615234"/>
    </g>
   </g>
   <g id="text_20">
    <!-- 6nv2 -->
    <g transform="translate(84.175579 136.775844) scale(0.1 -0.1)">
     <defs>
      <path id="DejaVuSans-76" d="M 191 3500 
L 800 3500 
L 1894 563 
L 2988 3500 
L 3597 3500 
L 2284 0 
L 1503 0 
L 191 3500 
z
" transform="scale(0.015625)"/>
      <path id="DejaVuSans-32" d="M 1228 531 
L 3431 531 
L 3431 0 
L 469 0 
L 469 531 
Q 828 903 1448 1529 
Q 2069 2156 2228 2338 
Q 2531 2678 2651 2914 
Q 2772 3150 2772 3378 
Q 2772 3750 2511 3984 
Q 2250 4219 1831 4219 
Q 1534 4219 1204 4116 
Q 875 4013 500 3803 
L 500 4441 
Q 881 4594 1212 4672 
Q 1544 4750 1819 4750 
Q 2544 4750 2975 4387 
Q 3406 4025 3406 3419 
Q 3406 3131 3298 2873 
Q 3191 2616 2906 2266 
Q 2828 2175 2409 1742 
Q 1991 1309 1228 531 
z
" transform="scale(0.015625)"/>
     </defs>
     <use xlink:href="#DejaVuSans-36"/>
     <use xlink:href="#DejaVuSans-6e" x="63.623047"/>
     <use xlink:href="#DejaVuSans-76" x="127.001953"/>
     <use xlink:href="#DejaVuSans-32" x="186.181641"/>
    </g>
   </g>
   <g id="legend_1">
    <g id="patch_7">
     <path d="M 67.9608 55.87375 
L 193.4608 55.87375 
Q 195.4608 55.87375 195.4608 53.87375 
L 195.4608 17.8 
Q 195.4608 15.8 193.4608 15.8 
L 67.9608 15.8 
Q 65.9608 15.8 65.9608 17.8 
L 65.9608 53.87375 
Q 65.9608 55.87375 67.9608 55.87375 
z
" style="fill: #ffffff; opacity: 0.8; stroke: #cccccc; stroke-linejoin: miter"/>
    </g>
    <g id="line2d_38">
     <path d="M 69.9608 36.136094 
L 79.9608 36.136094 
L 89.9608 36.136094 
" style="fill: none; stroke-dasharray: 5.55,2.4; stroke-dashoffset: 0; stroke: #a52a2a; stroke-width: 1.5"/>
    </g>
    <g id="text_21">
     <!--    Pearson R  : 0.8 -->
     <g transform="translate(97.9608 27.398438) scale(0.1 -0.1)">
      <defs>
       <path id="DejaVuSans-50" d="M 1259 4147 
L 1259 2394 
L 2053 2394 
Q 2494 2394 2734 2622 
Q 2975 2850 2975 3272 
Q 2975 3691 2734 3919 
Q 2494 4147 2053 4147 
L 1259 4147 
z
M 628 4666 
L 2053 4666 
Q 2838 4666 3239 4311 
Q 3641 3956 3641 3272 
Q 3641 2581 3239 2228 
Q 2838 1875 2053 1875 
L 1259 1875 
L 1259 0 
L 628 0 
L 628 4666 
z
" transform="scale(0.015625)"/>
       <path id="DejaVuSans-65" d="M 3597 1894 
L 3597 1613 
L 953 1613 
Q 991 1019 1311 708 
Q 1631 397 2203 397 
Q 2534 397 2845 478 
Q 3156 559 3463 722 
L 3463 178 
Q 3153 47 2828 -22 
Q 2503 -91 2169 -91 
Q 1331 -91 842 396 
Q 353 884 353 1716 
Q 353 2575 817 3079 
Q 1281 3584 2069 3584 
Q 2775 3584 3186 3129 
Q 3597 2675 3597 1894 
z
M 3022 2063 
Q 3016 2534 2758 2815 
Q 2500 3097 2075 3097 
Q 1594 3097 1305 2825 
Q 1016 2553 972 2059 
L 3022 2063 
z
" transform="scale(0.015625)"/>
       <path id="DejaVuSans-61" d="M 2194 1759 
Q 1497 1759 1228 1600 
Q 959 1441 959 1056 
Q 959 750 1161 570 
Q 1363 391 1709 391 
Q 2188 391 2477 730 
Q 2766 1069 2766 1631 
L 2766 1759 
L 2194 1759 
z
M 3341 1997 
L 3341 0 
L 2766 0 
L 2766 531 
Q 2569 213 2275 61 
Q 1981 -91 1556 -91 
Q 1019 -91 701 211 
Q 384 513 384 1019 
Q 384 1609 779 1909 
Q 1175 2209 1959 2209 
L 2766 2209 
L 2766 2266 
Q 2766 2663 2505 2880 
Q 2244 3097 1772 3097 
Q 1472 3097 1187 3025 
Q 903 2953 641 2809 
L 641 3341 
Q 956 3463 1253 3523 
Q 1550 3584 1831 3584 
Q 2591 3584 2966 3190 
Q 3341 2797 3341 1997 
z
" transform="scale(0.015625)"/>
       <path id="DejaVuSans-72" d="M 2631 2963 
Q 2534 3019 2420 3045 
Q 2306 3072 2169 3072 
Q 1681 3072 1420 2755 
Q 1159 2438 1159 1844 
L 1159 0 
L 581 0 
L 581 3500 
L 1159 3500 
L 1159 2956 
Q 1341 3275 1631 3429 
Q 1922 3584 2338 3584 
Q 2397 3584 2469 3576 
Q 2541 3569 2628 3553 
L 2631 2963 
z
" transform="scale(0.015625)"/>
       <path id="DejaVuSans-52" d="M 2841 2188 
Q 3044 2119 3236 1894 
Q 3428 1669 3622 1275 
L 4263 0 
L 3584 0 
L 2988 1197 
Q 2756 1666 2539 1819 
Q 2322 1972 1947 1972 
L 1259 1972 
L 1259 0 
L 628 0 
L 628 4666 
L 2053 4666 
Q 2853 4666 3247 4331 
Q 3641 3997 3641 3322 
Q 3641 2881 3436 2590 
Q 3231 2300 2841 2188 
z
M 1259 4147 
L 1259 2491 
L 2053 2491 
Q 2509 2491 2742 2702 
Q 2975 2913 2975 3322 
Q 2975 3731 2742 3939 
Q 2509 4147 2053 4147 
L 1259 4147 
z
" transform="scale(0.015625)"/>
       <path id="DejaVuSans-3a" d="M 750 794 
L 1409 794 
L 1409 0 
L 750 0 
L 750 794 
z
M 750 3309 
L 1409 3309 
L 1409 2516 
L 750 2516 
L 750 3309 
z
" transform="scale(0.015625)"/>
       <path id="DejaVuSans-2e" d="M 684 794 
L 1344 794 
L 1344 0 
L 684 0 
L 684 794 
z
" transform="scale(0.015625)"/>
       <path id="DejaVuSans-38" d="M 2034 2216 
Q 1584 2216 1326 1975 
Q 1069 1734 1069 1313 
Q 1069 891 1326 650 
Q 1584 409 2034 409 
Q 2484 409 2743 651 
Q 3003 894 3003 1313 
Q 3003 1734 2745 1975 
Q 2488 2216 2034 2216 
z
M 1403 2484 
Q 997 2584 770 2862 
Q 544 3141 544 3541 
Q 544 4100 942 4425 
Q 1341 4750 2034 4750 
Q 2731 4750 3128 4425 
Q 3525 4100 3525 3541 
Q 3525 3141 3298 2862 
Q 3072 2584 2669 2484 
Q 3125 2378 3379 2068 
Q 3634 1759 3634 1313 
Q 3634 634 3220 271 
Q 2806 -91 2034 -91 
Q 1263 -91 848 271 
Q 434 634 434 1313 
Q 434 1759 690 2068 
Q 947 2378 1403 2484 
z
M 1172 3481 
Q 1172 3119 1398 2916 
Q 1625 2713 2034 2713 
Q 2441 2713 2670 2916 
Q 2900 3119 2900 3481 
Q 2900 3844 2670 4047 
Q 2441 4250 2034 4250 
Q 1625 4250 1398 4047 
Q 1172 3844 1172 3481 
z
" transform="scale(0.015625)"/>
      </defs>
      <use xlink:href="#DejaVuSans-20"/>
      <use xlink:href="#DejaVuSans-20" x="31.787109"/>
      <use xlink:href="#DejaVuSans-20" x="63.574219"/>
      <use xlink:href="#DejaVuSans-50" x="95.361328"/>
      <use xlink:href="#DejaVuSans-65" x="152.039062"/>
      <use xlink:href="#DejaVuSans-61" x="213.5625"/>
      <use xlink:href="#DejaVuSans-72" x="274.841797"/>
      <use xlink:href="#DejaVuSans-73" x="315.955078"/>
      <use xlink:href="#DejaVuSans-6f" x="368.054688"/>
      <use xlink:href="#DejaVuSans-6e" x="429.236328"/>
      <use xlink:href="#DejaVuSans-20" x="492.615234"/>
      <use xlink:href="#DejaVuSans-52" x="524.402344"/>
      <use xlink:href="#DejaVuSans-20" x="593.884766"/>
      <use xlink:href="#DejaVuSans-20" x="625.671875"/>
      <use xlink:href="#DejaVuSans-3a" x="657.458984"/>
      <use xlink:href="#DejaVuSans-20" x="691.150391"/>
      <use xlink:href="#DejaVuSans-30" x="722.9375"/>
      <use xlink:href="#DejaVuSans-2e" x="786.560547"/>
      <use xlink:href="#DejaVuSans-38" x="818.347656"/>
     </g>
     <!-- Spearman R : 0.71 -->
     <g transform="translate(97.9608 38.59625) scale(0.1 -0.1)">
      <defs>
       <path id="DejaVuSans-53" d="M 3425 4513 
L 3425 3897 
Q 3066 4069 2747 4153 
Q 2428 4238 2131 4238 
Q 1616 4238 1336 4038 
Q 1056 3838 1056 3469 
Q 1056 3159 1242 3001 
Q 1428 2844 1947 2747 
L 2328 2669 
Q 3034 2534 3370 2195 
Q 3706 1856 3706 1288 
Q 3706 609 3251 259 
Q 2797 -91 1919 -91 
Q 1588 -91 1214 -16 
Q 841 59 441 206 
L 441 856 
Q 825 641 1194 531 
Q 1563 422 1919 422 
Q 2459 422 2753 634 
Q 3047 847 3047 1241 
Q 3047 1584 2836 1778 
Q 2625 1972 2144 2069 
L 1759 2144 
Q 1053 2284 737 2584 
Q 422 2884 422 3419 
Q 422 4038 858 4394 
Q 1294 4750 2059 4750 
Q 2388 4750 2728 4690 
Q 3069 4631 3425 4513 
z
" transform="scale(0.015625)"/>
      </defs>
      <use xlink:href="#DejaVuSans-53"/>
      <use xlink:href="#DejaVuSans-70" x="63.476562"/>
      <use xlink:href="#DejaVuSans-65" x="126.953125"/>
      <use xlink:href="#DejaVuSans-61" x="188.476562"/>
      <use xlink:href="#DejaVuSans-72" x="249.755859"/>
      <use xlink:href="#DejaVuSans-6d" x="289.119141"/>
      <use xlink:href="#DejaVuSans-61" x="386.53125"/>
      <use xlink:href="#DejaVuSans-6e" x="447.810547"/>
      <use xlink:href="#DejaVuSans-20" x="511.189453"/>
      <use xlink:href="#DejaVuSans-52" x="542.976562"/>
      <use xlink:href="#DejaVuSans-20" x="612.458984"/>
      <use xlink:href="#DejaVuSans-3a" x="644.246094"/>
      <use xlink:href="#DejaVuSans-20" x="677.9375"/>
      <use xlink:href="#DejaVuSans-30" x="709.724609"/>
      <use xlink:href="#DejaVuSans-2e" x="773.347656"/>
      <use xlink:href="#DejaVuSans-37" x="805.134766"/>
      <use xlink:href="#DejaVuSans-31" x="868.757812"/>
     </g>
     <!--    Kendall $\tau$   : 0.57 -->
     <g transform="translate(97.9608 49.794063) scale(0.1 -0.1)">
      <defs>
       <path id="DejaVuSans-4b" d="M 628 4666 
L 1259 4666 
L 1259 2694 
L 3353 4666 
L 4166 4666 
L 1850 2491 
L 4331 0 
L 3500 0 
L 1259 2247 
L 1259 0 
L 628 0 
L 628 4666 
z
" transform="scale(0.015625)"/>
       <path id="DejaVuSans-64" d="M 2906 2969 
L 2906 4863 
L 3481 4863 
L 3481 0 
L 2906 0 
L 2906 525 
Q 2725 213 2448 61 
Q 2172 -91 1784 -91 
Q 1150 -91 751 415 
Q 353 922 353 1747 
Q 353 2572 751 3078 
Q 1150 3584 1784 3584 
Q 2172 3584 2448 3432 
Q 2725 3281 2906 2969 
z
M 947 1747 
Q 947 1113 1208 752 
Q 1469 391 1925 391 
Q 2381 391 2643 752 
Q 2906 1113 2906 1747 
Q 2906 2381 2643 2742 
Q 2381 3103 1925 3103 
Q 1469 3103 1208 2742 
Q 947 2381 947 1747 
z
" transform="scale(0.015625)"/>
       <path id="DejaVuSans-Oblique-3c4" d="M 2103 638 
Q 2188 488 2525 488 
L 2800 488 
L 2706 0 
L 2363 0 
Q 1800 0 1600 300 
Q 1403 606 1534 1269 
L 1856 2925 
L 541 2925 
L 653 3500 
L 3881 3500 
L 3769 2925 
L 2444 2925 
L 2113 1234 
Q 2025 781 2103 638 
z
" transform="scale(0.015625)"/>
      </defs>
      <use xlink:href="#DejaVuSans-20" transform="translate(0 0.015625)"/>
      <use xlink:href="#DejaVuSans-20" transform="translate(31.787109 0.015625)"/>
      <use xlink:href="#DejaVuSans-20" transform="translate(63.574219 0.015625)"/>
      <use xlink:href="#DejaVuSans-4b" transform="translate(95.361328 0.015625)"/>
      <use xlink:href="#DejaVuSans-65" transform="translate(160.9375 0.015625)"/>
      <use xlink:href="#DejaVuSans-6e" transform="translate(222.460938 0.015625)"/>
      <use xlink:href="#DejaVuSans-64" transform="translate(285.839844 0.015625)"/>
      <use xlink:href="#DejaVuSans-61" transform="translate(349.316406 0.015625)"/>
      <use xlink:href="#DejaVuSans-6c" transform="translate(410.595703 0.015625)"/>
      <use xlink:href="#DejaVuSans-6c" transform="translate(438.378906 0.015625)"/>
      <use xlink:href="#DejaVuSans-20" transform="translate(466.162109 0.015625)"/>
      <use xlink:href="#DejaVuSans-Oblique-3c4" transform="translate(497.949219 0.015625)"/>
      <use xlink:href="#DejaVuSans-20" transform="translate(558.154297 0.015625)"/>
      <use xlink:href="#DejaVuSans-20" transform="translate(589.941406 0.015625)"/>
      <use xlink:href="#DejaVuSans-20" transform="translate(621.728516 0.015625)"/>
      <use xlink:href="#DejaVuSans-3a" transform="translate(653.515625 0.015625)"/>
      <use xlink:href="#DejaVuSans-20" transform="translate(687.207031 0.015625)"/>
      <use xlink:href="#DejaVuSans-30" transform="translate(718.994141 0.015625)"/>
      <use xlink:href="#DejaVuSans-2e" transform="translate(782.617188 0.015625)"/>
      <use xlink:href="#DejaVuSans-35" transform="translate(814.404297 0.015625)"/>
      <use xlink:href="#DejaVuSans-37" transform="translate(870.777344 0.015625)"/>
     </g>
    </g>
   </g>
  </g>
  <g id="axes_2">
   <g id="patch_8">
    <path d="M 312.005192 162.952 
L 493.2 162.952 
L 493.2 10.8 
L 312.005192 10.8 
z
" style="fill: #ffffff"/>
   </g>
   <g id="matplotlib.axis_3">
    <g id="xtick_6">
     <g id="line2d_39">
      <path d="M 341.603981 162.952 
L 341.603981 10.8 
" clip-path="url(#pc7973b4aae)" style="fill: none; stroke: #b0b0b0; stroke-width: 0.8; stroke-linecap: square"/>
     </g>
     <g id="line2d_40">
      <g>
       <use xlink:href="#mde71d73f3b" x="341.603981" y="162.952" style="stroke: #000000; stroke-width: 0.8"/>
      </g>
     </g>
     <g id="text_22">
      <!-- −100 -->
      <g transform="translate(327.870387 177.550437) scale(0.1 -0.1)">
       <use xlink:href="#DejaVuSans-2212"/>
       <use xlink:href="#DejaVuSans-31" x="83.789062"/>
       <use xlink:href="#DejaVuSans-30" x="147.412109"/>
       <use xlink:href="#DejaVuSans-30" x="211.035156"/>
      </g>
     </g>
    </g>
    <g id="xtick_7">
     <g id="line2d_41">
      <path d="M 383.365568 162.952 
L 383.365568 10.8 
" clip-path="url(#pc7973b4aae)" style="fill: none; stroke: #b0b0b0; stroke-width: 0.8; stroke-linecap: square"/>
     </g>
     <g id="line2d_42">
      <g>
       <use xlink:href="#mde71d73f3b" x="383.365568" y="162.952" style="stroke: #000000; stroke-width: 0.8"/>
      </g>
     </g>
     <g id="text_23">
      <!-- −50 -->
      <g transform="translate(372.813224 177.550437) scale(0.1 -0.1)">
       <use xlink:href="#DejaVuSans-2212"/>
       <use xlink:href="#DejaVuSans-35" x="83.789062"/>
       <use xlink:href="#DejaVuSans-30" x="147.412109"/>
      </g>
     </g>
    </g>
    <g id="xtick_8">
     <g id="line2d_43">
      <path d="M 425.127155 162.952 
L 425.127155 10.8 
" clip-path="url(#pc7973b4aae)" style="fill: none; stroke: #b0b0b0; stroke-width: 0.8; stroke-linecap: square"/>
     </g>
     <g id="line2d_44">
      <g>
       <use xlink:href="#mde71d73f3b" x="425.127155" y="162.952" style="stroke: #000000; stroke-width: 0.8"/>
      </g>
     </g>
     <g id="text_24">
      <!-- 0 -->
      <g transform="translate(421.945905 177.550437) scale(0.1 -0.1)">
       <use xlink:href="#DejaVuSans-30"/>
      </g>
     </g>
    </g>
    <g id="xtick_9">
     <g id="line2d_45">
      <path d="M 466.888742 162.952 
L 466.888742 10.8 
" clip-path="url(#pc7973b4aae)" style="fill: none; stroke: #b0b0b0; stroke-width: 0.8; stroke-linecap: square"/>
     </g>
     <g id="line2d_46">
      <g>
       <use xlink:href="#mde71d73f3b" x="466.888742" y="162.952" style="stroke: #000000; stroke-width: 0.8"/>
      </g>
     </g>
     <g id="text_25">
      <!-- 50 -->
      <g transform="translate(460.526242 177.550437) scale(0.1 -0.1)">
       <use xlink:href="#DejaVuSans-35"/>
       <use xlink:href="#DejaVuSans-30" x="63.623047"/>
      </g>
     </g>
    </g>
    <g id="text_26">
     <!-- $\rm \Delta$G$^{induced}_{A-B} + \Delta$G$^s_{\phi ,solv}$ (kJ/mol) -->
     <g transform="translate(322.142596 194.670125) scale(0.12 -0.12)">
      <defs>
       <path id="DejaVuSans-2b" d="M 2944 4013 
L 2944 2272 
L 4684 2272 
L 4684 1741 
L 2944 1741 
L 2944 0 
L 2419 0 
L 2419 1741 
L 678 1741 
L 678 2272 
L 2419 2272 
L 2419 4013 
L 2944 4013 
z
" transform="scale(0.015625)"/>
       <path id="DejaVuSans-Oblique-73" d="M 3200 3397 
L 3091 2853 
Q 2863 2978 2609 3040 
Q 2356 3103 2088 3103 
Q 1634 3103 1373 2948 
Q 1113 2794 1113 2528 
Q 1113 2219 1719 2053 
Q 1766 2041 1788 2034 
L 1972 1978 
Q 2547 1819 2739 1644 
Q 2931 1469 2931 1166 
Q 2931 609 2489 259 
Q 2047 -91 1331 -91 
Q 1053 -91 747 -37 
Q 441 16 72 128 
L 184 722 
Q 500 559 806 475 
Q 1113 391 1394 391 
Q 1816 391 2080 572 
Q 2344 753 2344 1031 
Q 2344 1331 1650 1516 
L 1591 1531 
L 1394 1581 
Q 956 1697 753 1886 
Q 550 2075 550 2369 
Q 550 2928 970 3256 
Q 1391 3584 2113 3584 
Q 2397 3584 2667 3537 
Q 2938 3491 3200 3397 
z
" transform="scale(0.015625)"/>
       <path id="DejaVuSans-Oblique-3d5" d="M 2991 4863 
L 2738 3572 
Q 3363 3572 3684 3094 
Q 4016 2606 3850 1747 
Q 3681 888 3159 400 
Q 2653 -78 2028 -78 
L 1784 -1331 
L 1213 -1331 
L 1456 -78 
Q 834 -78 509 400 
Q 178 888 347 1747 
Q 513 2606 1034 3094 
Q 1544 3572 2166 3572 
L 2419 4863 
L 2991 4863 
z
M 2128 434 
Q 2481 434 2784 756 
Q 3116 1116 3244 1747 
Q 3369 2372 3169 2738 
Q 2991 3059 2638 3059 
L 2128 434 
z
M 1556 434 
L 2066 3059 
Q 1716 3059 1413 2738 
Q 1072 2372 953 1747 
Q 834 1116 1028 756 
Q 1203 434 1556 434 
z
" transform="scale(0.015625)"/>
       <path id="DejaVuSans-2c" d="M 750 794 
L 1409 794 
L 1409 256 
L 897 -744 
L 494 -744 
L 750 256 
L 750 794 
z
" transform="scale(0.015625)"/>
       <path id="DejaVuSans-Oblique-6f" d="M 1625 -91 
Q 1009 -91 651 289 
Q 294 669 294 1325 
Q 294 1706 417 2101 
Q 541 2497 738 2766 
Q 1047 3184 1428 3384 
Q 1809 3584 2291 3584 
Q 2888 3584 3255 3212 
Q 3622 2841 3622 2241 
Q 3622 1825 3500 1412 
Q 3378 1000 3181 728 
Q 2875 309 2494 109 
Q 2113 -91 1625 -91 
z
M 891 1344 
Q 891 869 1089 633 
Q 1288 397 1691 397 
Q 2269 397 2648 901 
Q 3028 1406 3028 2181 
Q 3028 2634 2825 2865 
Q 2622 3097 2228 3097 
Q 1903 3097 1650 2945 
Q 1397 2794 1197 2484 
Q 1050 2253 970 1956 
Q 891 1659 891 1344 
z
" transform="scale(0.015625)"/>
       <path id="DejaVuSans-Oblique-6c" d="M 1172 4863 
L 1747 4863 
L 800 0 
L 225 0 
L 1172 4863 
z
" transform="scale(0.015625)"/>
       <path id="DejaVuSans-Oblique-76" d="M 459 3500 
L 1069 3500 
L 1581 525 
L 3256 3500 
L 3866 3500 
L 1875 0 
L 1100 0 
L 459 3500 
z
" transform="scale(0.015625)"/>
      </defs>
      <use xlink:href="#DejaVuSans-394" transform="translate(0 0.529687)"/>
      <use xlink:href="#DejaVuSans-47" transform="translate(68.408203 0.529687)"/>
      <use xlink:href="#DejaVuSans-Oblique-69" transform="translate(146.855469 38.810938) scale(0.7)"/>
      <use xlink:href="#DejaVuSans-Oblique-6e" transform="translate(166.303711 38.810938) scale(0.7)"/>
      <use xlink:href="#DejaVuSans-Oblique-64" transform="translate(210.668945 38.810938) scale(0.7)"/>
      <use xlink:href="#DejaVuSans-Oblique-75" transform="translate(255.102539 38.810938) scale(0.7)"/>
      <use xlink:href="#DejaVuSans-Oblique-63" transform="translate(299.467773 38.810938) scale(0.7)"/>
      <use xlink:href="#DejaVuSans-Oblique-65" transform="translate(337.954102 38.810938) scale(0.7)"/>
      <use xlink:href="#DejaVuSans-Oblique-64" transform="translate(381.020508 38.810938) scale(0.7)"/>
      <use xlink:href="#DejaVuSans-Oblique-41" transform="translate(146.855469 -26.814063) scale(0.7)"/>
      <use xlink:href="#DejaVuSans-2212" transform="translate(208.378906 -26.814063) scale(0.7)"/>
      <use xlink:href="#DejaVuSans-Oblique-42" transform="translate(280.668945 -26.814063) scale(0.7)"/>
      <use xlink:href="#DejaVuSans-2b" transform="translate(447.670898 0.529687)"/>
      <use xlink:href="#DejaVuSans-394" transform="translate(550.942383 0.529687)"/>
      <use xlink:href="#DejaVuSans-47" transform="translate(619.350586 0.529687)"/>
      <use xlink:href="#DejaVuSans-Oblique-73" transform="translate(697.797852 39.870313) scale(0.7)"/>
      <use xlink:href="#DejaVuSans-Oblique-3d5" transform="translate(697.797852 -26.814062) scale(0.7)"/>
      <use xlink:href="#DejaVuSans-2c" transform="translate(743.974609 -26.814062) scale(0.7)"/>
      <use xlink:href="#DejaVuSans-Oblique-73" transform="translate(779.863281 -26.814062) scale(0.7)"/>
      <use xlink:href="#DejaVuSans-Oblique-6f" transform="translate(816.333008 -26.814062) scale(0.7)"/>
      <use xlink:href="#DejaVuSans-Oblique-6c" transform="translate(859.160156 -26.814062) scale(0.7)"/>
      <use xlink:href="#DejaVuSans-Oblique-76" transform="translate(878.608398 -26.814062) scale(0.7)"/>
      <use xlink:href="#DejaVuSans-20" transform="translate(922.768555 0.529687)"/>
      <use xlink:href="#DejaVuSans-28" transform="translate(954.555664 0.529687)"/>
      <use xlink:href="#DejaVuSans-6b" transform="translate(993.569336 0.529687)"/>
      <use xlink:href="#DejaVuSans-4a" transform="translate(1051.479492 0.529687)"/>
      <use xlink:href="#DejaVuSans-2f" transform="translate(1080.97168 0.529687)"/>
      <use xlink:href="#DejaVuSans-6d" transform="translate(1114.663086 0.529687)"/>
      <use xlink:href="#DejaVuSans-6f" transform="translate(1212.075195 0.529687)"/>
      <use xlink:href="#DejaVuSans-6c" transform="translate(1273.256836 0.529687)"/>
      <use xlink:href="#DejaVuSans-29" transform="translate(1301.040039 0.529687)"/>
     </g>
    </g>
   </g>
   <g id="matplotlib.axis_4">
    <g id="ytick_6">
     <g id="line2d_47">
      <path d="M 312.005192 162.952 
L 493.2 162.952 
" clip-path="url(#pc7973b4aae)" style="fill: none; stroke: #b0b0b0; stroke-width: 0.8; stroke-linecap: square"/>
     </g>
     <g id="line2d_48">
      <g>
       <use xlink:href="#m7aec07bd50" x="312.005192" y="162.952" style="stroke: #000000; stroke-width: 0.8"/>
      </g>
     </g>
     <g id="text_27">
      <!-- −15 -->
      <g transform="translate(283.900505 166.751219) scale(0.1 -0.1)">
       <use xlink:href="#DejaVuSans-2212"/>
       <use xlink:href="#DejaVuSans-31" x="83.789062"/>
       <use xlink:href="#DejaVuSans-35" x="147.412109"/>
      </g>
     </g>
    </g>
    <g id="ytick_7">
     <g id="line2d_49">
      <path d="M 312.005192 127.567814 
L 493.2 127.567814 
" clip-path="url(#pc7973b4aae)" style="fill: none; stroke: #b0b0b0; stroke-width: 0.8; stroke-linecap: square"/>
     </g>
     <g id="line2d_50">
      <g>
       <use xlink:href="#m7aec07bd50" x="312.005192" y="127.567814" style="stroke: #000000; stroke-width: 0.8"/>
      </g>
     </g>
     <g id="text_28">
      <!-- −10 -->
      <g transform="translate(283.900505 131.367033) scale(0.1 -0.1)">
       <use xlink:href="#DejaVuSans-2212"/>
       <use xlink:href="#DejaVuSans-31" x="83.789062"/>
       <use xlink:href="#DejaVuSans-30" x="147.412109"/>
      </g>
     </g>
    </g>
    <g id="ytick_8">
     <g id="line2d_51">
      <path d="M 312.005192 92.183628 
L 493.2 92.183628 
" clip-path="url(#pc7973b4aae)" style="fill: none; stroke: #b0b0b0; stroke-width: 0.8; stroke-linecap: square"/>
     </g>
     <g id="line2d_52">
      <g>
       <use xlink:href="#m7aec07bd50" x="312.005192" y="92.183628" style="stroke: #000000; stroke-width: 0.8"/>
      </g>
     </g>
     <g id="text_29">
      <!-- −5 -->
      <g transform="translate(290.263005 95.982847) scale(0.1 -0.1)">
       <use xlink:href="#DejaVuSans-2212"/>
       <use xlink:href="#DejaVuSans-35" x="83.789062"/>
      </g>
     </g>
    </g>
    <g id="ytick_9">
     <g id="line2d_53">
      <path d="M 312.005192 56.799442 
L 493.2 56.799442 
" clip-path="url(#pc7973b4aae)" style="fill: none; stroke: #b0b0b0; stroke-width: 0.8; stroke-linecap: square"/>
     </g>
     <g id="line2d_54">
      <g>
       <use xlink:href="#m7aec07bd50" x="312.005192" y="56.799442" style="stroke: #000000; stroke-width: 0.8"/>
      </g>
     </g>
     <g id="text_30">
      <!-- 0 -->
      <g transform="translate(298.642692 60.598661) scale(0.1 -0.1)">
       <use xlink:href="#DejaVuSans-30"/>
      </g>
     </g>
    </g>
    <g id="ytick_10">
     <g id="line2d_55">
      <path d="M 312.005192 21.415256 
L 493.2 21.415256 
" clip-path="url(#pc7973b4aae)" style="fill: none; stroke: #b0b0b0; stroke-width: 0.8; stroke-linecap: square"/>
     </g>
     <g id="line2d_56">
      <g>
       <use xlink:href="#m7aec07bd50" x="312.005192" y="21.415256" style="stroke: #000000; stroke-width: 0.8"/>
      </g>
     </g>
     <g id="text_31">
      <!-- 5 -->
      <g transform="translate(298.642692 25.214475) scale(0.1 -0.1)">
       <use xlink:href="#DejaVuSans-35"/>
      </g>
     </g>
    </g>
    <g id="text_32">
     <!-- $ \Delta G_{\alpha_{exp}}$ (kJ/mol) -->
     <g transform="translate(275.220505 129.176) rotate(-90) scale(0.12 -0.12)">
      <use xlink:href="#DejaVuSans-394" transform="translate(0 0.015625)"/>
      <use xlink:href="#DejaVuSans-Oblique-47" transform="translate(68.408203 0.015625)"/>
      <use xlink:href="#DejaVuSans-Oblique-3b1" transform="translate(145.898438 -16.390625) scale(0.7)"/>
      <use xlink:href="#DejaVuSans-Oblique-65" transform="translate(192.041016 -27.875) scale(0.49)"/>
      <use xlink:href="#DejaVuSans-Oblique-78" transform="translate(222.1875 -27.875) scale(0.49)"/>
      <use xlink:href="#DejaVuSans-Oblique-70" transform="translate(251.185547 -27.875) scale(0.49)"/>
      <use xlink:href="#DejaVuSans-20" transform="translate(286.9375 0.015625)"/>
      <use xlink:href="#DejaVuSans-28" transform="translate(318.724609 0.015625)"/>
      <use xlink:href="#DejaVuSans-6b" transform="translate(357.738281 0.015625)"/>
      <use xlink:href="#DejaVuSans-4a" transform="translate(415.648438 0.015625)"/>
      <use xlink:href="#DejaVuSans-2f" transform="translate(445.140625 0.015625)"/>
      <use xlink:href="#DejaVuSans-6d" transform="translate(478.832031 0.015625)"/>
      <use xlink:href="#DejaVuSans-6f" transform="translate(576.244141 0.015625)"/>
      <use xlink:href="#DejaVuSans-6c" transform="translate(637.425781 0.015625)"/>
      <use xlink:href="#DejaVuSans-29" transform="translate(665.208984 0.015625)"/>
     </g>
    </g>
   </g>
   <g id="line2d_57">
    <path d="M 396.050564 102.63104 
" clip-path="url(#pc7973b4aae)" style="fill: none; stroke: #0000ff; stroke-width: 1.5; stroke-linecap: square"/>
    <defs>
     <path id="m409335f6f6" d="M 0 3 
C 0.795609 3 1.55874 2.683901 2.12132 2.12132 
C 2.683901 1.55874 3 0.795609 3 0 
C 3 -0.795609 2.683901 -1.55874 2.12132 -2.12132 
C 1.55874 -2.683901 0.795609 -3 0 -3 
C -0.795609 -3 -1.55874 -2.683901 -2.12132 -2.12132 
C -2.683901 -1.55874 -3 -0.795609 -3 0 
C -3 0.795609 -2.683901 1.55874 -2.12132 2.12132 
C -1.55874 2.683901 -0.795609 3 0 3 
z
" style="stroke: #0000ff"/>
    </defs>
    <g clip-path="url(#pc7973b4aae)">
     <use xlink:href="#m409335f6f6" x="396.050564" y="102.63104" style="fill: #0000ff; stroke: #0000ff"/>
    </g>
   </g>
   <g id="LineCollection_9">
    <path d="M 375.402528 102.63104 
L 416.6986 102.63104 
" clip-path="url(#pc7973b4aae)" style="fill: none; stroke: #000000; stroke-width: 1.5"/>
   </g>
   <g id="line2d_58">
    <path d="M 375.069493 106.605253 
" clip-path="url(#pc7973b4aae)" style="fill: none; stroke: #0000ff; stroke-width: 1.5; stroke-linecap: square"/>
    <g clip-path="url(#pc7973b4aae)">
     <use xlink:href="#m409335f6f6" x="375.069493" y="106.605253" style="fill: #0000ff; stroke: #0000ff"/>
    </g>
   </g>
   <g id="LineCollection_10">
    <path d="M 368.21487 106.605253 
L 381.924116 106.605253 
" clip-path="url(#pc7973b4aae)" style="fill: none; stroke: #000000; stroke-width: 1.5"/>
   </g>
   <g id="line2d_59">
    <path d="M 372.729528 108.825291 
" clip-path="url(#pc7973b4aae)" style="fill: none; stroke: #0000ff; stroke-width: 1.5; stroke-linecap: square"/>
    <g clip-path="url(#pc7973b4aae)">
     <use xlink:href="#m409335f6f6" x="372.729528" y="108.825291" style="fill: #0000ff; stroke: #0000ff"/>
    </g>
   </g>
   <g id="LineCollection_11">
    <path d="M 363.31084 108.825291 
L 382.148216 108.825291 
" clip-path="url(#pc7973b4aae)" style="fill: none; stroke: #000000; stroke-width: 1.5"/>
   </g>
   <g id="line2d_60">
    <path d="M 459.891407 40.886537 
" clip-path="url(#pc7973b4aae)" style="fill: none; stroke: #0000ff; stroke-width: 1.5; stroke-linecap: square"/>
    <g clip-path="url(#pc7973b4aae)">
     <use xlink:href="#m409335f6f6" x="459.891407" y="40.886537" style="fill: #0000ff; stroke: #0000ff"/>
    </g>
   </g>
   <g id="LineCollection_12">
    <path d="M 452.06567 40.886537 
L 467.717143 40.886537 
" clip-path="url(#pc7973b4aae)" style="fill: none; stroke: #000000; stroke-width: 1.5"/>
   </g>
   <g id="line2d_61">
    <path d="M 467.66895 47.928109 
" clip-path="url(#pc7973b4aae)" style="fill: none; stroke: #0000ff; stroke-width: 1.5; stroke-linecap: square"/>
    <g clip-path="url(#pc7973b4aae)">
     <use xlink:href="#m409335f6f6" x="467.66895" y="47.928109" style="fill: #0000ff; stroke: #0000ff"/>
    </g>
   </g>
   <g id="LineCollection_13">
    <path d="M 460.808308 47.928109 
L 474.529593 47.928109 
" clip-path="url(#pc7973b4aae)" style="fill: none; stroke: #000000; stroke-width: 1.5"/>
   </g>
   <g id="line2d_62">
    <path d="M 434.523168 65.601168 
" clip-path="url(#pc7973b4aae)" style="fill: none; stroke: #0000ff; stroke-width: 1.5; stroke-linecap: square"/>
    <g clip-path="url(#pc7973b4aae)">
     <use xlink:href="#m409335f6f6" x="434.523168" y="65.601168" style="fill: #0000ff; stroke: #0000ff"/>
    </g>
   </g>
   <g id="LineCollection_14">
    <path d="M 422.119466 65.601168 
L 446.926869 65.601168 
" clip-path="url(#pc7973b4aae)" style="fill: none; stroke: #000000; stroke-width: 1.5"/>
   </g>
   <g id="line2d_63">
    <path d="M 465.252292 74.304299 
" clip-path="url(#pc7973b4aae)" style="fill: none; stroke: #0000ff; stroke-width: 1.5; stroke-linecap: square"/>
    <g clip-path="url(#pc7973b4aae)">
     <use xlink:href="#m409335f6f6" x="465.252292" y="74.304299" style="fill: #0000ff; stroke: #0000ff"/>
    </g>
   </g>
   <g id="LineCollection_15">
    <path d="M 445.540711 74.304299 
L 484.963872 74.304299 
" clip-path="url(#pc7973b4aae)" style="fill: none; stroke: #000000; stroke-width: 1.5"/>
   </g>
   <g id="line2d_64">
    <path d="M 336.719204 136.775844 
" clip-path="url(#pc7973b4aae)" style="fill: none; stroke: #0000ff; stroke-width: 1.5; stroke-linecap: square"/>
    <g clip-path="url(#pc7973b4aae)">
     <use xlink:href="#m409335f6f6" x="336.719204" y="136.775844" style="fill: #0000ff; stroke: #0000ff"/>
    </g>
   </g>
   <g id="LineCollection_16">
    <path d="M 320.24132 136.775844 
L 353.197089 136.775844 
" clip-path="url(#pc7973b4aae)" style="fill: none; stroke: #000000; stroke-width: 1.5"/>
   </g>
   <g id="line2d_65">
    <path d="M 336.719204 134.014341 
L 467.66895 51.165877 
" clip-path="url(#pc7973b4aae)" style="fill: none; stroke-dasharray: 5.55,2.4; stroke-dashoffset: 0; stroke: #0000ff; stroke-width: 1.5"/>
   </g>
   <g id="line2d_66">
    <path d="M 396.050564 102.63104 
" clip-path="url(#pc7973b4aae)" style="fill: none; stroke: #000000; stroke-width: 1.5; stroke-linecap: square"/>
   </g>
   <g id="line2d_67">
    <path d="M 375.069493 106.605253 
" clip-path="url(#pc7973b4aae)" style="fill: none; stroke: #000000; stroke-width: 1.5; stroke-linecap: square"/>
   </g>
   <g id="line2d_68">
    <path d="M 372.729528 108.825291 
" clip-path="url(#pc7973b4aae)" style="fill: none; stroke: #000000; stroke-width: 1.5; stroke-linecap: square"/>
   </g>
   <g id="line2d_69">
    <path d="M 459.891407 40.886537 
" clip-path="url(#pc7973b4aae)" style="fill: none; stroke: #000000; stroke-width: 1.5; stroke-linecap: square"/>
   </g>
   <g id="line2d_70">
    <path d="M 467.66895 47.928109 
" clip-path="url(#pc7973b4aae)" style="fill: none; stroke: #000000; stroke-width: 1.5; stroke-linecap: square"/>
   </g>
   <g id="line2d_71">
    <path d="M 434.523168 65.601168 
" clip-path="url(#pc7973b4aae)" style="fill: none; stroke: #000000; stroke-width: 1.5; stroke-linecap: square"/>
   </g>
   <g id="line2d_72">
    <path d="M 465.252292 74.304299 
" clip-path="url(#pc7973b4aae)" style="fill: none; stroke: #000000; stroke-width: 1.5; stroke-linecap: square"/>
   </g>
   <g id="line2d_73">
    <path d="M 336.719204 136.775844 
" clip-path="url(#pc7973b4aae)" style="fill: none; stroke: #000000; stroke-width: 1.5; stroke-linecap: square"/>
   </g>
   <g id="patch_9">
    <path d="M 312.005192 162.952 
L 312.005192 10.8 
" style="fill: none; stroke: #000000; stroke-width: 0.8; stroke-linejoin: miter; stroke-linecap: square"/>
   </g>
   <g id="patch_10">
    <path d="M 493.2 162.952 
L 493.2 10.8 
" style="fill: none; stroke: #000000; stroke-width: 0.8; stroke-linejoin: miter; stroke-linecap: square"/>
   </g>
   <g id="patch_11">
    <path d="M 312.005192 162.952 
L 493.2 162.952 
" style="fill: none; stroke: #000000; stroke-width: 0.8; stroke-linejoin: miter; stroke-linecap: square"/>
   </g>
   <g id="patch_12">
    <path d="M 312.005192 10.8 
L 493.2 10.8 
" style="fill: none; stroke: #000000; stroke-width: 0.8; stroke-linejoin: miter; stroke-linecap: square"/>
   </g>
   <g id="text_33">
    <!-- 6ygj -->
    <g transform="translate(396.050564 102.63104) scale(0.1 -0.1)">
     <use xlink:href="#DejaVuSans-36"/>
     <use xlink:href="#DejaVuSans-79" x="63.623047"/>
     <use xlink:href="#DejaVuSans-67" x="122.802734"/>
     <use xlink:href="#DejaVuSans-6a" x="186.279297"/>
    </g>
   </g>
   <g id="text_34">
    <!-- 5t35 -->
    <g transform="translate(375.069493 106.605253) scale(0.1 -0.1)">
     <use xlink:href="#DejaVuSans-35"/>
     <use xlink:href="#DejaVuSans-74" x="63.623047"/>
     <use xlink:href="#DejaVuSans-33" x="102.832031"/>
     <use xlink:href="#DejaVuSans-35" x="166.455078"/>
    </g>
   </g>
   <g id="text_35">
    <!-- 6sis -->
    <g transform="translate(372.729528 108.825291) scale(0.1 -0.1)">
     <use xlink:href="#DejaVuSans-36"/>
     <use xlink:href="#DejaVuSans-73" x="63.623047"/>
     <use xlink:href="#DejaVuSans-69" x="115.722656"/>
     <use xlink:href="#DejaVuSans-73" x="143.505859"/>
    </g>
   </g>
   <g id="text_36">
    <!-- 6bn7 -->
    <g transform="translate(459.891407 40.886537) scale(0.1 -0.1)">
     <use xlink:href="#DejaVuSans-36"/>
     <use xlink:href="#DejaVuSans-62" x="63.623047"/>
     <use xlink:href="#DejaVuSans-6e" x="127.099609"/>
     <use xlink:href="#DejaVuSans-37" x="190.478516"/>
    </g>
   </g>
   <g id="text_37">
    <!-- 6boy -->
    <g transform="translate(467.66895 47.928109) scale(0.1 -0.1)">
     <use xlink:href="#DejaVuSans-36"/>
     <use xlink:href="#DejaVuSans-62" x="63.623047"/>
     <use xlink:href="#DejaVuSans-6f" x="127.099609"/>
     <use xlink:href="#DejaVuSans-79" x="188.28125"/>
    </g>
   </g>
   <g id="text_38">
    <!-- 7jto -->
    <g transform="translate(434.523168 65.601168) scale(0.1 -0.1)">
     <use xlink:href="#DejaVuSans-37"/>
     <use xlink:href="#DejaVuSans-6a" x="63.623047"/>
     <use xlink:href="#DejaVuSans-74" x="91.40625"/>
     <use xlink:href="#DejaVuSans-6f" x="130.615234"/>
    </g>
   </g>
   <g id="text_39">
    <!-- 7jtp -->
    <g transform="translate(465.252292 74.304299) scale(0.1 -0.1)">
     <use xlink:href="#DejaVuSans-37"/>
     <use xlink:href="#DejaVuSans-6a" x="63.623047"/>
     <use xlink:href="#DejaVuSans-74" x="91.40625"/>
     <use xlink:href="#DejaVuSans-70" x="130.615234"/>
    </g>
   </g>
   <g id="text_40">
    <!-- 6nv2 -->
    <g transform="translate(336.719204 136.775844) scale(0.1 -0.1)">
     <use xlink:href="#DejaVuSans-36"/>
     <use xlink:href="#DejaVuSans-6e" x="63.623047"/>
     <use xlink:href="#DejaVuSans-76" x="127.001953"/>
     <use xlink:href="#DejaVuSans-32" x="186.181641"/>
    </g>
   </g>
   <g id="legend_2">
    <g id="patch_13">
     <path d="M 319.005192 55.87375 
L 445.55988 55.87375 
Q 447.55988 55.87375 447.55988 53.87375 
L 447.55988 17.8 
Q 447.55988 15.8 445.55988 15.8 
L 319.005192 15.8 
Q 317.005192 15.8 317.005192 17.8 
L 317.005192 53.87375 
Q 317.005192 55.87375 319.005192 55.87375 
z
" style="fill: #ffffff; opacity: 0.8; stroke: #cccccc; stroke-linejoin: miter"/>
    </g>
    <g id="line2d_74">
     <path d="M 321.005192 36.136094 
L 331.005192 36.136094 
L 341.005192 36.136094 
" style="fill: none; stroke-dasharray: 5.55,2.4; stroke-dashoffset: 0; stroke: #0000ff; stroke-width: 1.5"/>
    </g>
    <g id="text_41">
     <!--    Pearson R  : 0.95 -->
     <g transform="translate(349.005192 27.398438) scale(0.1 -0.1)">
      <defs>
       <path id="DejaVuSans-39" d="M 703 97 
L 703 672 
Q 941 559 1184 500 
Q 1428 441 1663 441 
Q 2288 441 2617 861 
Q 2947 1281 2994 2138 
Q 2813 1869 2534 1725 
Q 2256 1581 1919 1581 
Q 1219 1581 811 2004 
Q 403 2428 403 3163 
Q 403 3881 828 4315 
Q 1253 4750 1959 4750 
Q 2769 4750 3195 4129 
Q 3622 3509 3622 2328 
Q 3622 1225 3098 567 
Q 2575 -91 1691 -91 
Q 1453 -91 1209 -44 
Q 966 3 703 97 
z
M 1959 2075 
Q 2384 2075 2632 2365 
Q 2881 2656 2881 3163 
Q 2881 3666 2632 3958 
Q 2384 4250 1959 4250 
Q 1534 4250 1286 3958 
Q 1038 3666 1038 3163 
Q 1038 2656 1286 2365 
Q 1534 2075 1959 2075 
z
" transform="scale(0.015625)"/>
      </defs>
      <use xlink:href="#DejaVuSans-20"/>
      <use xlink:href="#DejaVuSans-20" x="31.787109"/>
      <use xlink:href="#DejaVuSans-20" x="63.574219"/>
      <use xlink:href="#DejaVuSans-50" x="95.361328"/>
      <use xlink:href="#DejaVuSans-65" x="152.039062"/>
      <use xlink:href="#DejaVuSans-61" x="213.5625"/>
      <use xlink:href="#DejaVuSans-72" x="274.841797"/>
      <use xlink:href="#DejaVuSans-73" x="315.955078"/>
      <use xlink:href="#DejaVuSans-6f" x="368.054688"/>
      <use xlink:href="#DejaVuSans-6e" x="429.236328"/>
      <use xlink:href="#DejaVuSans-20" x="492.615234"/>
      <use xlink:href="#DejaVuSans-52" x="524.402344"/>
      <use xlink:href="#DejaVuSans-20" x="593.884766"/>
      <use xlink:href="#DejaVuSans-20" x="625.671875"/>
      <use xlink:href="#DejaVuSans-3a" x="657.458984"/>
      <use xlink:href="#DejaVuSans-20" x="691.150391"/>
      <use xlink:href="#DejaVuSans-30" x="722.9375"/>
      <use xlink:href="#DejaVuSans-2e" x="786.560547"/>
      <use xlink:href="#DejaVuSans-39" x="818.347656"/>
      <use xlink:href="#DejaVuSans-35" x="881.970703"/>
     </g>
     <!-- Spearman R : 0.88 -->
     <g transform="translate(349.005192 38.59625) scale(0.1 -0.1)">
      <use xlink:href="#DejaVuSans-53"/>
      <use xlink:href="#DejaVuSans-70" x="63.476562"/>
      <use xlink:href="#DejaVuSans-65" x="126.953125"/>
      <use xlink:href="#DejaVuSans-61" x="188.476562"/>
      <use xlink:href="#DejaVuSans-72" x="249.755859"/>
      <use xlink:href="#DejaVuSans-6d" x="289.119141"/>
      <use xlink:href="#DejaVuSans-61" x="386.53125"/>
      <use xlink:href="#DejaVuSans-6e" x="447.810547"/>
      <use xlink:href="#DejaVuSans-20" x="511.189453"/>
      <use xlink:href="#DejaVuSans-52" x="542.976562"/>
      <use xlink:href="#DejaVuSans-20" x="612.458984"/>
      <use xlink:href="#DejaVuSans-3a" x="644.246094"/>
      <use xlink:href="#DejaVuSans-20" x="677.9375"/>
      <use xlink:href="#DejaVuSans-30" x="709.724609"/>
      <use xlink:href="#DejaVuSans-2e" x="773.347656"/>
      <use xlink:href="#DejaVuSans-38" x="805.134766"/>
      <use xlink:href="#DejaVuSans-38" x="868.757812"/>
     </g>
     <!--    Kendall $\tau$   : 0.79 -->
     <g transform="translate(349.005192 49.794063) scale(0.1 -0.1)">
      <use xlink:href="#DejaVuSans-20" transform="translate(0 0.015625)"/>
      <use xlink:href="#DejaVuSans-20" transform="translate(31.787109 0.015625)"/>
      <use xlink:href="#DejaVuSans-20" transform="translate(63.574219 0.015625)"/>
      <use xlink:href="#DejaVuSans-4b" transform="translate(95.361328 0.015625)"/>
      <use xlink:href="#DejaVuSans-65" transform="translate(160.9375 0.015625)"/>
      <use xlink:href="#DejaVuSans-6e" transform="translate(222.460938 0.015625)"/>
      <use xlink:href="#DejaVuSans-64" transform="translate(285.839844 0.015625)"/>
      <use xlink:href="#DejaVuSans-61" transform="translate(349.316406 0.015625)"/>
      <use xlink:href="#DejaVuSans-6c" transform="translate(410.595703 0.015625)"/>
      <use xlink:href="#DejaVuSans-6c" transform="translate(438.378906 0.015625)"/>
      <use xlink:href="#DejaVuSans-20" transform="translate(466.162109 0.015625)"/>
      <use xlink:href="#DejaVuSans-Oblique-3c4" transform="translate(497.949219 0.015625)"/>
      <use xlink:href="#DejaVuSans-20" transform="translate(558.154297 0.015625)"/>
      <use xlink:href="#DejaVuSans-20" transform="translate(589.941406 0.015625)"/>
      <use xlink:href="#DejaVuSans-20" transform="translate(621.728516 0.015625)"/>
      <use xlink:href="#DejaVuSans-3a" transform="translate(653.515625 0.015625)"/>
      <use xlink:href="#DejaVuSans-20" transform="translate(687.207031 0.015625)"/>
      <use xlink:href="#DejaVuSans-30" transform="translate(718.994141 0.015625)"/>
      <use xlink:href="#DejaVuSans-2e" transform="translate(782.617188 0.015625)"/>
      <use xlink:href="#DejaVuSans-37" transform="translate(806.654297 0.015625)"/>
      <use xlink:href="#DejaVuSans-39" transform="translate(870.277344 0.015625)"/>
     </g>
    </g>
   </g>
  </g>
 </g>
 <defs>
  <clipPath id="p961d63084b">
   <rect x="60.9608" y="10.8" width="181.194808" height="152.152"/>
  </clipPath>
  <clipPath id="pc7973b4aae">
   <rect x="312.005192" y="10.8" width="181.194808" height="152.152"/>
  </clipPath>
 </defs>
</svg>
