<?xml version="1.0" encoding="UTF-8" standalone="no"?>
<svg
   width="360pt"
   height="288pt"
   viewBox="0 0 360 288"
   version="1.1"
   id="svg370"
   sodipodi:docname="PPI_Kd_statistics.svg"
   inkscape:version="1.1.2 (0a00cf5339, 2022-02-04)"
   xmlns:inkscape="http://www.inkscape.org/namespaces/inkscape"
   xmlns:sodipodi="http://sodipodi.sourceforge.net/DTD/sodipodi-0.dtd"
   xmlns:xlink="http://www.w3.org/1999/xlink"
   xmlns="http://www.w3.org/2000/svg"
   xmlns:svg="http://www.w3.org/2000/svg"
   xmlns:rdf="http://www.w3.org/1999/02/22-rdf-syntax-ns#"
   xmlns:cc="http://creativecommons.org/ns#"
   xmlns:dc="http://purl.org/dc/elements/1.1/">
  <sodipodi:namedview
     id="namedview372"
     pagecolor="#ffffff"
     bordercolor="#666666"
     borderopacity="1.0"
     inkscape:pageshadow="2"
     inkscape:pageopacity="0.0"
     inkscape:pagecheckerboard="0"
     inkscape:document-units="pt"
     showgrid="false"
     inkscape:zoom="1.8723958"
     inkscape:cx="232.32267"
     inkscape:cy="192"
     inkscape:window-width="2490"
     inkscape:window-height="1376"
     inkscape:window-x="70"
     inkscape:window-y="27"
     inkscape:window-maximized="1"
     inkscape:current-layer="svg370" />
  <metadata
     id="metadata2">
    <rdf:RDF>
      <cc:Work>
        <dc:type
           rdf:resource="http://purl.org/dc/dcmitype/StillImage" />
        <dc:date>2024-08-05T09:17:02.918642</dc:date>
        <dc:format>image/svg+xml</dc:format>
        <dc:creator>
          <cc:Agent>
            <dc:title>Matplotlib v3.7.2, https://matplotlib.org/</dc:title>
          </cc:Agent>
        </dc:creator>
      </cc:Work>
    </rdf:RDF>
  </metadata>
  <defs
     id="defs6">
    <style
       type="text/css"
       id="style4">*{stroke-linejoin: round; stroke-linecap: butt}</style>
  </defs>
  <g
     id="figure_1"
     inkscape:export-filename="/localhome/shuchen/projects/Norvatis/PPIS/publication/Figures/PDBbind2019_Kd.png"
     inkscape:export-xdpi="300"
     inkscape:export-ydpi="300">
    <g
       id="patch_1">
      <path
         d="M 0 288  L 360 288  L 360 0  L 0 0  z "
         style="fill: #ffffff"
         id="path8" />
    </g>
    <g
       id="axes_1">
      <g
         id="patch_2">
        <path
           d="M 96.77 212.848  L 336.24 212.848  L 336.24 45.6  L 96.77 45.6  z "
           style="fill: #ffffff"
           id="path11" />
      </g>
      <g
         id="patch_3">
        <path
           d="M 107.655 212.848  L 113.0975 212.848  L 113.0975 211.338201  L 107.655 211.338201  z "
           clip-path="url(#p8cff62162b)"
           style="fill: #1f77b4; fill-opacity: 0.75; stroke: #000000; stroke-width: 0.634091; stroke-linejoin: miter"
           id="path14" />
      </g>
      <g
         id="patch_4">
        <path
           d="M 113.0975 212.848  L 118.54 212.848  L 118.54 212.848  L 113.0975 212.848  z "
           clip-path="url(#p8cff62162b)"
           style="fill: #1f77b4; fill-opacity: 0.75; stroke: #000000; stroke-width: 0.634091; stroke-linejoin: miter"
           id="path17" />
      </g>
      <g
         id="patch_5">
        <path
           d="M 118.54 212.848  L 123.9825 212.848  L 123.9825 212.0931  L 118.54 212.0931  z "
           clip-path="url(#p8cff62162b)"
           style="fill: #1f77b4; fill-opacity: 0.75; stroke: #000000; stroke-width: 0.634091; stroke-linejoin: miter"
           id="path20" />
      </g>
      <g
         id="patch_6">
        <path
           d="M 123.9825 212.848  L 129.425 212.848  L 129.425 212.848  L 123.9825 212.848  z "
           clip-path="url(#p8cff62162b)"
           style="fill: #1f77b4; fill-opacity: 0.75; stroke: #000000; stroke-width: 0.634091; stroke-linejoin: miter"
           id="path23" />
      </g>
      <g
         id="patch_7">
        <path
           d="M 129.425 212.848  L 134.8675 212.848  L 134.8675 208.318603  L 129.425 208.318603  z "
           clip-path="url(#p8cff62162b)"
           style="fill: #1f77b4; fill-opacity: 0.75; stroke: #000000; stroke-width: 0.634091; stroke-linejoin: miter"
           id="path26" />
      </g>
      <g
         id="patch_8">
        <path
           d="M 134.8675 212.848  L 140.31 212.848  L 140.31 209.073502  L 134.8675 209.073502  z "
           clip-path="url(#p8cff62162b)"
           style="fill: #1f77b4; fill-opacity: 0.75; stroke: #000000; stroke-width: 0.634091; stroke-linejoin: miter"
           id="path29" />
      </g>
      <g
         id="patch_9">
        <path
           d="M 140.31 212.848  L 145.7525 212.848  L 145.7525 204.544105  L 140.31 204.544105  z "
           clip-path="url(#p8cff62162b)"
           style="fill: #1f77b4; fill-opacity: 0.75; stroke: #000000; stroke-width: 0.634091; stroke-linejoin: miter"
           id="path32" />
      </g>
      <g
         id="patch_10">
        <path
           d="M 145.7525 212.848  L 151.195 212.848  L 151.195 197.750009  L 145.7525 197.750009  z "
           clip-path="url(#p8cff62162b)"
           style="fill: #1f77b4; fill-opacity: 0.75; stroke: #000000; stroke-width: 0.634091; stroke-linejoin: miter"
           id="path35" />
      </g>
      <g
         id="patch_11">
        <path
           d="M 151.195 212.848  L 156.6375 212.848  L 156.6375 175.857921  L 151.195 175.857921  z "
           clip-path="url(#p8cff62162b)"
           style="fill: #1f77b4; fill-opacity: 0.75; stroke: #000000; stroke-width: 0.634091; stroke-linejoin: miter"
           id="path38" />
      </g>
      <g
         id="patch_12">
        <path
           d="M 156.6375 212.848  L 162.08 212.848  L 162.08 173.593222  L 156.6375 173.593222  z "
           clip-path="url(#p8cff62162b)"
           style="fill: #1f77b4; fill-opacity: 0.75; stroke: #000000; stroke-width: 0.634091; stroke-linejoin: miter"
           id="path41" />
      </g>
      <g
         id="patch_13">
        <path
           d="M 162.08 212.848  L 167.5225 212.848  L 167.5225 148.681536  L 162.08 148.681536  z "
           clip-path="url(#p8cff62162b)"
           style="fill: #1f77b4; fill-opacity: 0.75; stroke: #000000; stroke-width: 0.634091; stroke-linejoin: miter"
           id="path44" />
      </g>
      <g
         id="patch_14">
        <path
           d="M 167.5225 212.848  L 172.965 212.848  L 172.965 111.691457  L 167.5225 111.691457  z "
           clip-path="url(#p8cff62162b)"
           style="fill: #1f77b4; fill-opacity: 0.75; stroke: #000000; stroke-width: 0.634091; stroke-linejoin: miter"
           id="path47" />
      </g>
      <g
         id="patch_15">
        <path
           d="M 172.965 212.848  L 178.4075 212.848  L 178.4075 75.456278  L 172.965 75.456278  z "
           clip-path="url(#p8cff62162b)"
           style="fill: #1f77b4; fill-opacity: 0.75; stroke: #000000; stroke-width: 0.634091; stroke-linejoin: miter"
           id="path50" />
      </g>
      <g
         id="patch_16">
        <path
           d="M 178.4075 212.848  L 183.85 212.848  L 183.85 71.68178  L 178.4075 71.68178  z "
           clip-path="url(#p8cff62162b)"
           style="fill: #1f77b4; fill-opacity: 0.75; stroke: #000000; stroke-width: 0.634091; stroke-linejoin: miter"
           id="path53" />
      </g>
      <g
         id="patch_17">
        <path
           d="M 183.85 212.848  L 189.2925 212.848  L 189.2925 77.720977  L 183.85 77.720977  z "
           clip-path="url(#p8cff62162b)"
           style="fill: #1f77b4; fill-opacity: 0.75; stroke: #000000; stroke-width: 0.634091; stroke-linejoin: miter"
           id="path56" />
      </g>
      <g
         id="patch_18">
        <path
           d="M 189.2925 212.848  L 194.735 212.848  L 194.735 68.662182  L 189.2925 68.662182  z "
           clip-path="url(#p8cff62162b)"
           style="fill: #1f77b4; fill-opacity: 0.75; stroke: #000000; stroke-width: 0.634091; stroke-linejoin: miter"
           id="path59" />
      </g>
      <g
         id="patch_19">
        <path
           d="M 194.735 212.848  L 200.1775 212.848  L 200.1775 61.868086  L 194.735 61.868086  z "
           clip-path="url(#p8cff62162b)"
           style="fill: #1f77b4; fill-opacity: 0.75; stroke: #000000; stroke-width: 0.634091; stroke-linejoin: miter"
           id="path62" />
      </g>
      <g
         id="patch_20">
        <path
           d="M 200.1775 212.848  L 205.62 212.848  L 205.62 73.946479  L 200.1775 73.946479  z "
           clip-path="url(#p8cff62162b)"
           style="fill: #1f77b4; fill-opacity: 0.75; stroke: #000000; stroke-width: 0.634091; stroke-linejoin: miter"
           id="path65" />
      </g>
      <g
         id="patch_21">
        <path
           d="M 205.62 212.848  L 211.0625 212.848  L 211.0625 53.56419  L 205.62 53.56419  z "
           clip-path="url(#p8cff62162b)"
           style="fill: #1f77b4; fill-opacity: 0.75; stroke: #000000; stroke-width: 0.634091; stroke-linejoin: miter"
           id="path68" />
      </g>
      <g
         id="patch_22">
        <path
           d="M 211.0625 212.848  L 216.505 212.848  L 216.505 64.887684  L 211.0625 64.887684  z "
           clip-path="url(#p8cff62162b)"
           style="fill: #1f77b4; fill-opacity: 0.75; stroke: #000000; stroke-width: 0.634091; stroke-linejoin: miter"
           id="path71" />
      </g>
      <g
         id="patch_23">
        <path
           d="M 216.505 212.848  L 221.9475 212.848  L 221.9475 90.554269  L 216.505 90.554269  z "
           clip-path="url(#p8cff62162b)"
           style="fill: #1f77b4; fill-opacity: 0.75; stroke: #000000; stroke-width: 0.634091; stroke-linejoin: miter"
           id="path74" />
      </g>
      <g
         id="patch_24">
        <path
           d="M 221.9475 212.848  L 227.39 212.848  L 227.39 118.485554  L 221.9475 118.485554  z "
           clip-path="url(#p8cff62162b)"
           style="fill: #1f77b4; fill-opacity: 0.75; stroke: #000000; stroke-width: 0.634091; stroke-linejoin: miter"
           id="path77" />
      </g>
      <g
         id="patch_25">
        <path
           d="M 227.39 212.848  L 232.8325 212.848  L 232.8325 114.711056  L 227.39 114.711056  z "
           clip-path="url(#p8cff62162b)"
           style="fill: #1f77b4; fill-opacity: 0.75; stroke: #000000; stroke-width: 0.634091; stroke-linejoin: miter"
           id="path80" />
      </g>
      <g
         id="patch_26">
        <path
           d="M 232.8325 212.848  L 238.275 212.848  L 238.275 163.779528  L 232.8325 163.779528  z "
           clip-path="url(#p8cff62162b)"
           style="fill: #1f77b4; fill-opacity: 0.75; stroke: #000000; stroke-width: 0.634091; stroke-linejoin: miter"
           id="path83" />
      </g>
      <g
         id="patch_27">
        <path
           d="M 238.275 212.848  L 243.7175 212.848  L 243.7175 158.495231  L 238.275 158.495231  z "
           clip-path="url(#p8cff62162b)"
           style="fill: #1f77b4; fill-opacity: 0.75; stroke: #000000; stroke-width: 0.634091; stroke-linejoin: miter"
           id="path86" />
      </g>
      <g
         id="patch_28">
        <path
           d="M 243.7175 212.848  L 249.16 212.848  L 249.16 182.652017  L 243.7175 182.652017  z "
           clip-path="url(#p8cff62162b)"
           style="fill: #1f77b4; fill-opacity: 0.75; stroke: #000000; stroke-width: 0.634091; stroke-linejoin: miter"
           id="path89" />
      </g>
      <g
         id="patch_29">
        <path
           d="M 249.16 212.848  L 254.6025 212.848  L 254.6025 175.103021  L 249.16 175.103021  z "
           clip-path="url(#p8cff62162b)"
           style="fill: #1f77b4; fill-opacity: 0.75; stroke: #000000; stroke-width: 0.634091; stroke-linejoin: miter"
           id="path92" />
      </g>
      <g
         id="patch_30">
        <path
           d="M 254.6025 212.848  L 260.045 212.848  L 260.045 191.710812  L 254.6025 191.710812  z "
           clip-path="url(#p8cff62162b)"
           style="fill: #1f77b4; fill-opacity: 0.75; stroke: #000000; stroke-width: 0.634091; stroke-linejoin: miter"
           id="path95" />
      </g>
      <g
         id="patch_31">
        <path
           d="M 260.045 212.848  L 265.4875 212.848  L 265.4875 201.524506  L 260.045 201.524506  z "
           clip-path="url(#p8cff62162b)"
           style="fill: #1f77b4; fill-opacity: 0.75; stroke: #000000; stroke-width: 0.634091; stroke-linejoin: miter"
           id="path98" />
      </g>
      <g
         id="patch_32">
        <path
           d="M 265.4875 212.848  L 270.93 212.848  L 270.93 204.544105  L 265.4875 204.544105  z "
           clip-path="url(#p8cff62162b)"
           style="fill: #1f77b4; fill-opacity: 0.75; stroke: #000000; stroke-width: 0.634091; stroke-linejoin: miter"
           id="path101" />
      </g>
      <g
         id="patch_33">
        <path
           d="M 270.93 212.848  L 276.3725 212.848  L 276.3725 203.789205  L 270.93 203.789205  z "
           clip-path="url(#p8cff62162b)"
           style="fill: #1f77b4; fill-opacity: 0.75; stroke: #000000; stroke-width: 0.634091; stroke-linejoin: miter"
           id="path104" />
      </g>
      <g
         id="patch_34">
        <path
           d="M 276.3725 212.848  L 281.815 212.848  L 281.815 211.338201  L 276.3725 211.338201  z "
           clip-path="url(#p8cff62162b)"
           style="fill: #1f77b4; fill-opacity: 0.75; stroke: #000000; stroke-width: 0.634091; stroke-linejoin: miter"
           id="path107" />
      </g>
      <g
         id="patch_35">
        <path
           d="M 281.815 212.848  L 287.2575 212.848  L 287.2575 212.0931  L 281.815 212.0931  z "
           clip-path="url(#p8cff62162b)"
           style="fill: #1f77b4; fill-opacity: 0.75; stroke: #000000; stroke-width: 0.634091; stroke-linejoin: miter"
           id="path110" />
      </g>
      <g
         id="patch_36">
        <path
           d="M 287.2575 212.848  L 292.7 212.848  L 292.7 210.583301  L 287.2575 210.583301  z "
           clip-path="url(#p8cff62162b)"
           style="fill: #1f77b4; fill-opacity: 0.75; stroke: #000000; stroke-width: 0.634091; stroke-linejoin: miter"
           id="path113" />
      </g>
      <g
         id="patch_37">
        <path
           d="M 292.7 212.848  L 298.1425 212.848  L 298.1425 212.0931  L 292.7 212.0931  z "
           clip-path="url(#p8cff62162b)"
           style="fill: #1f77b4; fill-opacity: 0.75; stroke: #000000; stroke-width: 0.634091; stroke-linejoin: miter"
           id="path116" />
      </g>
      <g
         id="patch_38">
        <path
           d="M 298.1425 212.848  L 303.585 212.848  L 303.585 211.338201  L 298.1425 211.338201  z "
           clip-path="url(#p8cff62162b)"
           style="fill: #1f77b4; fill-opacity: 0.75; stroke: #000000; stroke-width: 0.634091; stroke-linejoin: miter"
           id="path119" />
      </g>
      <g
         id="patch_39">
        <path
           d="M 303.585 212.848  L 309.0275 212.848  L 309.0275 212.848  L 303.585 212.848  z "
           clip-path="url(#p8cff62162b)"
           style="fill: #1f77b4; fill-opacity: 0.75; stroke: #000000; stroke-width: 0.634091; stroke-linejoin: miter"
           id="path122" />
      </g>
      <g
         id="patch_40">
        <path
           d="M 309.0275 212.848  L 314.47 212.848  L 314.47 212.848  L 309.0275 212.848  z "
           clip-path="url(#p8cff62162b)"
           style="fill: #1f77b4; fill-opacity: 0.75; stroke: #000000; stroke-width: 0.634091; stroke-linejoin: miter"
           id="path125" />
      </g>
      <g
         id="patch_41">
        <path
           d="M 314.47 212.848  L 319.9125 212.848  L 319.9125 211.338201  L 314.47 211.338201  z "
           clip-path="url(#p8cff62162b)"
           style="fill: #1f77b4; fill-opacity: 0.75; stroke: #000000; stroke-width: 0.634091; stroke-linejoin: miter"
           id="path128" />
      </g>
      <g
         id="patch_42">
        <path
           d="M 319.9125 212.848  L 325.355 212.848  L 325.355 210.583301  L 319.9125 210.583301  z "
           clip-path="url(#p8cff62162b)"
           style="fill: #1f77b4; fill-opacity: 0.75; stroke: #000000; stroke-width: 0.634091; stroke-linejoin: miter"
           id="path131" />
      </g>
      <g
         id="matplotlib.axis_1">
        <g
           id="xtick_1">
          <g
             id="line2d_1">
            <path
               d="M 170.372299 212.848  L 170.372299 45.6  "
               clip-path="url(#p8cff62162b)"
               style="fill: none; stroke: #b0b0b0; stroke-width: 0.8; stroke-linecap: square"
               id="path134" />
          </g>
          <g
             id="line2d_2">
            <defs
               id="defs138">
              <path
                 id="m1887a66225"
                 d="M 0 0  L 0 3.5  "
                 style="stroke: #000000; stroke-width: 0.8" />
            </defs>
            <g
               id="g142">
              <use
                 xlink:href="#m1887a66225"
                 x="170.372299"
                 y="212.848"
                 style="stroke: #000000; stroke-width: 0.8"
                 id="use140" />
            </g>
          </g>
          <g
             id="text_1">
            <!-- $\mathdefault{10^{5}}$ -->
            <g
               transform="translate(151.012299 236.564562) scale(0.22 -0.22)"
               id="g156">
              <defs
                 id="defs148">
                <path
                   id="DejaVuSans-31"
                   d="M 794 531  L 1825 531  L 1825 4091  L 703 3866  L 703 4441  L 1819 4666  L 2450 4666  L 2450 531  L 3481 531  L 3481 0  L 794 0  L 794 531  z "
                   transform="scale(0.015625)" />
                <path
                   id="DejaVuSans-30"
                   d="M 2034 4250  Q 1547 4250 1301 3770  Q 1056 3291 1056 2328  Q 1056 1369 1301 889  Q 1547 409 2034 409  Q 2525 409 2770 889  Q 3016 1369 3016 2328  Q 3016 3291 2770 3770  Q 2525 4250 2034 4250  z M 2034 4750  Q 2819 4750 3233 4129  Q 3647 3509 3647 2328  Q 3647 1150 3233 529  Q 2819 -91 2034 -91  Q 1250 -91 836 529  Q 422 1150 422 2328  Q 422 3509 836 4129  Q 1250 4750 2034 4750  z "
                   transform="scale(0.015625)" />
                <path
                   id="DejaVuSans-35"
                   d="M 691 4666  L 3169 4666  L 3169 4134  L 1269 4134  L 1269 2991  Q 1406 3038 1543 3061  Q 1681 3084 1819 3084  Q 2600 3084 3056 2656  Q 3513 2228 3513 1497  Q 3513 744 3044 326  Q 2575 -91 1722 -91  Q 1428 -91 1123 -41  Q 819 9 494 109  L 494 744  Q 775 591 1075 516  Q 1375 441 1709 441  Q 2250 441 2565 725  Q 2881 1009 2881 1497  Q 2881 1984 2565 2268  Q 2250 2553 1709 2553  Q 1456 2553 1204 2497  Q 953 2441 691 2322  L 691 4666  z "
                   transform="scale(0.015625)" />
              </defs>
              <use
                 xlink:href="#DejaVuSans-31"
                 transform="translate(0 0.684375)"
                 id="use150" />
              <use
                 xlink:href="#DejaVuSans-30"
                 transform="translate(63.623047 0.684375)"
                 id="use152" />
              <use
                 xlink:href="#DejaVuSans-35"
                 transform="translate(128.203125 38.965625) scale(0.7)"
                 id="use154" />
            </g>
          </g>
        </g>
        <g
           id="xtick_2">
          <g
             id="line2d_3">
            <path
               d="M 257.278486 212.848  L 257.278486 45.6  "
               clip-path="url(#p8cff62162b)"
               style="fill: none; stroke: #b0b0b0; stroke-width: 0.8; stroke-linecap: square"
               id="path160" />
          </g>
          <g
             id="line2d_4">
            <g
               id="g165">
              <use
                 xlink:href="#m1887a66225"
                 x="257.278486"
                 y="212.848"
                 style="stroke: #000000; stroke-width: 0.8"
                 id="use163" />
            </g>
          </g>
          <g
             id="text_2">
            <!-- $\mathdefault{10^{11}}$ -->
            <g
               transform="translate(232.968486 236.564562) scale(0.22 -0.22)"
               id="g176">
              <use
                 xlink:href="#DejaVuSans-31"
                 transform="translate(0 0.684375)"
                 id="use168" />
              <use
                 xlink:href="#DejaVuSans-30"
                 transform="translate(63.623047 0.684375)"
                 id="use170" />
              <use
                 xlink:href="#DejaVuSans-31"
                 transform="translate(128.203125 38.965625) scale(0.7)"
                 id="use172" />
              <use
                 xlink:href="#DejaVuSans-31"
                 transform="translate(172.739258 38.965625) scale(0.7)"
                 id="use174" />
            </g>
          </g>
        </g>
        <g
           id="text_3">
          <!-- $ c_0/K_{A-B}$  -->
          <g
             transform="translate(183.065 257.297375) scale(0.16 -0.16)"
             id="g205">
            <defs
               id="defs187">
              <path
                 id="DejaVuSans-Oblique-63"
                 d="M 3431 3366  L 3316 2797  Q 3109 2947 2876 3022  Q 2644 3097 2394 3097  Q 2119 3097 1870 3000  Q 1622 2903 1453 2725  Q 1184 2453 1037 2087  Q 891 1722 891 1331  Q 891 859 1127 628  Q 1363 397 1844 397  Q 2081 397 2348 469  Q 2616 541 2906 684  L 2797 116  Q 2547 13 2283 -39  Q 2019 -91 1741 -91  Q 1044 -91 669 257  Q 294 606 294 1253  Q 294 1797 489 2255  Q 684 2713 1069 3078  Q 1331 3328 1684 3456  Q 2038 3584 2456 3584  Q 2700 3584 2940 3529  Q 3181 3475 3431 3366  z "
                 transform="scale(0.015625)" />
              <path
                 id="DejaVuSans-2f"
                 d="M 1625 4666  L 2156 4666  L 531 -594  L 0 -594  L 1625 4666  z "
                 transform="scale(0.015625)" />
              <path
                 id="DejaVuSans-Oblique-4b"
                 d="M 1081 4666  L 1716 4666  L 1331 2700  L 3781 4666  L 4622 4666  L 1850 2438  L 3878 0  L 3109 0  L 1247 2272  L 806 0  L 172 0  L 1081 4666  z "
                 transform="scale(0.015625)" />
              <path
                 id="DejaVuSans-Oblique-41"
                 d="M 2356 4666  L 3072 4666  L 3938 0  L 3278 0  L 3084 1197  L 984 1197  L 325 0  L -341 0  L 2356 4666  z M 2584 4044  L 1275 1722  L 2988 1722  L 2584 4044  z "
                 transform="scale(0.015625)" />
              <path
                 id="DejaVuSans-2212"
                 d="M 678 2272  L 4684 2272  L 4684 1741  L 678 1741  L 678 2272  z "
                 transform="scale(0.015625)" />
              <path
                 id="DejaVuSans-Oblique-42"
                 d="M 1081 4666  L 2694 4666  Q 3350 4666 3675 4422  Q 4000 4178 4000 3688  Q 4000 3238 3720 2911  Q 3441 2584 2988 2516  Q 3375 2428 3569 2181  Q 3763 1934 3763 1522  Q 3763 819 3242 409  Q 2722 0 1819 0  L 172 0  L 1081 4666  z M 1234 2228  L 903 519  L 1919 519  Q 2491 519 2800 781  Q 3109 1044 3109 1522  Q 3109 1891 2904 2059  Q 2700 2228 2247 2228  L 1234 2228  z M 1606 4147  L 1331 2741  L 2272 2741  Q 2775 2741 3058 2959  Q 3341 3178 3341 3566  Q 3341 3869 3150 4008  Q 2959 4147 2541 4147  L 1606 4147  z "
                 transform="scale(0.015625)" />
              <path
                 id="DejaVuSans-20"
                 transform="scale(0.015625)" />
            </defs>
            <use
               xlink:href="#DejaVuSans-Oblique-63"
               transform="translate(0 0.09375)"
               id="use189" />
            <use
               xlink:href="#DejaVuSans-30"
               transform="translate(54.980469 -16.3125) scale(0.7)"
               id="use191" />
            <use
               xlink:href="#DejaVuSans-2f"
               transform="translate(102.250977 0.09375)"
               id="use193" />
            <use
               xlink:href="#DejaVuSans-Oblique-4b"
               transform="translate(135.942383 0.09375)"
               id="use195" />
            <use
               xlink:href="#DejaVuSans-Oblique-41"
               transform="translate(201.518555 -16.3125) scale(0.7)"
               id="use197" />
            <use
               xlink:href="#DejaVuSans-2212"
               transform="translate(263.041992 -16.3125) scale(0.7)"
               id="use199" />
            <use
               xlink:href="#DejaVuSans-Oblique-42"
               transform="translate(335.332031 -16.3125) scale(0.7)"
               id="use201" />
            <use
               xlink:href="#DejaVuSans-20"
               transform="translate(386.088867 0.09375)"
               id="use203" />
          </g>
        </g>
      </g>
      <g
         id="matplotlib.axis_2">
        <g
           id="ytick_1">
          <g
             id="line2d_5">
            <path
               d="M 96.77 212.848  L 336.24 212.848  "
               clip-path="url(#p8cff62162b)"
               style="fill: none; stroke: #b0b0b0; stroke-width: 0.8; stroke-linecap: square"
               id="path209" />
          </g>
          <g
             id="line2d_6">
            <defs
               id="defs213">
              <path
                 id="m137c761739"
                 d="M 0 0  L -3.5 0  "
                 style="stroke: #000000; stroke-width: 0.8" />
            </defs>
            <g
               id="g217">
              <use
                 xlink:href="#m137c761739"
                 x="96.77"
                 y="212.848"
                 style="stroke: #000000; stroke-width: 0.8"
                 id="use215" />
            </g>
          </g>
          <g
             id="text_4">
            <!-- 0 -->
            <g
               transform="translate(75.7725 221.206281) scale(0.22 -0.22)"
               id="g222">
              <use
                 xlink:href="#DejaVuSans-30"
                 id="use220" />
            </g>
          </g>
        </g>
        <g
           id="ytick_2">
          <g
             id="line2d_7">
            <path
               d="M 96.77 137.358043  L 336.24 137.358043  "
               clip-path="url(#p8cff62162b)"
               style="fill: none; stroke: #b0b0b0; stroke-width: 0.8; stroke-linecap: square"
               id="path226" />
          </g>
          <g
             id="line2d_8">
            <g
               id="g231">
              <use
                 xlink:href="#m137c761739"
                 x="96.77"
                 y="137.358043"
                 style="stroke: #000000; stroke-width: 0.8"
                 id="use229" />
            </g>
          </g>
          <g
             id="text_5">
            <!-- 100 -->
            <g
               transform="translate(47.7775 145.716324) scale(0.22 -0.22)"
               id="g240">
              <use
                 xlink:href="#DejaVuSans-31"
                 id="use234" />
              <use
                 xlink:href="#DejaVuSans-30"
                 x="63.623047"
                 id="use236" />
              <use
                 xlink:href="#DejaVuSans-30"
                 x="127.246094"
                 id="use238" />
            </g>
          </g>
        </g>
        <g
           id="ytick_3">
          <g
             id="line2d_9">
            <path
               d="M 96.77 61.868086  L 336.24 61.868086  "
               clip-path="url(#p8cff62162b)"
               style="fill: none; stroke: #b0b0b0; stroke-width: 0.8; stroke-linecap: square"
               id="path244" />
          </g>
          <g
             id="line2d_10">
            <g
               id="g249">
              <use
                 xlink:href="#m137c761739"
                 x="96.77"
                 y="61.868086"
                 style="stroke: #000000; stroke-width: 0.8"
                 id="use247" />
            </g>
          </g>
          <g
             id="text_6">
            <!-- 200 -->
            <g
               transform="translate(47.7775 70.226367) scale(0.22 -0.22)"
               id="g261">
              <defs
                 id="defs253">
                <path
                   id="DejaVuSans-32"
                   d="M 1228 531  L 3431 531  L 3431 0  L 469 0  L 469 531  Q 828 903 1448 1529  Q 2069 2156 2228 2338  Q 2531 2678 2651 2914  Q 2772 3150 2772 3378  Q 2772 3750 2511 3984  Q 2250 4219 1831 4219  Q 1534 4219 1204 4116  Q 875 4013 500 3803  L 500 4441  Q 881 4594 1212 4672  Q 1544 4750 1819 4750  Q 2544 4750 2975 4387  Q 3406 4025 3406 3419  Q 3406 3131 3298 2873  Q 3191 2616 2906 2266  Q 2828 2175 2409 1742  Q 1991 1309 1228 531  z "
                   transform="scale(0.015625)" />
              </defs>
              <use
                 xlink:href="#DejaVuSans-32"
                 id="use255" />
              <use
                 xlink:href="#DejaVuSans-30"
                 x="63.623047"
                 id="use257" />
              <use
                 xlink:href="#DejaVuSans-30"
                 x="127.246094"
                 id="use259" />
            </g>
          </g>
        </g>
        <g
           id="text_7">
          <!-- Count -->
          <g
             transform="translate(39.618125 158.920875) rotate(-90) scale(0.2 -0.2)"
             id="g282">
            <defs
               id="defs270">
              <path
                 id="DejaVuSans-43"
                 d="M 4122 4306  L 4122 3641  Q 3803 3938 3442 4084  Q 3081 4231 2675 4231  Q 1875 4231 1450 3742  Q 1025 3253 1025 2328  Q 1025 1406 1450 917  Q 1875 428 2675 428  Q 3081 428 3442 575  Q 3803 722 4122 1019  L 4122 359  Q 3791 134 3420 21  Q 3050 -91 2638 -91  Q 1578 -91 968 557  Q 359 1206 359 2328  Q 359 3453 968 4101  Q 1578 4750 2638 4750  Q 3056 4750 3426 4639  Q 3797 4528 4122 4306  z "
                 transform="scale(0.015625)" />
              <path
                 id="DejaVuSans-6f"
                 d="M 1959 3097  Q 1497 3097 1228 2736  Q 959 2375 959 1747  Q 959 1119 1226 758  Q 1494 397 1959 397  Q 2419 397 2687 759  Q 2956 1122 2956 1747  Q 2956 2369 2687 2733  Q 2419 3097 1959 3097  z M 1959 3584  Q 2709 3584 3137 3096  Q 3566 2609 3566 1747  Q 3566 888 3137 398  Q 2709 -91 1959 -91  Q 1206 -91 779 398  Q 353 888 353 1747  Q 353 2609 779 3096  Q 1206 3584 1959 3584  z "
                 transform="scale(0.015625)" />
              <path
                 id="DejaVuSans-75"
                 d="M 544 1381  L 544 3500  L 1119 3500  L 1119 1403  Q 1119 906 1312 657  Q 1506 409 1894 409  Q 2359 409 2629 706  Q 2900 1003 2900 1516  L 2900 3500  L 3475 3500  L 3475 0  L 2900 0  L 2900 538  Q 2691 219 2414 64  Q 2138 -91 1772 -91  Q 1169 -91 856 284  Q 544 659 544 1381  z M 1991 3584  L 1991 3584  z "
                 transform="scale(0.015625)" />
              <path
                 id="DejaVuSans-6e"
                 d="M 3513 2113  L 3513 0  L 2938 0  L 2938 2094  Q 2938 2591 2744 2837  Q 2550 3084 2163 3084  Q 1697 3084 1428 2787  Q 1159 2491 1159 1978  L 1159 0  L 581 0  L 581 3500  L 1159 3500  L 1159 2956  Q 1366 3272 1645 3428  Q 1925 3584 2291 3584  Q 2894 3584 3203 3211  Q 3513 2838 3513 2113  z "
                 transform="scale(0.015625)" />
              <path
                 id="DejaVuSans-74"
                 d="M 1172 4494  L 1172 3500  L 2356 3500  L 2356 3053  L 1172 3053  L 1172 1153  Q 1172 725 1289 603  Q 1406 481 1766 481  L 2356 481  L 2356 0  L 1766 0  Q 1100 0 847 248  Q 594 497 594 1153  L 594 3053  L 172 3053  L 172 3500  L 594 3500  L 594 4494  L 1172 4494  z "
                 transform="scale(0.015625)" />
            </defs>
            <use
               xlink:href="#DejaVuSans-43"
               id="use272" />
            <use
               xlink:href="#DejaVuSans-6f"
               x="69.824219"
               id="use274" />
            <use
               xlink:href="#DejaVuSans-75"
               x="131.005859"
               id="use276" />
            <use
               xlink:href="#DejaVuSans-6e"
               x="194.384766"
               id="use278" />
            <use
               xlink:href="#DejaVuSans-74"
               x="257.763672"
               id="use280" />
          </g>
        </g>
      </g>
      <g
         id="line2d_11">
        <path
           d="M 126.919205 212.848  L 126.919205 61.868086  "
           clip-path="url(#p8cff62162b)"
           style="fill: none; stroke-dasharray: 11.1,4.8; stroke-dashoffset: 0; stroke: #ff0000; stroke-opacity: 0.5; stroke-width: 3"
           id="path286" />
      </g>
      <g
         id="patch_43">
        <path
           d="M 96.77 212.848  L 96.77 45.6  "
           style="fill: none; stroke: #000000; stroke-width: 0.8; stroke-linejoin: miter; stroke-linecap: square"
           id="path289" />
      </g>
      <g
         id="patch_44">
        <path
           d="M 336.24 212.848  L 336.24 45.6  "
           style="fill: none; stroke: #000000; stroke-width: 0.8; stroke-linejoin: miter; stroke-linecap: square"
           id="path292" />
      </g>
      <g
         id="patch_45">
        <path
           d="M 96.77 212.848  L 336.24 212.848  "
           style="fill: none; stroke: #000000; stroke-width: 0.8; stroke-linejoin: miter; stroke-linecap: square"
           id="path295" />
      </g>
      <g
         id="patch_46">
        <path
           d="M 96.77 45.6  L 336.24 45.6  "
           style="fill: none; stroke: #000000; stroke-width: 0.8; stroke-linejoin: miter; stroke-linecap: square"
           id="path298" />
      </g>
      <g
         id="text_8">
        <!-- PDBbind v2019 (N=2619) -->
        <g
           transform="translate(87.262812 39.6) scale(0.2 -0.2)"
           id="g360">
          <defs
             id="defs314">
            <path
               id="DejaVuSans-50"
               d="M 1259 4147  L 1259 2394  L 2053 2394  Q 2494 2394 2734 2622  Q 2975 2850 2975 3272  Q 2975 3691 2734 3919  Q 2494 4147 2053 4147  L 1259 4147  z M 628 4666  L 2053 4666  Q 2838 4666 3239 4311  Q 3641 3956 3641 3272  Q 3641 2581 3239 2228  Q 2838 1875 2053 1875  L 1259 1875  L 1259 0  L 628 0  L 628 4666  z "
               transform="scale(0.015625)" />
            <path
               id="DejaVuSans-44"
               d="M 1259 4147  L 1259 519  L 2022 519  Q 2988 519 3436 956  Q 3884 1394 3884 2338  Q 3884 3275 3436 3711  Q 2988 4147 2022 4147  L 1259 4147  z M 628 4666  L 1925 4666  Q 3281 4666 3915 4102  Q 4550 3538 4550 2338  Q 4550 1131 3912 565  Q 3275 0 1925 0  L 628 0  L 628 4666  z "
               transform="scale(0.015625)" />
            <path
               id="DejaVuSans-42"
               d="M 1259 2228  L 1259 519  L 2272 519  Q 2781 519 3026 730  Q 3272 941 3272 1375  Q 3272 1813 3026 2020  Q 2781 2228 2272 2228  L 1259 2228  z M 1259 4147  L 1259 2741  L 2194 2741  Q 2656 2741 2882 2914  Q 3109 3088 3109 3444  Q 3109 3797 2882 3972  Q 2656 4147 2194 4147  L 1259 4147  z M 628 4666  L 2241 4666  Q 2963 4666 3353 4366  Q 3744 4066 3744 3513  Q 3744 3084 3544 2831  Q 3344 2578 2956 2516  Q 3422 2416 3680 2098  Q 3938 1781 3938 1306  Q 3938 681 3513 340  Q 3088 0 2303 0  L 628 0  L 628 4666  z "
               transform="scale(0.015625)" />
            <path
               id="DejaVuSans-62"
               d="M 3116 1747  Q 3116 2381 2855 2742  Q 2594 3103 2138 3103  Q 1681 3103 1420 2742  Q 1159 2381 1159 1747  Q 1159 1113 1420 752  Q 1681 391 2138 391  Q 2594 391 2855 752  Q 3116 1113 3116 1747  z M 1159 2969  Q 1341 3281 1617 3432  Q 1894 3584 2278 3584  Q 2916 3584 3314 3078  Q 3713 2572 3713 1747  Q 3713 922 3314 415  Q 2916 -91 2278 -91  Q 1894 -91 1617 61  Q 1341 213 1159 525  L 1159 0  L 581 0  L 581 4863  L 1159 4863  L 1159 2969  z "
               transform="scale(0.015625)" />
            <path
               id="DejaVuSans-69"
               d="M 603 3500  L 1178 3500  L 1178 0  L 603 0  L 603 3500  z M 603 4863  L 1178 4863  L 1178 4134  L 603 4134  L 603 4863  z "
               transform="scale(0.015625)" />
            <path
               id="DejaVuSans-64"
               d="M 2906 2969  L 2906 4863  L 3481 4863  L 3481 0  L 2906 0  L 2906 525  Q 2725 213 2448 61  Q 2172 -91 1784 -91  Q 1150 -91 751 415  Q 353 922 353 1747  Q 353 2572 751 3078  Q 1150 3584 1784 3584  Q 2172 3584 2448 3432  Q 2725 3281 2906 2969  z M 947 1747  Q 947 1113 1208 752  Q 1469 391 1925 391  Q 2381 391 2643 752  Q 2906 1113 2906 1747  Q 2906 2381 2643 2742  Q 2381 3103 1925 3103  Q 1469 3103 1208 2742  Q 947 2381 947 1747  z "
               transform="scale(0.015625)" />
            <path
               id="DejaVuSans-76"
               d="M 191 3500  L 800 3500  L 1894 563  L 2988 3500  L 3597 3500  L 2284 0  L 1503 0  L 191 3500  z "
               transform="scale(0.015625)" />
            <path
               id="DejaVuSans-39"
               d="M 703 97  L 703 672  Q 941 559 1184 500  Q 1428 441 1663 441  Q 2288 441 2617 861  Q 2947 1281 2994 2138  Q 2813 1869 2534 1725  Q 2256 1581 1919 1581  Q 1219 1581 811 2004  Q 403 2428 403 3163  Q 403 3881 828 4315  Q 1253 4750 1959 4750  Q 2769 4750 3195 4129  Q 3622 3509 3622 2328  Q 3622 1225 3098 567  Q 2575 -91 1691 -91  Q 1453 -91 1209 -44  Q 966 3 703 97  z M 1959 2075  Q 2384 2075 2632 2365  Q 2881 2656 2881 3163  Q 2881 3666 2632 3958  Q 2384 4250 1959 4250  Q 1534 4250 1286 3958  Q 1038 3666 1038 3163  Q 1038 2656 1286 2365  Q 1534 2075 1959 2075  z "
               transform="scale(0.015625)" />
            <path
               id="DejaVuSans-28"
               d="M 1984 4856  Q 1566 4138 1362 3434  Q 1159 2731 1159 2009  Q 1159 1288 1364 580  Q 1569 -128 1984 -844  L 1484 -844  Q 1016 -109 783 600  Q 550 1309 550 2009  Q 550 2706 781 3412  Q 1013 4119 1484 4856  L 1984 4856  z "
               transform="scale(0.015625)" />
            <path
               id="DejaVuSans-4e"
               d="M 628 4666  L 1478 4666  L 3547 763  L 3547 4666  L 4159 4666  L 4159 0  L 3309 0  L 1241 3903  L 1241 0  L 628 0  L 628 4666  z "
               transform="scale(0.015625)" />
            <path
               id="DejaVuSans-3d"
               d="M 678 2906  L 4684 2906  L 4684 2381  L 678 2381  L 678 2906  z M 678 1631  L 4684 1631  L 4684 1100  L 678 1100  L 678 1631  z "
               transform="scale(0.015625)" />
            <path
               id="DejaVuSans-36"
               d="M 2113 2584  Q 1688 2584 1439 2293  Q 1191 2003 1191 1497  Q 1191 994 1439 701  Q 1688 409 2113 409  Q 2538 409 2786 701  Q 3034 994 3034 1497  Q 3034 2003 2786 2293  Q 2538 2584 2113 2584  z M 3366 4563  L 3366 3988  Q 3128 4100 2886 4159  Q 2644 4219 2406 4219  Q 1781 4219 1451 3797  Q 1122 3375 1075 2522  Q 1259 2794 1537 2939  Q 1816 3084 2150 3084  Q 2853 3084 3261 2657  Q 3669 2231 3669 1497  Q 3669 778 3244 343  Q 2819 -91 2113 -91  Q 1303 -91 875 529  Q 447 1150 447 2328  Q 447 3434 972 4092  Q 1497 4750 2381 4750  Q 2619 4750 2861 4703  Q 3103 4656 3366 4563  z "
               transform="scale(0.015625)" />
            <path
               id="DejaVuSans-29"
               d="M 513 4856  L 1013 4856  Q 1481 4119 1714 3412  Q 1947 2706 1947 2009  Q 1947 1309 1714 600  Q 1481 -109 1013 -844  L 513 -844  Q 928 -128 1133 580  Q 1338 1288 1338 2009  Q 1338 2731 1133 3434  Q 928 4138 513 4856  z "
               transform="scale(0.015625)" />
          </defs>
          <use
             xlink:href="#DejaVuSans-50"
             id="use316" />
          <use
             xlink:href="#DejaVuSans-44"
             x="60.302734"
             id="use318" />
          <use
             xlink:href="#DejaVuSans-42"
             x="137.304688"
             id="use320" />
          <use
             xlink:href="#DejaVuSans-62"
             x="205.908203"
             id="use322" />
          <use
             xlink:href="#DejaVuSans-69"
             x="269.384766"
             id="use324" />
          <use
             xlink:href="#DejaVuSans-6e"
             x="297.167969"
             id="use326" />
          <use
             xlink:href="#DejaVuSans-64"
             x="360.546875"
             id="use328" />
          <use
             xlink:href="#DejaVuSans-20"
             x="424.023438"
             id="use330" />
          <use
             xlink:href="#DejaVuSans-76"
             x="455.810547"
             id="use332" />
          <use
             xlink:href="#DejaVuSans-32"
             x="514.990234"
             id="use334" />
          <use
             xlink:href="#DejaVuSans-30"
             x="578.613281"
             id="use336" />
          <use
             xlink:href="#DejaVuSans-31"
             x="642.236328"
             id="use338" />
          <use
             xlink:href="#DejaVuSans-39"
             x="705.859375"
             id="use340" />
          <use
             xlink:href="#DejaVuSans-20"
             x="769.482422"
             id="use342" />
          <use
             xlink:href="#DejaVuSans-28"
             x="801.269531"
             id="use344" />
          <use
             xlink:href="#DejaVuSans-4e"
             x="840.283203"
             id="use346" />
          <use
             xlink:href="#DejaVuSans-3d"
             x="915.087891"
             id="use348" />
          <use
             xlink:href="#DejaVuSans-32"
             x="998.876953"
             id="use350" />
          <use
             xlink:href="#DejaVuSans-36"
             x="1062.5"
             id="use352" />
          <use
             xlink:href="#DejaVuSans-31"
             x="1126.123047"
             id="use354" />
          <use
             xlink:href="#DejaVuSans-39"
             x="1189.746094"
             id="use356" />
          <use
             xlink:href="#DejaVuSans-29"
             x="1253.369141"
             id="use358" />
        </g>
      </g>
    </g>
  </g>
  <defs
     id="defs368">
    <clipPath
       id="p8cff62162b">
      <rect
         x="96.77"
         y="45.6"
         width="239.47"
         height="167.248"
         id="rect365" />
    </clipPath>
  </defs>
  <text
     xml:space="preserve"
     style="font-style:normal;font-weight:normal;font-size:17.3556px;line-height:1.25;font-family:sans-serif;fill:#ff0000;fill-opacity:1;stroke:none;stroke-width:0.43389"
     x="108.38733"
     y="62.04319"
     id="text3325"
     inkscape:export-filename="/localhome/shuchen/projects/Norvatis/PPIS/publication/Figures/PDBbind2019_Kd.png"
     inkscape:export-xdpi="300"
     inkscape:export-ydpi="300"><tspan
       sodipodi:role="line"
       id="tspan3323"
       style="stroke-width:0.43389;fill:#ff0000"
       x="108.38733"
       y="62.04319">100</tspan></text>
</svg>
